<svg width="217" height="136" viewBox="0 0 217 136" fill="none" xmlns="http://www.w3.org/2000/svg">
<path opacity="0.24" d="M216.226 87.851C216.226 87.9892 216.2 88.1402 216.177 88.2751C216.065 89.0142 215.94 89.75 215.814 90.4858C213.504 102.959 207.537 115.195 196.934 122.026C184.364 130.14 168.131 129.118 153.398 126.605C138.666 124.092 123.516 120.336 109.008 123.922C98.983 126.393 90.0054 132.238 79.9192 134.384C57.7933 139.092 36.1782 125.407 18.7981 110.947C13.4546 106.481 8.13676 101.799 4.4416 95.9064C3.3603 94.1958 2.45594 92.3796 1.74253 90.4858C1.41017 89.624 1.12591 88.7443 0.891034 87.851C-0.182168 83.9566 -0.35568 79.8598 0.76572 75.9911C2.31447 70.683 5.90681 66.6119 10.0068 62.7914C13.988 59.048 18.4479 55.5521 21.8667 51.3557C23.4365 49.4171 24.8341 47.3453 26.0438 45.1639C29.7647 38.5833 32.2517 31.2155 36.1718 24.712C37.0286 23.3239 37.9026 22.0129 38.7937 20.779C59.0496 -6.97963 93.4789 2.65991 123.355 1.21398C133.618 0.725574 144.768 0.474947 153.083 6.50609C159.876 11.4255 163.523 19.7026 170.052 24.9722C172.547 26.9146 175.295 28.507 178.22 29.7053C184.004 32.2276 190.343 33.8824 195.848 36.996C201.541 40.2091 206.037 44.8618 209.343 50.3435C211.691 54.2241 213.486 58.4139 214.674 62.7914C216.907 70.9493 217.435 79.4799 216.226 87.851Z" fill="#6A99E6"/>
<path opacity="0.24" d="M216.225 87.851C216.225 87.9891 216.2 88.1401 216.177 88.2751C214.191 101.488 208.144 114.797 196.933 122.013C184.363 130.14 168.13 129.118 153.398 126.605C138.666 124.092 123.515 120.336 109.008 123.922C98.9828 126.393 90.0051 132.238 79.919 134.384C57.793 139.092 36.1779 125.407 18.7978 110.947C13.4543 106.481 8.1365 101.799 4.44134 95.9064C2.86338 93.413 1.66666 90.6979 0.890778 87.851H216.225Z" fill="#6A99E6"/>
<path d="M216.225 87.851C216.225 87.9891 216.2 88.1401 216.177 88.2751C214.191 101.488 208.144 114.797 196.933 122.013C184.363 130.14 168.13 129.118 153.398 126.605C138.666 124.092 123.515 120.336 109.008 123.922C98.9828 126.393 90.0051 132.238 79.919 134.384C57.793 139.092 36.1779 125.407 18.7978 110.947C13.4543 106.481 8.1365 101.799 4.44134 95.9064C2.86338 93.413 1.66666 90.6979 0.890778 87.851H216.225Z" fill="url(#paint0_linear_110_180)"/>
<path d="M215.814 90.4858C213.504 102.959 207.537 115.195 196.933 122.026C184.363 130.14 168.13 129.118 153.398 126.605C138.666 124.093 123.515 120.336 109.008 123.922C98.9828 126.393 90.0052 132.238 79.919 134.384C57.793 139.092 36.1779 125.407 18.7978 110.947C13.4543 106.481 8.13651 101.799 4.44135 95.9065C3.36005 94.1959 2.4557 92.3796 1.74228 90.4858H215.814Z" fill="url(#paint1_linear_110_180)"/>
<path d="M180.408 99.7558C188.968 99.6883 197.621 100.077 205.998 98.3259C206.175 95.9417 204.603 93.6925 202.576 92.4297C200.548 91.167 198.126 90.7171 195.757 90.4119C188.248 89.4479 180.655 89.6375 173.072 89.8495C155.56 90.3337 138.05 90.8692 120.54 91.4561C111.785 91.7475 103.03 92.0527 94.2755 92.3719C88.8131 92.5679 85.6224 93.7728 82.0654 96.2888C81.6725 96.5606 81.3657 96.9394 81.1814 97.3802C80.997 97.8211 80.9429 98.3055 81.0254 98.7761C81.1079 99.2468 81.3236 99.6839 81.6468 100.036C81.9701 100.388 82.3874 100.64 82.8494 100.762C97.373 104.553 114.265 103.57 128.798 102.795C146.001 101.886 163.156 99.8875 180.408 99.7558Z" fill="url(#paint2_linear_110_180)"/>
<path opacity="0.24" d="M216.788 81.9419C216.762 82.6681 216.714 83.3911 216.637 84.1172C216.55 85.3768 216.399 86.6267 216.225 87.8606H0.890782C0.553701 86.6326 0.307759 85.3814 0.154964 84.1172C0.0625401 83.3957 0.0131839 82.6693 0.00715766 81.9419C-0.033782 80.4319 0.101006 78.9223 0.408805 77.4435C0.499799 76.9591 0.615626 76.4797 0.755829 76.0072C0.832945 75.7565 0.906848 75.5059 0.993604 75.2681C1.52759 73.6903 2.24474 72.1805 3.13037 70.7697C3.591 70.0199 4.09081 69.2948 4.62771 68.5976C6.25115 66.5217 8.0473 64.5869 9.99694 62.8138H214.677C215.213 64.7163 215.642 66.6472 215.962 68.5976C216.1 69.3205 216.212 70.0435 216.312 70.7697C216.498 72.2542 216.633 73.7644 216.736 75.2681C216.788 75.9943 216.813 76.7173 216.826 77.4435C216.874 78.9247 216.862 80.4349 216.788 81.9419Z" fill="#6A99E6"/>
<path d="M123.92 96.0607C125.459 96.321 126.944 96.8319 128.477 97.1146C130.404 97.4713 132.397 97.4552 134.363 97.4359C148.791 97.2149 163.198 96.2496 177.526 94.5441C178.488 94.4855 179.433 94.2594 180.318 93.8757C181.179 93.4452 181.86 92.7318 182.635 92.1599C185.029 90.3926 188.197 90.0392 191.166 90.2706C194.135 90.5019 197.043 91.2506 200.012 91.4401C200.43 91.5045 200.858 91.4406 201.239 91.257C201.923 90.8425 201.946 89.8753 201.882 89.0817C201.618 86.0484 201.088 82.7549 198.832 80.7274C196.435 78.5585 192.872 78.4782 189.643 78.5232C186.995 78.5585 184.325 78.5971 181.741 79.1658C179.001 79.7827 176.433 80.9973 173.737 81.7845C168.326 83.359 162.578 83.163 156.945 82.9541L125.736 81.7942C121.42 81.6367 117.022 81.4729 112.864 82.6425C108.706 83.8121 102.283 87.7064 102.668 92.8411C102.99 97.2528 103.748 98.9686 106.755 98.7309C110.406 98.4256 120.27 95.4373 123.92 96.0607Z" fill="#6A99E6"/>
<path d="M123.92 96.0607C125.459 96.321 126.944 96.8319 128.477 97.1146C130.404 97.4713 132.397 97.4552 134.363 97.4359C148.791 97.2149 163.198 96.2496 177.526 94.5441C178.488 94.4855 179.433 94.2594 180.318 93.8757C181.179 93.4452 181.86 92.7318 182.635 92.1599C185.029 90.3926 188.197 90.0392 191.166 90.2706C194.135 90.5019 197.043 91.2506 200.012 91.4401C200.43 91.5045 200.858 91.4406 201.239 91.257C201.923 90.8425 201.946 89.8753 201.882 89.0817C201.618 86.0484 201.088 82.7549 198.832 80.7274C196.435 78.5585 192.872 78.4782 189.643 78.5232C186.995 78.5585 184.325 78.5971 181.741 79.1658C179.001 79.7827 176.433 80.9973 173.737 81.7845C168.326 83.359 162.578 83.163 156.945 82.9541L125.736 81.7942C121.42 81.6367 117.022 81.4729 112.864 82.6425C108.706 83.8121 102.283 87.7064 102.668 92.8411C102.99 97.2528 103.748 98.9686 106.755 98.7309C110.406 98.4256 120.27 95.4373 123.92 96.0607Z" fill="url(#paint3_linear_110_180)"/>
<path d="M216.788 81.9419C216.762 82.6681 216.714 83.391 216.637 84.1172H0.145323C0.0561221 83.3955 0.00998486 82.6691 0.00715637 81.9419H216.788Z" fill="url(#paint4_linear_110_180)"/>
<path d="M216.839 77.4434H0.408813C0.499807 76.959 0.615634 76.4796 0.755837 76.0071C0.832953 75.7565 0.906857 75.5058 0.993613 75.2681H216.749C216.817 75.9782 216.817 76.7011 216.839 77.4434Z" fill="url(#paint5_linear_110_180)"/>
<path d="M216.325 70.7473H3.14001C3.60065 69.9975 4.10046 69.2724 4.63736 68.5752H215.975C216.113 69.2982 216.225 70.0211 216.325 70.7473Z" fill="url(#paint6_linear_110_180)"/>
<path d="M106.749 98.7147L106.151 98.7533C98.0734 99.3381 86.2297 96.9924 84.6006 96.1666C82.9715 95.3408 81.6766 91.771 82.3513 87.0155C82.7273 89.2262 83.6013 90.7492 84.6006 91.2473C86.2361 92.073 98.0734 94.4187 106.151 93.8339H106.2C106.164 94.1938 106.151 94.5568 106.151 94.9328C106.151 96.217 106.353 97.4932 106.749 98.7147Z" fill="#6A99E6"/>
<path d="M180.967 94.8685L167.093 96.2791C167.093 96.2791 147.393 96.9795 130.199 97.6543C130.407 96.7577 130.515 95.8405 130.52 94.9199C130.523 94.1869 130.457 93.4553 130.321 92.7349C147.489 92.0602 167.102 91.3597 167.102 91.3597L180.562 89.9877C180.498 90.4842 180.465 90.9843 180.463 91.485C180.455 92.6321 180.625 93.7734 180.967 94.8685Z" fill="#6A99E6"/>
<path d="M106.749 98.7147L106.151 98.7533C98.0734 99.3381 86.2297 96.9924 84.6006 96.1666C82.9715 95.3408 81.6766 91.771 82.3513 87.0155C82.7273 89.2262 83.6013 90.7492 84.6006 91.2473C86.2361 92.073 98.0734 94.4187 106.151 93.8339H106.2C106.164 94.1938 106.151 94.5568 106.151 94.9328C106.151 96.217 106.353 97.4932 106.749 98.7147Z" fill="url(#paint7_linear_110_180)"/>
<path d="M180.967 94.8685L167.093 96.2791C167.093 96.2791 147.393 96.9795 130.199 97.6543C130.407 96.7577 130.515 95.8405 130.52 94.9199C130.523 94.1869 130.457 93.4553 130.321 92.7349C147.489 92.0602 167.102 91.3597 167.102 91.3597L180.562 89.9877C180.498 90.4842 180.465 90.9843 180.463 91.485C180.455 92.6321 180.625 93.7734 180.967 94.8685Z" fill="url(#paint8_linear_110_180)"/>
<path d="M201.541 91.6843V91.4979C201.541 85.5054 196.824 80.6213 191.005 80.6213C185.999 80.6213 181.803 84.2297 180.723 89.0495C180.644 89.3668 180.585 89.6887 180.546 90.0135L167.086 91.3855C167.086 91.3855 147.486 92.086 130.305 92.7607C130.305 92.6579 130.266 92.5711 130.253 92.4844C129.685 89.7408 128.187 87.2772 126.014 85.5085C123.841 83.7398 121.125 82.7741 118.323 82.7741C115.521 82.7741 112.805 83.7398 110.632 85.5085C108.458 87.2772 106.961 89.7408 106.392 92.4844C106.301 92.9301 106.234 93.3807 106.193 93.8339H106.145C98.067 94.4187 86.2233 92.0731 84.5942 91.2473C83.5949 90.7493 82.7209 89.2262 82.3449 87.0156C82.3449 86.977 82.3449 86.9513 82.3449 86.9159C83.0583 82.0962 85.7413 79.8855 89.5007 76.9551C92.8456 74.346 103.96 71.2485 108.217 70.1239L109.416 69.8025C111.113 69.3527 120.54 64.7964 127.268 61.4868C131.914 59.2022 136.981 57.9016 142.152 57.6664C144.401 57.5667 146.997 57.4543 149.706 57.345C154.69 57.1458 160.094 56.9595 164.615 56.8952C176.652 56.7217 187.814 60.0666 188.425 60.2433C189.035 60.4201 192.734 66.2102 194.318 68.1445C195.902 70.0789 201.085 74.6512 201.085 74.6512C201.085 74.6512 202.691 74.8247 203.758 81.2672C203.758 81.3796 203.797 81.4792 203.806 81.5885C204.351 85.119 203.542 88.7249 201.541 91.6843Z" fill="#6A99E6"/>
<path d="M83.3571 84.6988C86.2489 85.9198 89.4621 86.2604 92.595 86.27C94.1186 86.3199 95.6418 86.1609 97.1223 85.7977C98.5498 85.3432 99.9236 84.7345 101.219 83.9823C104.901 82.0222 108.593 80.0825 112.295 78.1632C113.902 77.3278 115.537 76.4891 117.298 76.0714C118.982 75.673 120.726 75.6665 122.455 75.6633L136.371 75.6408C149.545 75.6184 162.748 71.393 175.893 70.7086C182.258 70.3776 188.635 70.4098 194.996 70.805C192.618 69.7526 190.408 68.3548 188.438 66.6568C187.882 66.178 187.316 65.6221 187.175 64.9024C187.05 64.2598 187.294 63.585 187.271 62.9231C187.23 61.7021 186.262 60.6738 185.141 60.1758C184.02 59.6778 182.763 59.6296 181.542 59.5846C170.973 59.184 160.404 58.7963 149.835 58.4214C145.622 58.2768 141.39 58.1386 137.207 58.6592C123.303 60.3943 111.382 69.1341 98.1891 73.8543C95.0916 74.9661 91.8945 75.8625 88.9834 77.3888C86.0722 78.9151 84.5588 81.6366 83.3571 84.6988Z" fill="url(#paint9_linear_110_180)"/>
<path d="M149.725 57.3611C149.552 57.6374 148.964 57.872 147.839 58.0616C140.548 59.2858 127.625 68.5976 122.455 70.5351C117.285 72.4727 108.394 70.7086 108.394 70.7086C108.334 70.5155 108.285 70.3192 108.246 70.1206L109.445 69.7993C111.141 69.3495 120.569 64.7932 127.297 61.4836C131.943 59.199 137.01 57.8983 142.181 57.6631C144.433 57.5732 147.017 57.4607 149.725 57.3611Z" fill="url(#paint10_linear_110_180)"/>
<path d="M127.889 72.0517C127.734 72.1761 127.624 72.3463 127.572 72.5378C127.521 72.7292 127.532 72.932 127.603 73.1169C127.675 73.3017 127.803 73.459 127.97 73.5662C128.137 73.6733 128.333 73.7247 128.531 73.7129C138.296 73.0702 169.284 70.9817 172.23 70.3904C175.746 69.6868 183.477 68.9863 184.762 66.5346C186.047 64.083 185.26 61.3196 185.26 61.3196C185.26 61.3196 161.977 57.2003 150.304 59.8159C141.14 61.8595 132.201 68.5782 127.889 72.0517Z" fill="url(#paint11_linear_110_180)"/>
<path d="M92.2126 81.5242C92.2126 81.5242 100.766 74.844 102.639 74.3749C104.513 73.9057 116 74.2592 116 74.2592C116 74.2592 112.6 76.8297 110.608 77.5398C108.616 78.2499 94.9053 81.9933 92.2126 81.5242Z" fill="url(#paint12_linear_110_180)"/>
<path d="M118.249 103.792C123.505 103.792 127.766 99.5305 127.766 94.2742C127.766 89.0178 123.505 84.7567 118.249 84.7567C112.993 84.7567 108.732 89.0178 108.732 94.2742C108.732 99.5305 112.993 103.792 118.249 103.792Z" fill="#1F1F1F"/>
<path d="M118.249 103.792C123.505 103.792 127.766 99.5305 127.766 94.2742C127.766 89.0178 123.505 84.7567 118.249 84.7567C112.993 84.7567 108.732 89.0178 108.732 94.2742C108.732 99.5305 112.993 103.792 118.249 103.792Z" fill="url(#paint13_linear_110_180)"/>
<path d="M118.361 101.211C122.125 101.211 125.177 98.1601 125.177 94.3962C125.177 90.6323 122.125 87.5811 118.361 87.5811C114.598 87.5811 111.546 90.6323 111.546 94.3962C111.546 98.1601 114.598 101.211 118.361 101.211Z" fill="#6A99E6"/>
<path d="M191.057 100.511C196.008 100.511 200.021 96.4973 200.021 91.5462C200.021 86.5951 196.008 82.5814 191.057 82.5814C186.105 82.5814 182.092 86.5951 182.092 91.5462C182.092 96.4973 186.105 100.511 191.057 100.511Z" fill="#1F1F1F"/>
<path d="M191.057 100.511C196.008 100.511 200.021 96.4973 200.021 91.5462C200.021 86.5951 196.008 82.5814 191.057 82.5814C186.105 82.5814 182.092 86.5951 182.092 91.5462C182.092 96.4973 186.105 100.511 191.057 100.511Z" fill="url(#paint14_linear_110_180)"/>
<path d="M191.159 98.0817C194.705 98.0817 197.579 95.2074 197.579 91.6618C197.579 88.1161 194.705 85.2418 191.159 85.2418C187.614 85.2418 184.739 88.1161 184.739 91.6618C184.739 95.2074 187.614 98.0817 191.159 98.0817Z" fill="#6A99E6"/>
<path d="M118.387 100.206C121.512 100.206 124.046 97.6724 124.046 94.5473C124.046 91.4223 121.512 88.8889 118.387 88.8889C115.262 88.8889 112.729 91.4223 112.729 94.5473C112.729 97.6724 115.262 100.206 118.387 100.206Z" fill="url(#paint15_linear_110_180)"/>
<path d="M191.188 96.7612C194.022 96.7612 196.32 94.4638 196.32 91.6297C196.32 88.7957 194.022 86.4983 191.188 86.4983C188.354 86.4983 186.057 88.7957 186.057 91.6297C186.057 94.4638 188.354 96.7612 191.188 96.7612Z" fill="url(#paint16_linear_110_180)"/>
<path d="M85.1854 32.2661C85.2368 33.23 84.5427 34.1008 83.8005 34.7241C78.3381 39.2579 69.9838 35.7491 63.1237 37.5582C58.23 38.8434 54.371 42.8406 49.4644 44.052C47.3662 44.5758 45.1684 44.5629 43.0381 44.9131C40.6025 45.3116 38.2569 46.1984 35.8084 46.5487C32.4838 47.0202 29.0936 46.54 26.0307 45.1638C29.7516 38.5832 32.2386 31.2154 36.1587 24.7119C37.0155 23.3238 37.8895 22.0128 38.7806 20.7789C44.6222 20.6536 50.9907 24.262 56.0482 26.0357C64.2772 28.9276 73.4669 27.2953 81.9047 29.5059C83.3892 29.8883 85.0986 30.7302 85.1854 32.2661Z" fill="url(#paint17_linear_110_180)"/>
<path d="M209.359 50.3436C194.013 51.0441 178.557 48.6213 163.137 48.6824C148.851 48.7466 134.219 50.893 120.521 46.7994C118.612 46.2243 116.328 44.8266 116.826 42.889C123.313 41.3435 128.775 37.0217 135.019 34.6247C140.708 32.448 146.893 31.907 152.874 33.0631C156.447 33.7764 160.043 35.0746 163.638 34.4994C166.611 34.0238 169.207 32.3016 171.941 31.0677C173.664 30.2805 175.849 29.8788 178.223 29.7053C184.007 32.2277 190.346 33.8825 195.851 36.996C201.541 40.2189 206.036 44.8619 209.359 50.3436Z" fill="url(#paint18_linear_110_180)"/>
<defs>
<linearGradient id="paint0_linear_110_180" x1="109.307" y1="138.15" x2="107.549" y2="20.7308" gradientUnits="userSpaceOnUse">
<stop stop-color="#010101" stop-opacity="0"/>
<stop offset="0.95" stop-color="#010101"/>
</linearGradient>
<linearGradient id="paint1_linear_110_180" x1="103.642" y1="144.265" x2="115.595" y2="19.1114" gradientUnits="userSpaceOnUse">
<stop stop-color="white" stop-opacity="0"/>
<stop offset="0.95" stop-color="white"/>
</linearGradient>
<linearGradient id="paint2_linear_110_180" x1="141.291" y1="54.18" x2="151.136" y2="250.345" gradientUnits="userSpaceOnUse">
<stop stop-color="#010101" stop-opacity="0"/>
<stop offset="0.95" stop-color="#010101"/>
</linearGradient>
<linearGradient id="paint3_linear_110_180" x1="149.076" y1="46.8251" x2="154.699" y2="124.517" gradientUnits="userSpaceOnUse">
<stop stop-color="#010101" stop-opacity="0"/>
<stop offset="0.95" stop-color="#010101"/>
</linearGradient>
<linearGradient id="paint4_linear_110_180" x1="106.463" y1="52.2007" x2="113.493" y2="161.182" gradientUnits="userSpaceOnUse">
<stop stop-color="#010101" stop-opacity="0"/>
<stop offset="0.95" stop-color="#010101"/>
</linearGradient>
<linearGradient id="paint5_linear_110_180" x1="107.019" y1="52.1653" x2="114.049" y2="161.147" gradientUnits="userSpaceOnUse">
<stop stop-color="#010101" stop-opacity="0"/>
<stop offset="0.95" stop-color="#010101"/>
</linearGradient>
<linearGradient id="paint6_linear_110_180" x1="108.523" y1="52.0691" x2="115.553" y2="161.047" gradientUnits="userSpaceOnUse">
<stop stop-color="#010101" stop-opacity="0"/>
<stop offset="0.95" stop-color="#010101"/>
</linearGradient>
<linearGradient id="paint7_linear_110_180" x1="98.2598" y1="55.1086" x2="82.7916" y2="212.252" gradientUnits="userSpaceOnUse">
<stop stop-color="#010101" stop-opacity="0"/>
<stop offset="0.95" stop-color="#010101"/>
</linearGradient>
<linearGradient id="paint8_linear_110_180" x1="158.86" y1="61.0755" x2="143.392" y2="218.219" gradientUnits="userSpaceOnUse">
<stop stop-color="#010101" stop-opacity="0"/>
<stop offset="0.95" stop-color="#010101"/>
</linearGradient>
<linearGradient id="paint9_linear_110_180" x1="139.221" y1="87.716" x2="138.987" y2="28.889" gradientUnits="userSpaceOnUse">
<stop stop-color="white" stop-opacity="0"/>
<stop offset="0.95" stop-color="white"/>
</linearGradient>
<linearGradient id="paint10_linear_110_180" x1="108.237" y1="64.4012" x2="149.725" y2="64.4012" gradientUnits="userSpaceOnUse">
<stop stop-color="#010101" stop-opacity="0"/>
<stop offset="0.95" stop-color="#010101"/>
</linearGradient>
<linearGradient id="paint11_linear_110_180" x1="127.535" y1="66.3322" x2="185.523" y2="66.3322" gradientUnits="userSpaceOnUse">
<stop stop-color="#010101" stop-opacity="0"/>
<stop offset="0.95" stop-color="#010101"/>
</linearGradient>
<linearGradient id="paint12_linear_110_180" x1="92.2126" y1="77.8483" x2="116" y2="77.8483" gradientUnits="userSpaceOnUse">
<stop stop-color="white" stop-opacity="0"/>
<stop offset="0.95" stop-color="white"/>
</linearGradient>
<linearGradient id="paint13_linear_110_180" x1="108.095" y1="104.097" x2="124.267" y2="88.4551" gradientUnits="userSpaceOnUse">
<stop stop-color="#010101" stop-opacity="0"/>
<stop offset="0.95" stop-color="#010101"/>
</linearGradient>
<linearGradient id="paint14_linear_110_180" x1="182.092" y1="91.5462" x2="200.021" y2="91.5462" gradientUnits="userSpaceOnUse">
<stop stop-color="#010101" stop-opacity="0"/>
<stop offset="0.95" stop-color="#010101"/>
</linearGradient>
<linearGradient id="paint15_linear_110_180" x1="116.864" y1="55.9667" x2="119.489" y2="122.505" gradientUnits="userSpaceOnUse">
<stop stop-color="#010101" stop-opacity="0"/>
<stop offset="0.95" stop-color="#010101"/>
</linearGradient>
<linearGradient id="paint16_linear_110_180" x1="189.72" y1="54.3697" x2="192.249" y2="118.444" gradientUnits="userSpaceOnUse">
<stop stop-color="#010101" stop-opacity="0"/>
<stop offset="0.95" stop-color="#010101"/>
</linearGradient>
<linearGradient id="paint17_linear_110_180" x1="26.0275" y1="33.7506" x2="85.1886" y2="33.7506" gradientUnits="userSpaceOnUse">
<stop stop-color="white" stop-opacity="0"/>
<stop offset="0.95" stop-color="white"/>
</linearGradient>
<linearGradient id="paint18_linear_110_180" x1="169.573" y1="18.0158" x2="158.452" y2="67.0907" gradientUnits="userSpaceOnUse">
<stop stop-color="white" stop-opacity="0"/>
<stop offset="0.95" stop-color="white"/>
</linearGradient>
</defs>
</svg>
