<svg width="184" height="166" viewBox="0 0 184 166" fill="none" xmlns="http://www.w3.org/2000/svg">
<path opacity="0.18" d="M43.1129 151.799C36.3936 149.131 31.1141 143.861 26.401 138.361C19.512 130.323 13.5264 121.553 8.55169 112.208C1.97638 99.883 -2.82791 85.2253 1.89959 72.0651C3.81939 66.7281 7.17904 62.0438 10.6827 57.5754C16.1061 50.6689 22.1631 43.9017 30.0246 39.9325C35.784 37.0144 42.2586 35.7473 48.1331 33.0596C59.7431 27.7561 68.1854 17.3892 78.8019 10.3052C97.0736 -1.88074 122.386 -3.1766 141.195 8.15501C148.299 12.4362 154.351 18.2675 159.803 24.5117C171.096 37.4703 180.254 52.8287 182.869 69.8093C185.442 86.5308 181.281 104.236 171.322 117.915C161.363 131.593 145.692 141.034 128.894 143.194C122.415 144.029 115.268 144.029 110.263 148.233C108.151 150.009 106.634 152.385 104.734 154.386C99.147 160.28 90.6087 162.488 82.4879 162.603C69.1165 162.795 55.366 156.671 43.1129 151.799Z" fill="#6A99E6"/>
<path d="M165.298 54.4222L159.429 31.9462L152.023 54.451L150.962 54.4318L159.481 29.076L166.292 54.4318L165.298 54.4222Z" fill="#6A99E6"/>
<path d="M158.404 54.489L159.032 30.4998L159.886 30.5221L159.258 54.5114L158.404 54.489Z" fill="#6A99E6"/>
<path d="M135.033 54.547L128.438 31.9462L121.009 54.3166L120.198 54.0478L128.491 29.076L135.854 54.3118L135.033 54.547Z" fill="#6A99E6"/>
<path d="M127.903 54.6058L128.623 30.6084L129.477 30.634L128.757 54.6315L127.903 54.6058Z" fill="#6A99E6"/>
<path d="M165.298 54.4222L159.429 31.9462L152.023 54.451L150.962 54.4318L159.481 29.076L166.292 54.4318L165.298 54.4222Z" fill="url(#paint0_linear_30_497)"/>
<path d="M158.404 54.489L159.032 30.4998L159.886 30.5221L159.258 54.5114L158.404 54.489Z" fill="url(#paint1_linear_30_497)"/>
<path d="M135.033 54.547L128.438 31.9462L121.009 54.3166L120.198 54.0478L128.491 29.076L135.854 54.3118L135.033 54.547Z" fill="url(#paint2_linear_30_497)"/>
<path d="M127.903 54.6058L128.623 30.6084L129.477 30.634L128.757 54.6315L127.903 54.6058Z" fill="url(#paint3_linear_30_497)"/>
<path d="M135.426 32.7719C133.795 32.7719 132.441 32.0855 131.04 31.3752C130.56 31.14 130.08 30.8953 129.6 30.6697C127.378 29.6666 126.375 31.4616 126.269 31.668C126.189 31.829 126.048 31.9516 125.877 32.0087C125.707 32.0659 125.521 32.0529 125.36 31.9727C125.199 31.8925 125.076 31.7517 125.019 31.5811C124.962 31.4105 124.975 31.2243 125.055 31.0632C125.612 29.9545 127.383 28.1835 130.142 29.441C130.68 29.681 131.174 29.921 131.649 30.1753C133.751 31.2408 135.268 32.0135 137.812 30.8425C138.652 30.4585 139.309 30.1321 139.885 29.849C141.647 28.9755 142.53 28.5387 144.45 28.5387C145.578 28.5704 146.675 28.9215 147.612 29.5514C148.451 30.1028 149.405 30.4542 150.401 30.5785C152.023 30.7465 156.103 30.948 158.848 29.1866C159.642 28.7672 160.569 28.6759 161.43 28.9323C162.574 29.1579 163.584 29.823 164.243 30.7849C164.288 30.8608 164.318 30.945 164.331 31.0325C164.344 31.12 164.339 31.2092 164.318 31.295C164.296 31.3808 164.258 31.4615 164.205 31.5325C164.152 31.6035 164.086 31.6634 164.01 31.7088C163.934 31.7541 163.85 31.7841 163.762 31.797C163.675 31.8098 163.586 31.8053 163.5 31.7837C163.414 31.7621 163.333 31.7238 163.262 31.671C163.191 31.6182 163.131 31.5519 163.086 31.476C162.61 30.8326 161.909 30.3922 161.123 30.2425C160.615 30.0826 160.067 30.1098 159.578 30.3193C156.583 32.2391 152.455 32.1479 150.262 31.9175C149.08 31.7755 147.946 31.3669 146.945 30.7225C146.21 30.2063 145.342 29.91 144.445 29.8682C142.837 29.8682 142.194 30.1849 140.48 31.0344C139.919 31.308 139.228 31.6536 138.369 32.0471C137.453 32.5007 136.448 32.748 135.426 32.7719Z" fill="#6A99E6"/>
<path d="M135.426 32.7719C133.795 32.7719 132.441 32.0855 131.04 31.3752C130.56 31.14 130.08 30.8953 129.6 30.6697C127.378 29.6666 126.375 31.4616 126.269 31.668C126.189 31.829 126.048 31.9516 125.877 32.0087C125.707 32.0659 125.521 32.0529 125.36 31.9727C125.199 31.8925 125.076 31.7517 125.019 31.5811C124.962 31.4105 124.975 31.2243 125.055 31.0632C125.612 29.9545 127.383 28.1835 130.142 29.441C130.68 29.681 131.174 29.921 131.649 30.1753C133.751 31.2408 135.268 32.0135 137.812 30.8425C138.652 30.4585 139.309 30.1321 139.885 29.849C141.647 28.9755 142.53 28.5387 144.45 28.5387C145.578 28.5704 146.675 28.9215 147.612 29.5514C148.451 30.1028 149.405 30.4542 150.401 30.5785C152.023 30.7465 156.103 30.948 158.848 29.1866C159.642 28.7672 160.569 28.6759 161.43 28.9323C162.574 29.1579 163.584 29.823 164.243 30.7849C164.288 30.8608 164.318 30.945 164.331 31.0325C164.344 31.12 164.339 31.2092 164.318 31.295C164.296 31.3808 164.258 31.4615 164.205 31.5325C164.152 31.6035 164.086 31.6634 164.01 31.7088C163.934 31.7541 163.85 31.7841 163.762 31.797C163.675 31.8098 163.586 31.8053 163.5 31.7837C163.414 31.7621 163.333 31.7238 163.262 31.671C163.191 31.6182 163.131 31.5519 163.086 31.476C162.61 30.8326 161.909 30.3922 161.123 30.2425C160.615 30.0826 160.067 30.1098 159.578 30.3193C156.583 32.2391 152.455 32.1479 150.262 31.9175C149.08 31.7755 147.946 31.3669 146.945 30.7225C146.21 30.2063 145.342 29.91 144.445 29.8682C142.837 29.8682 142.194 30.1849 140.48 31.0344C139.919 31.308 139.228 31.6536 138.369 32.0471C137.453 32.5007 136.448 32.748 135.426 32.7719Z" fill="url(#paint4_linear_30_497)"/>
<path d="M101.235 66.4211C101.913 66.562 102.536 66.8952 103.03 67.381C103.419 67.9485 103.642 68.6134 103.673 69.3008C106.893 92.4488 108.832 115.078 100.74 137.002C100.527 137.741 100.142 138.418 99.6174 138.98C99.0558 139.428 98.3991 139.741 97.6976 139.897C90.292 142.056 82.4352 141.936 74.7224 141.764C71.2716 141.682 67.7295 141.581 64.5235 140.295C63.4388 139.858 62.3253 139.205 61.9126 138.111C61.7176 137.422 61.6541 136.702 61.7254 135.99C61.8742 130.182 59.8488 124.562 58.9753 118.817C58.121 113.211 58.3705 107.5 58.6249 101.837C58.8873 96.0132 59.1576 90.1914 59.436 84.3712C59.6472 79.9365 56.4987 75.9961 57.6362 71.6429C58.6537 67.7458 75.0296 63.1094 81.6337 63.215C88.2798 63.4188 94.8701 64.4967 101.235 66.4211Z" fill="#F9FBFE"/>
<path d="M59.9545 159.162C66.0306 164.696 74.9385 166.361 83.0448 165.027C91.1512 163.692 98.576 159.618 105.281 154.871C102.985 149.349 101.385 143.563 100.52 137.646C100.693 138.826 79.3348 140.952 77.3094 140.943C73.6906 140.943 69.9086 139.503 66.3954 139.652C63.3237 139.772 63.0357 142.752 62.5558 145.234C61.6823 149.873 60.8152 154.516 59.9545 159.162Z" fill="#1F1F1F"/>
<path d="M59.9545 159.162C66.0306 164.696 74.9385 166.361 83.0448 165.027C91.1512 163.692 98.576 159.618 105.281 154.871C102.985 149.349 101.385 143.563 100.52 137.646C100.693 138.826 79.3348 140.952 77.3094 140.943C73.6906 140.943 69.9086 139.503 66.3954 139.652C63.3237 139.772 63.0357 142.752 62.5558 145.234C61.6823 149.873 60.8152 154.516 59.9545 159.162Z" fill="url(#paint5_linear_30_497)"/>
<path d="M97.9664 146.611C98.4993 146.469 98.9837 146.186 99.3679 145.79C99.7362 145.239 99.8883 144.57 99.7951 143.914C99.6956 142.32 99.1647 140.784 98.2592 139.469C90.7853 142.134 82.779 142.957 74.9193 141.869C72.4427 141.524 64.7635 138.884 65.3203 143.645C65.6658 146.635 70.7725 147.005 73.1051 147.629C81.3081 149.778 89.9665 149.423 97.9664 146.611Z" fill="#1F1F1F"/>
<path d="M75.6199 62.3607C75.2024 63.3638 74.66 64.4341 74.948 65.4899C75.0729 65.9134 75.28 66.3081 75.5575 66.6514C76.2565 67.5737 77.1787 68.3028 78.2374 68.7701C79.296 69.2373 80.4562 69.4273 81.6086 69.3222C82.761 69.217 83.8676 68.8201 84.8242 68.169C85.7808 67.5179 86.5559 66.6339 87.0763 65.6003C85.973 63.6713 85.492 61.4488 85.6989 59.2362C85.7901 58.2763 85.9821 57.1676 85.3629 56.4093C85.0399 56.0583 84.6315 55.7971 84.1774 55.651C82.2576 54.8927 79.5219 54.6431 77.7749 55.9773C76.2055 57.1916 76.4023 60.5177 75.6199 62.3607Z" fill="#F9FBFE"/>
<path d="M78.4564 61.78C79.0019 62.5111 79.708 63.1072 80.5202 63.5222C81.3457 63.9014 86.5484 64.8133 86.246 63.9542C85.6798 62.4501 85.4983 60.8283 85.7181 59.2363C86.198 58.4059 86.7884 57.9932 87.0139 57.0525C87.0859 56.7625 87.0859 56.4594 87.0139 56.1694C86.8682 55.7321 86.5833 55.3545 86.2028 55.0943C85.1797 54.4169 83.996 54.0212 82.7712 53.9472C81.7825 53.8272 80.789 53.7648 79.7955 53.7024C78.9846 53.5844 78.1569 53.6821 77.3958 53.9856C74.3289 55.5454 77.0598 60.0378 78.4564 61.78Z" fill="url(#paint6_linear_30_497)"/>
<path d="M74.7081 57.2683C75.8605 58.4759 77.2858 59.3894 78.8644 59.932C81.7921 60.8391 85.1038 59.8264 87.4315 57.8587C89.7593 55.8909 91.2711 53.0976 92.3174 50.2083C94.1892 44.9 95.4371 38.1231 94.2036 32.6325C93.7765 30.7127 93.1333 28.7929 91.8902 27.2667C87.2875 21.6225 75.3176 23.1247 70.2925 27.8666C66.0546 31.8502 67.7248 39.2654 68.6175 44.2905C69.443 49.042 71.214 53.8127 74.7081 57.2683Z" fill="#F9FBFE"/>
<path d="M65.8338 39.6831C65.6276 39.5921 65.4029 39.5508 65.1779 39.5625C64.9528 39.5741 64.7336 39.6385 64.5379 39.7503C64.2487 40.0397 64.0776 40.4264 64.058 40.835C63.8902 41.4997 63.8902 42.1957 64.058 42.8604C64.24 43.3147 64.4999 43.7337 64.8259 44.0987L66.3425 45.9897C66.5183 46.2553 66.7619 46.4691 67.0481 46.6088C67.2975 46.6904 67.5639 46.7053 67.8208 46.652C68.5359 46.5608 69.3566 46.1961 69.4478 45.4809C69.4592 45.1823 69.4017 44.8851 69.2798 44.6122C68.5119 42.5388 68.1664 40.4607 65.8338 39.6831Z" fill="#F9FBFE"/>
<path d="M94.6692 38.344C94.8515 37.8092 95.189 37.341 95.6387 36.999C96.0883 36.6571 96.6297 36.4569 97.1937 36.4242C97.3572 36.4066 97.5225 36.4314 97.6737 36.4962C97.8598 36.6057 98.0035 36.7748 98.0816 36.9761C98.4599 37.9797 98.5416 39.071 98.3168 40.1198C98.2347 40.9564 97.9885 41.7686 97.5921 42.5099C97.3944 42.8738 97.1206 43.1909 96.7893 43.4394C96.458 43.6878 96.077 43.8619 95.6723 43.9498C95.4076 44.0033 95.1336 43.9872 94.877 43.9031C94.6204 43.819 94.39 43.6697 94.2084 43.4698C93.4117 42.4523 94.338 39.4382 94.6692 38.344Z" fill="#F9FBFE"/>
<path d="M64.5235 38.3776C63.5924 36.4578 62.5605 34.4036 60.9431 33.0261C61.5738 31.4382 62.4969 29.9828 63.6644 28.7354C66.5441 25.4045 69.9854 22.496 74.0121 20.7586C78.0389 19.0212 82.6512 18.4596 86.8796 19.7267C87.9081 20.0008 88.8744 20.47 89.7257 21.109C90.3213 21.6079 90.8547 22.1767 91.3143 22.8032C93.576 25.7107 95.3316 28.9785 96.5074 32.4694C96.7968 33.1745 96.9247 33.9354 96.8817 34.6963C96.7912 35.2362 96.6145 35.7579 96.3586 36.2418C95.6817 37.6996 94.9139 39.1134 94.0596 40.4749C93.8032 39.4545 93.7044 38.4008 93.7669 37.3505C93.8122 35.1606 93.4375 32.9824 92.663 30.9335C91.8755 28.8779 90.3746 27.1743 88.4346 26.134C87.4525 25.673 86.4078 25.3593 85.3342 25.2029C82.5312 24.7241 79.6626 24.7843 76.8822 25.3805C73.9162 26.0189 70.8925 27.4395 69.443 30.1032C68.3343 32.1526 68.3199 34.5956 68.3391 36.9233C68.3391 38.0032 68.5647 42.6107 68.5647 42.6107C65.6994 39.347 65.0995 39.3854 64.5235 38.3776Z" fill="#1F1F1F"/>
<path d="M64.4803 38.0416C63.5492 36.1218 62.5605 34.4036 60.9431 33.0261C61.5738 31.4382 62.4969 29.9828 63.6644 28.7354C66.5441 25.4045 69.9854 22.496 74.0121 20.7586C78.0389 19.0212 82.6512 18.4596 86.8796 19.7267C87.9081 20.0008 88.8744 20.47 89.7257 21.109C90.3213 21.6079 90.8547 22.1767 91.3143 22.8032C93.576 25.7107 95.3316 28.9785 96.5074 32.4694C96.7968 33.1745 96.9247 33.9354 96.8817 34.6963C96.7912 35.2362 96.6145 35.7579 96.3586 36.2418C95.6817 37.6996 94.9139 39.1134 94.0596 40.4749C93.8032 39.4545 93.7044 38.4008 93.7669 37.3505C93.8122 35.1606 93.4375 32.9824 92.663 30.9335C91.8755 28.8779 90.3746 27.1743 88.4346 26.134C87.4525 25.673 86.4078 25.3593 85.3342 25.2029C82.5312 24.7241 79.6626 24.7843 76.8822 25.3805C73.9162 26.0189 70.8925 27.4395 69.443 30.1032C68.3343 32.1526 68.3199 34.5956 68.3391 36.9233C68.3391 38.0032 68.5647 42.6107 68.5647 42.6107C68.5647 42.6107 65.0611 39.0495 64.4803 38.0416Z" fill="url(#paint7_linear_30_497)"/>
<path d="M88.5786 17.0199C87.6907 17.9174 87.6859 19.3621 87.9595 20.5908C88.3271 22.2183 89.0736 23.7361 90.1384 25.0207C91.0455 26.115 92.1782 27.0221 92.9749 28.2028C94.338 30.2137 94.5684 32.7527 95.0723 35.1284C95.1148 35.5299 95.2827 35.9078 95.5523 36.2083C96.085 36.6883 96.9921 36.4339 97.4721 35.8675C97.8627 35.2535 98.0707 34.5411 98.072 33.8134C98.2738 31.2769 98.2754 28.7285 98.0768 26.1918C98.0239 24.4215 97.6414 22.6767 96.9489 21.0467C95.8306 18.7189 91.3287 14.2266 88.5786 17.0199Z" fill="#1F1F1F"/>
<path d="M88.5786 17.0199C87.6907 17.9174 87.6859 19.3621 87.9595 20.5908C88.3271 22.2183 89.0736 23.7361 90.1384 25.0207C91.0455 26.115 92.1782 27.0221 92.9749 28.2028C94.338 30.2137 94.5684 32.7527 95.0723 35.1284C95.1148 35.5299 95.2827 35.9078 95.5523 36.2083C96.085 36.6883 96.9921 36.4339 97.4721 35.8675C97.8627 35.2535 98.0707 34.5411 98.072 33.8134C98.2738 31.2769 98.2754 28.7285 98.0768 26.1918C98.0239 24.4215 97.6414 22.6767 96.9489 21.0467C95.8306 18.7189 91.3287 14.2266 88.5786 17.0199Z" fill="url(#paint8_linear_30_497)"/>
<path d="M95.4995 39.9566C95.5123 39.6735 95.5888 39.397 95.7235 39.1477C95.8581 38.8984 96.0473 38.6827 96.277 38.5167C96.3681 38.4492 96.4747 38.4055 96.587 38.3896C96.6993 38.3736 96.8138 38.386 96.9201 38.4255C97.1889 38.5599 97.2417 38.9055 97.2465 39.2222C97.2869 39.8475 97.2071 40.4748 97.0113 41.07C96.7617 41.7228 95.6722 42.9898 94.8995 42.2459C94.4772 41.838 94.9523 41.4732 95.2115 41.1564C95.4333 40.7976 95.5342 40.377 95.4995 39.9566Z" fill="url(#paint9_linear_30_497)"/>
<path d="M67.0769 43.1195C66.9317 42.8111 66.7478 42.5224 66.5297 42.2604C66.3057 41.9981 65.9931 41.8273 65.6514 41.7805C65.2722 41.7517 64.8403 42.0156 64.8499 42.3948C64.866 42.5668 64.9254 42.7319 65.0227 42.8748C65.435 43.7024 66.0058 44.441 66.7025 45.0489C66.9841 45.2957 67.3508 45.4231 67.7248 45.4041C67.9498 45.3574 68.1533 45.2382 68.3041 45.0648C68.4549 44.8915 68.5448 44.6735 68.5599 44.4442C68.5935 44.1034 68.4639 43.4843 68.0799 43.3931C67.696 43.3019 67.3312 43.6235 67.0769 43.1195Z" fill="url(#paint10_linear_30_497)"/>
<path d="M137.534 87.7836C135.647 95.0357 132.888 102.033 130.133 109.007C128.64 112.794 126.888 116.878 123.313 118.822C122.199 119.47 120.909 119.752 119.627 119.628C118.807 119.506 118.021 119.217 117.318 118.779C117.15 118.678 116.992 118.572 116.838 118.462C116.113 117.956 115.467 117.346 114.918 116.653C113.548 114.88 112.724 112.747 112.547 110.514C112.378 107.821 112.845 105.127 113.91 102.648C114.136 102.072 114.39 101.501 114.669 100.944C115.933 98.4973 117.364 96.14 118.95 93.8886C119.262 93.4326 119.569 92.9719 119.876 92.5111C121.135 90.6776 122.226 88.7339 123.135 86.7037C123.903 84.8212 124.497 82.8725 124.911 80.8819C125.492 78.2902 125.578 78.079 127.599 79.8693C130.415 82.3659 133.516 84.5214 136.838 86.291C136.989 86.3308 137.13 86.4041 137.25 86.5053C137.37 86.6066 137.466 86.7333 137.531 86.8763C137.596 87.0192 137.628 87.1749 137.625 87.3318C137.622 87.4888 137.584 87.6431 137.514 87.7836H137.534Z" fill="#6A99E6"/>
<path d="M126.586 78.0694C126.73 77.7574 126.951 77.4022 127.296 77.4022C127.449 77.413 127.597 77.4644 127.723 77.551C128.368 77.9934 128.985 78.4743 129.571 78.9909C131.4 80.3875 133.684 81.0066 135.906 81.6018C136.364 81.6806 136.789 81.8907 137.13 82.2065C137.721 82.8785 137.385 83.9199 137.01 84.7359C136.636 85.5518 136.286 86.3053 135.911 87.0876C135.792 87.4373 135.543 87.7276 135.215 87.8987C134.928 87.9641 134.627 87.9372 134.356 87.8219C132.045 87.068 129.909 85.8587 128.074 84.2655C127.33 83.6272 125.976 82.6001 125.568 81.7026C125.16 80.8051 126.197 78.9141 126.586 78.0694Z" fill="#F9FBFE"/>
<path d="M128.659 73.8938C130.377 71.7916 133.324 71.1005 136.031 71.2493C138.738 71.3981 141.354 72.2476 144.027 72.6891C147.999 73.3568 152.077 72.978 155.858 71.59C157.418 70.9997 158.91 70.2222 160.504 69.7086C160.729 69.6045 160.975 69.5505 161.224 69.5505C161.472 69.5505 161.718 69.6045 161.944 69.7086C162.102 69.8245 162.23 69.9764 162.317 70.1517C162.405 70.3269 162.45 70.5206 162.448 70.7165C162.486 71.71 161.742 72.5499 161.008 73.2267C155.856 77.9922 149.138 80.7053 142.122 80.8531C140.69 80.8162 139.258 80.8562 137.831 80.973C136.54 81.1362 135.287 81.5154 133.991 81.7506C132.723 82.0386 131.403 82.0039 130.152 81.6498C126.802 80.4979 126.677 76.3271 128.659 73.8938Z" fill="#F9FBFE"/>
<path d="M74.2952 94.5221C75.7015 105.201 77.7221 115.865 77.6021 126.636C77.5253 133.321 76.6422 139.964 75.6487 146.577C75.6231 146.953 75.5026 147.317 75.2983 147.633C74.9414 147.991 74.4715 148.213 73.9689 148.262C69.0254 149.324 64.0451 150.188 59.028 150.854C59.028 137.022 59.2632 119.979 58.6681 106.166C58.2409 96.1396 56.0668 89.4395 56.6667 79.4229L57.1466 71.1102C57.1413 70.7076 57.2266 70.309 57.3962 69.9439C57.6217 69.6019 57.9241 69.3175 58.2793 69.1136C62.81 66.0515 68.8382 62.8359 74.3672 62.3463C74.9336 64.1509 73.6137 67.5922 73.4073 69.5935C73.1051 72.3715 72.9657 75.1648 72.9898 77.9591C73.0718 83.5023 73.5079 89.0345 74.2952 94.5221Z" fill="#6A99E6"/>
<path d="M74.2952 94.5221C75.7015 105.201 77.7221 115.865 77.6021 126.636C77.5253 133.321 76.6422 139.964 75.6487 146.577C75.6231 146.953 75.5026 147.317 75.2983 147.633C74.9414 147.991 74.4715 148.213 73.9689 148.262C69.0254 149.324 64.0451 150.188 59.028 150.854C59.028 137.022 59.2632 119.979 58.6681 106.166C58.2409 96.1396 56.0668 89.4395 56.6667 79.4229L57.1466 71.1102C57.1413 70.7076 57.2266 70.309 57.3962 69.9439C57.6217 69.6019 57.9241 69.3175 58.2793 69.1136C62.81 66.0515 68.8382 62.8359 74.3672 62.3463C74.9336 64.1509 73.6137 67.5922 73.4073 69.5935C73.1051 72.3715 72.9657 75.1648 72.9898 77.9591C73.0718 83.5023 73.5079 89.0345 74.2952 94.5221Z" fill="url(#paint11_linear_30_497)"/>
<path d="M69.9517 63.1479L64.3987 97.5075L69.9277 103.315L66.1649 112.434L76.0183 133.652C76.0183 133.652 75.5095 120.771 73.4889 98.7938C71.4683 76.8169 75.2599 62.188 75.2599 62.188L69.9517 63.1479Z" fill="#6A99E6"/>
<path d="M88.8474 62.7157C88.5655 62.7151 88.2866 62.7728 88.0281 62.8851C87.7696 62.9974 87.5371 63.162 87.3452 63.3685C87.1371 63.7648 87.0583 64.2162 87.1196 64.6595L88.2379 91.3783C88.3206 94.6332 88.5673 97.8817 88.977 101.112C89.289 103.238 89.7401 105.34 90.1049 107.457C92.4566 121.006 91.3336 134.9 92.1399 148.627C92.1216 149.007 92.2352 149.381 92.4614 149.687C92.7205 149.908 93.0433 150.041 93.3829 150.067C98.6084 150.999 103.935 151.227 109.221 150.743C107.052 128.627 105.855 106.444 105.631 84.1935C105.578 78.7365 105.569 73.193 104.076 67.9376C103.996 67.5619 103.832 67.2092 103.596 66.9057C103.301 66.6289 102.947 66.4237 102.56 66.3058C100.001 65.3123 97.4385 64.3428 94.8804 63.3253C92.6966 62.447 91.204 62.7157 88.8474 62.7157Z" fill="#6A99E6"/>
<path d="M88.8474 62.7157C88.5655 62.7151 88.2866 62.7728 88.0281 62.8851C87.7696 62.9974 87.5371 63.162 87.3452 63.3685C87.1371 63.7648 87.0583 64.2162 87.1196 64.6595L88.2379 91.3783C88.3206 94.6332 88.5673 97.8817 88.977 101.112C89.289 103.238 89.7401 105.34 90.1049 107.457C92.4566 121.006 91.3336 134.9 92.1399 148.627C92.1216 149.007 92.2352 149.381 92.4614 149.687C92.7205 149.908 93.0433 150.041 93.3829 150.067C98.6084 150.999 103.935 151.227 109.221 150.743C107.052 128.627 105.855 106.444 105.631 84.1935C105.578 78.7365 105.569 73.193 104.076 67.9376C103.996 67.5619 103.832 67.2092 103.596 66.9057C103.301 66.6289 102.947 66.4237 102.56 66.3058C100.001 65.3123 97.4385 64.3428 94.8804 63.3253C92.6966 62.447 91.204 62.7157 88.8474 62.7157Z" fill="url(#paint12_linear_30_497)"/>
<path d="M86.3756 62.4614L88.8473 62.7158L98.12 92.5639L93.4501 100.272L98.6287 110.5L92.183 130.077C92.183 130.077 88.0266 101.102 88.0842 94.2437C88.1418 87.3852 86.3756 62.4614 86.3756 62.4614Z" fill="#6A99E6"/>
<path d="M69.9517 63.1479L64.3987 97.5075L69.9277 103.315L66.1649 112.434L76.0183 133.652C76.0183 133.652 75.5095 120.771 73.4889 98.7938C71.4683 76.8169 75.2599 62.188 75.2599 62.188L69.9517 63.1479Z" fill="url(#paint13_linear_30_497)"/>
<path d="M86.3756 62.4614L88.8473 62.7158L98.12 92.5639L93.4501 100.272L98.6287 110.5L92.183 130.077C92.183 130.077 88.0266 101.102 88.0842 94.2437C88.1418 87.3852 86.3756 62.4614 86.3756 62.4614Z" fill="url(#paint14_linear_30_497)"/>
<path d="M145.63 27.8426C145.63 27.0607 144.996 26.4268 144.214 26.4268C143.432 26.4268 142.798 27.0607 142.798 27.8426V65.2259C142.798 66.0078 143.432 66.6417 144.214 66.6417C144.996 66.6417 145.63 66.0078 145.63 65.2259V27.8426Z" fill="#6A99E6"/>
<path d="M145.63 27.8426C145.63 27.0607 144.996 26.4268 144.214 26.4268C143.432 26.4268 142.798 27.0607 142.798 27.8426V65.2259C142.798 66.0078 143.432 66.6417 144.214 66.6417C144.996 66.6417 145.63 66.0078 145.63 65.2259V27.8426Z" fill="url(#paint15_linear_30_497)"/>
<path d="M121.671 57.0427L120.111 54.4318H135.441L132.638 58.8233H122.732L121.671 57.0427Z" fill="#6A99E6"/>
<path d="M163.489 58.8233H153.578L150.962 54.4318H166.292L163.489 58.8233Z" fill="#6A99E6"/>
<path d="M121.671 57.0427L120.111 54.4318H135.441L132.638 58.8233H122.732L121.671 57.0427Z" fill="url(#paint16_linear_30_497)"/>
<path d="M163.489 58.8233H153.578L150.962 54.4318H166.292L163.489 58.8233Z" fill="url(#paint17_linear_30_497)"/>
<path d="M140.903 65.6674H148.927C150.647 65.6674 152.296 66.3505 153.512 67.5665C154.728 68.7825 155.411 70.4318 155.411 72.1515V73.4761H134.418V72.1515C134.418 70.4318 135.102 68.7825 136.318 67.5665C137.534 66.3505 139.183 65.6674 140.903 65.6674Z" fill="#6A99E6"/>
<path d="M140.903 65.6674H148.927C150.647 65.6674 152.296 66.3505 153.512 67.5665C154.728 68.7825 155.411 70.4318 155.411 72.1515V73.4761H134.418V72.1515C134.418 70.4318 135.102 68.7825 136.318 67.5665C137.534 66.3505 139.183 65.6674 140.903 65.6674Z" fill="url(#paint18_linear_30_497)"/>
<path d="M87.4122 11.8985C87.1791 11.5226 86.8741 11.1964 86.5147 10.9386C86.0671 10.6727 85.557 10.5303 85.0364 10.5259C83.9374 10.5347 82.8474 10.7261 81.8111 11.0922C75.8886 12.8584 69.8124 15.2822 65.872 20.0241C63.1507 23.2781 61.6485 27.3529 60.1942 31.3365C59.935 32.0564 59.7143 32.9539 60.2326 33.5059C60.5918 33.8085 61.0494 33.969 61.5189 33.957C64.0434 34.1202 66.52 33.3619 68.9341 32.6036C73.2537 31.2453 77.626 29.8247 81.5712 27.5497C84.9308 25.5915 88.7368 23.2589 89.1544 19.117C89.4246 16.5818 88.8091 14.0313 87.4122 11.8985Z" fill="#1F1F1F"/>
<path d="M121.066 104.039C120.817 105.619 120.377 107.163 119.756 108.637C119.405 109.475 118.998 110.288 118.537 111.071C117.399 112.99 119.425 119.465 117.308 118.779C117.134 118.697 116.972 118.59 116.828 118.462C116.158 117.892 115.517 117.288 114.909 116.652C113.291 115.016 111.448 112.99 111.069 112.592C108.703 110.077 106.457 107.346 105.218 104.121C104.638 102.619 104.23 97.8816 103.951 92.2902C103.85 90.2024 103.764 87.9706 103.692 85.7772C103.399 76.0822 103.419 66.3873 103.61 66.9248C104.09 68.1967 107.709 74.6856 108.41 75.8327C109.85 78.1076 116.996 90.3416 118.926 93.9028C119.118 94.2483 119.252 94.5123 119.329 94.6803C120.068 96.0975 120.641 97.5953 121.037 99.1438C121.342 100.761 121.352 102.419 121.066 104.039Z" fill="#6A99E6"/>
<path d="M78.1443 66.56L80.76 68.9886C80.8337 69.0261 80.8969 69.0811 80.9443 69.1488C80.9916 69.2165 81.0216 69.2949 81.0316 69.3769C81.0415 69.4589 81.0312 69.5421 81.0014 69.6192C80.9716 69.6963 80.9233 69.7649 80.8608 69.8189C79.4338 71.7387 77.9203 73.5785 76.3205 75.3383C74.8807 71.9787 73.5944 68.3454 73.7624 64.621C73.8152 63.4404 74.1415 60.959 75.3798 62.922C76.1261 64.2583 77.0567 65.483 78.1443 66.56Z" fill="#F9FBFE"/>
<path d="M84.2206 66.9872C83.7969 67.49 83.3022 67.9282 82.7519 68.2879C82.3057 68.5024 81.8715 68.7412 81.4513 69.003C81.3367 69.0853 81.2416 69.1918 81.1729 69.315C80.9425 69.7614 81.3217 70.2749 81.6528 70.6445C82.0368 71.1244 85.0125 75.6599 85.1133 75.5495C85.8236 74.6568 86.1548 72.4443 86.6107 71.398C87.2016 70.1599 87.6276 68.8497 87.8778 67.5008C88.1248 66.1395 87.896 64.7346 87.2299 63.522C87.0811 63.2724 86.6155 62.7445 86.3276 63.0709C86.2412 63.1668 86.2604 63.6324 86.2316 63.7764C86.1718 64.0264 86.0899 64.2705 85.9868 64.5059C85.5401 65.4255 84.9432 66.2641 84.2206 66.9872Z" fill="#F9FBFE"/>
<path d="M78.658 98.4431C78.7156 105.983 78.9796 113.533 78.4277 121.049C78.2213 123.866 77.8997 126.717 78.4277 129.501C79.042 132.904 80.8274 135.956 82.6128 138.932C83.4479 138.797 83.8559 137.861 84.1247 137.06L87.5611 126.746C87.7788 126.204 87.9021 125.63 87.9259 125.047C87.8729 124.405 87.7106 123.777 87.4459 123.189C84.9166 116.34 85.0222 108.848 84.595 101.558C84.2008 94.8935 83.338 88.265 82.0129 81.7217C81.7383 80.6058 81.5886 79.4629 81.5665 78.314C81.5695 77.4812 81.7465 76.6582 82.0862 75.8978C82.4259 75.1374 82.9208 74.4564 83.5391 73.8985C82.5792 72.3435 81.4801 71.4124 80.6594 70.2029C79.5424 71.1794 78.6989 72.4299 78.2117 73.8313C78.2117 73.8313 80.0787 75.8039 79.7667 78.362C79.0376 85.031 78.6675 91.7344 78.658 98.4431Z" fill="#1F1F1F"/>
<path d="M71.4587 102.729C71.7083 101.212 71.6459 99.6574 71.9387 98.1552C72.2148 96.7788 72.7753 95.4753 73.5845 94.3281C74.3936 93.1809 75.4334 92.2154 76.6374 91.4935C77.3381 93.2645 76.4838 95.2227 76.1574 97.0993C76.0518 97.6992 76.0998 98.4863 76.671 98.7071C77.1509 98.8895 77.6309 98.5295 78.0388 98.1888L90.1336 87.6299C90.8343 89.9 89.2169 92.151 88.0986 94.2484C87.8962 94.5809 87.7654 94.952 87.7146 95.3379C87.7283 95.8224 87.8496 96.2979 88.0698 96.7297C89.4055 100.018 89.7913 103.615 89.1833 107.111C88.9529 108.407 88.5401 109.76 87.5322 110.61C86.8477 111.112 86.0741 111.48 85.2525 111.695L74.1368 115.357C73.9414 115.473 73.7241 115.547 73.4986 115.575C73.2731 115.602 73.0442 115.583 72.8265 115.518C72.6087 115.453 72.4068 115.344 72.2333 115.197C72.0599 115.051 71.9187 114.869 71.8187 114.665C70.494 112.938 68.5694 110.466 68.8958 108.119C69.155 106.122 71.1084 104.903 71.4587 102.729Z" fill="#F9FBFE"/>
<path d="M66.3808 107.783C66.1465 108.328 66.0101 108.909 65.9776 109.501C65.8624 111.757 67.2591 113.821 68.8573 115.419C69.1869 115.782 69.5806 116.082 70.0188 116.302C70.8299 116.662 71.761 116.504 72.6297 116.341C72.9273 116.283 73.2728 116.192 73.3928 115.913C73.5704 115.491 73.0953 115.102 72.7161 114.843C71.4255 113.882 70.5119 112.5 70.134 110.936C69.9175 110.118 69.7935 109.277 69.7644 108.431C69.7644 107.841 69.9372 106.943 69.5244 106.444C68.4829 105.206 66.8031 106.823 66.3808 107.783Z" fill="#F9FBFE"/>
<path d="M71.5978 101.659C71.977 102.724 72.7929 104.135 73.2825 105.158C73.6328 105.929 73.9358 106.72 74.1896 107.528C74.8529 109.353 75.3822 111.223 75.7734 113.125C75.8502 113.557 76.2774 115.217 76.1766 115.649L73.7768 115.774C73.6904 115.774 73.2345 114.569 73.1529 114.531C73.0659 114.477 72.9987 114.396 72.9609 114.301C71.833 112.213 71.5547 109.779 70.7003 107.581C70.4075 106.915 70.1496 106.234 69.9276 105.541C69.6851 104.821 69.6851 104.04 69.9276 103.319C70.2252 102.691 70.9787 101.822 71.5978 101.659Z" fill="#F9FBFE"/>
<path d="M58.4233 71.5467C58.2849 71.1747 58.0175 70.8647 57.6698 70.6732C57.3914 70.558 58.3705 69.5597 58.0825 69.6413C55.294 70.4045 52.6783 74.5848 51.9008 77.3685C50.1777 83.6079 49.2082 89.9816 48.2435 96.3601L45.1815 116.585C44.8551 118.721 44.5335 120.857 44.2504 123.002C44.092 124.216 43.9528 125.479 44.3464 126.64C45.0423 128.67 47.274 129.856 49.4194 129.957C51.5648 130.057 53.6478 129.275 55.63 128.454C61.927 125.841 67.9575 122.626 73.6377 118.855C74.2337 118.545 74.7024 118.035 74.9623 117.416C75.0566 116.966 75.0402 116.499 74.9143 116.057C73.9026 111.165 72.136 106.459 69.6781 102.11C66.3619 104.967 62.6725 107.36 58.7112 109.223C61.6965 101.635 61.0438 93.1685 60.3479 85.0429C59.9735 80.685 60.4151 75.4439 58.4233 71.5467Z" fill="#6A99E6"/>
<path d="M58.4233 71.5467C58.2849 71.1747 58.0175 70.8647 57.6698 70.6732C57.3914 70.558 58.3705 69.5597 58.0825 69.6413C55.294 70.4045 52.6783 74.5848 51.9008 77.3685C50.1777 83.6079 49.2082 89.9816 48.2435 96.3601L45.1815 116.585C44.8551 118.721 44.5335 120.857 44.2504 123.002C44.092 124.216 43.9528 125.479 44.3464 126.64C45.0423 128.67 47.274 129.856 49.4194 129.957C51.5648 130.057 53.6478 129.275 55.63 128.454C61.927 125.841 67.9575 122.626 73.6377 118.855C74.2337 118.545 74.7024 118.035 74.9623 117.416C75.0566 116.966 75.0402 116.499 74.9143 116.057C73.9026 111.165 72.136 106.459 69.6781 102.11C66.3619 104.967 62.6725 107.36 58.7112 109.223C61.6965 101.635 61.0438 93.1685 60.3479 85.0429C59.9735 80.685 60.4151 75.4439 58.4233 71.5467Z" fill="url(#paint19_linear_30_497)"/>
<path d="M137.533 87.7834C135.647 95.0355 132.887 102.033 130.133 109.007C128.64 112.794 126.888 116.878 123.312 118.822C122.199 119.47 120.909 119.752 119.626 119.628C118.807 119.506 118.021 119.217 117.318 118.779C117.143 118.697 116.982 118.59 116.838 118.462C116.113 117.956 115.466 117.346 114.918 116.652C113.301 115.016 111.458 112.99 111.079 112.592C108.712 110.077 106.466 107.346 105.228 104.121L103.937 92.2709L103.135 84.7789L103.678 85.7388C105.242 88.5513 109.917 96.8209 113.886 102.623C116.416 106.324 118.657 109.016 119.646 108.671C119.688 108.659 119.729 108.642 119.766 108.618C122.713 107.077 130.089 86.1036 130.089 86.1036L137.533 87.7834Z" fill="url(#paint20_linear_30_497)"/>
<defs>
<linearGradient id="paint0_linear_30_497" x1="158.454" y1="20.1586" x2="158.704" y2="70.3037" gradientUnits="userSpaceOnUse">
<stop offset="0.01"/>
<stop offset="1" stop-opacity="0"/>
</linearGradient>
<linearGradient id="paint1_linear_30_497" x1="159.026" y1="20.1584" x2="159.281" y2="70.3035" gradientUnits="userSpaceOnUse">
<stop offset="0.01"/>
<stop offset="1" stop-opacity="0"/>
</linearGradient>
<linearGradient id="paint2_linear_30_497" x1="127.853" y1="20.3122" x2="128.107" y2="70.4573" gradientUnits="userSpaceOnUse">
<stop offset="0.01"/>
<stop offset="1" stop-opacity="0"/>
</linearGradient>
<linearGradient id="paint3_linear_30_497" x1="128.661" y1="20.421" x2="128.725" y2="70.5893" gradientUnits="userSpaceOnUse">
<stop offset="0.01"/>
<stop offset="1" stop-opacity="0"/>
</linearGradient>
<linearGradient id="paint4_linear_30_497" x1="144.57" y1="25.7694" x2="144.757" y2="36.7602" gradientUnits="userSpaceOnUse">
<stop offset="0.01"/>
<stop offset="1" stop-opacity="0"/>
</linearGradient>
<linearGradient id="paint5_linear_30_497" x1="91.1896" y1="140.88" x2="69.2127" y2="164.124" gradientUnits="userSpaceOnUse">
<stop offset="0.01"/>
<stop offset="1" stop-opacity="0"/>
</linearGradient>
<linearGradient id="paint6_linear_30_497" x1="82.1665" y1="47.4103" x2="80.741" y2="67.741" gradientUnits="userSpaceOnUse">
<stop offset="0.01"/>
<stop offset="1" stop-opacity="0"/>
</linearGradient>
<linearGradient id="paint7_linear_30_497" x1="78.5621" y1="17.2262" x2="79.2436" y2="48.0677" gradientUnits="userSpaceOnUse">
<stop offset="0.01"/>
<stop offset="1" stop-opacity="0"/>
</linearGradient>
<linearGradient id="paint8_linear_30_497" x1="77.3814" y1="28.7835" x2="96.0754" y2="25.8798" gradientUnits="userSpaceOnUse">
<stop offset="0.01"/>
<stop offset="1" stop-opacity="0"/>
</linearGradient>
<linearGradient id="paint9_linear_30_497" x1="94.6403" y1="39.8126" x2="96.7857" y2="40.7389" gradientUnits="userSpaceOnUse">
<stop offset="0.01"/>
<stop offset="1" stop-opacity="0"/>
</linearGradient>
<linearGradient id="paint10_linear_30_497" x1="68.5455" y1="41.1133" x2="65.6802" y2="44.7801" gradientUnits="userSpaceOnUse">
<stop offset="0.01"/>
<stop offset="1" stop-opacity="0"/>
</linearGradient>
<linearGradient id="paint11_linear_30_497" x1="37.7999" y1="110.749" x2="76.4502" y2="105.191" gradientUnits="userSpaceOnUse">
<stop offset="0.01"/>
<stop offset="1" stop-opacity="0"/>
</linearGradient>
<linearGradient id="paint12_linear_30_497" x1="124.119" y1="109.928" x2="83.1936" y2="105.383" gradientUnits="userSpaceOnUse">
<stop offset="0.01"/>
<stop offset="1" stop-opacity="0"/>
</linearGradient>
<linearGradient id="paint13_linear_30_497" x1="85.0749" y1="97.4451" x2="63.602" y2="98.4578" gradientUnits="userSpaceOnUse">
<stop offset="0.01"/>
<stop offset="1" stop-opacity="0"/>
</linearGradient>
<linearGradient id="paint14_linear_30_497" x1="80.6402" y1="96.8162" x2="96.5553" y2="95.8083" gradientUnits="userSpaceOnUse">
<stop offset="0.01"/>
<stop offset="1" stop-opacity="0"/>
</linearGradient>
<linearGradient id="paint15_linear_30_497" x1="142.798" y1="46.5366" x2="145.635" y2="46.5366" gradientUnits="userSpaceOnUse">
<stop offset="0.01"/>
<stop offset="1" stop-opacity="0"/>
</linearGradient>
<linearGradient id="paint16_linear_30_497" x1="120.111" y1="56.6251" x2="135.446" y2="56.6251" gradientUnits="userSpaceOnUse">
<stop offset="0.01"/>
<stop offset="1" stop-opacity="0"/>
</linearGradient>
<linearGradient id="paint17_linear_30_497" x1="150.962" y1="56.6251" x2="166.292" y2="56.6251" gradientUnits="userSpaceOnUse">
<stop offset="0.01"/>
<stop offset="1" stop-opacity="0"/>
</linearGradient>
<linearGradient id="paint18_linear_30_497" x1="141.339" y1="77.5413" x2="149.801" y2="64.1507" gradientUnits="userSpaceOnUse">
<stop offset="0.01"/>
<stop offset="1" stop-opacity="0"/>
</linearGradient>
<linearGradient id="paint19_linear_30_497" x1="64.845" y1="134.651" x2="58.1113" y2="116.465" gradientUnits="userSpaceOnUse">
<stop offset="0.01"/>
<stop offset="1" stop-opacity="0"/>
</linearGradient>
<linearGradient id="paint20_linear_30_497" x1="153.204" y1="160.337" x2="114.553" y2="82.2736" gradientUnits="userSpaceOnUse">
<stop offset="0.01"/>
<stop offset="1" stop-opacity="0"/>
</linearGradient>
</defs>
</svg>
