<svg width="185" height="182" viewBox="0 0 185 182" fill="none" xmlns="http://www.w3.org/2000/svg">
<path opacity="0.18" d="M184.636 124.6C184.584 126.178 184.489 127.756 184.331 129.366C183.216 141.016 179.119 152.651 170.287 160.147C159.799 169.041 144.924 170.351 131.18 169.846C117.436 169.341 103.339 167.479 90.1842 171.492C82.9834 173.691 76.3927 177.573 69.2077 179.814C55.5319 184.074 40.1467 181.965 27.87 174.617C15.5934 167.269 6.5358 154.908 2.73288 141.116C2.02202 138.522 1.47045 135.888 1.08127 133.226C-1.08582 118.656 1.03919 103.508 0.728851 88.6487C0.455335 75.441 -1.70649 61.7652 3.02743 49.4202C6.18338 41.199 12.1902 34.4137 19.0649 29.0433C43.1185 10.2917 73.4104 0.192687 103.75 0.00332996C121.823 -0.112388 140.295 2.77004 156.154 11.4384C161.309 14.2524 166.206 17.7503 169.83 22.3369C172.528 25.7664 174.453 29.7429 176.037 33.8035C178.775 40.8537 180.545 48.2429 181.296 55.7689C182.264 65.5471 181.502 75.4147 181.891 85.2245C182.433 98.3848 185.02 111.445 184.636 124.6Z" fill="#6A99E6"/>
<path d="M184.331 129.365L184.268 129.986C183.337 138.854 180.665 147.675 175.463 154.618C173.955 156.645 172.22 158.493 170.293 160.125C159.804 169.02 144.929 170.33 131.185 169.825C117.441 169.32 103.345 167.458 90.1895 171.471C82.9887 173.67 76.398 177.552 69.2129 179.792C55.5372 184.053 40.1519 181.944 27.8753 174.595C19.7991 169.69 13.1022 162.812 8.41359 154.608C5.95879 150.366 4.05512 145.829 2.74866 141.106C2.03779 138.512 1.48623 135.877 1.09705 133.216L70.6699 131.748L184.331 129.365Z" fill="#6A99E6"/>
<path d="M184.268 129.986C183.337 138.855 180.665 147.675 175.463 154.619H8.39781C5.94302 150.377 4.03934 145.84 2.73288 141.116C2.02202 138.522 1.47045 135.888 1.08127 133.226L70.6542 131.759L184.268 129.986Z" fill="url(#paint0_linear_110_278)"/>
<path d="M43.3342 166.764C57.5482 166.764 69.0709 163.368 69.0709 159.179C69.0709 154.99 57.5482 151.594 43.3342 151.594C29.1202 151.594 17.5974 154.99 17.5974 159.179C17.5974 163.368 29.1202 166.764 43.3342 166.764Z" fill="url(#paint1_linear_110_278)"/>
<path d="M48.4363 152.851L48.7466 156.075C48.7466 156.075 47.5105 157.948 45.8957 158.064C44.2809 158.179 43.7339 157.411 43.7339 157.411L44.0022 152.677" fill="#F9FBFE"/>
<path d="M43.7339 157.412L43.8444 155.508L48.5783 154.235L48.9412 156.823C48.0557 157.495 47.0092 157.923 45.9063 158.064C44.2862 158.185 43.7339 157.412 43.7339 157.412Z" fill="#F9FBFE"/>
<path d="M33.3351 153.193L33.0195 156.507C33.0195 156.507 34.2871 158.427 35.944 158.548C37.6009 158.669 38.1637 157.874 38.1637 157.874L37.8902 153.004" fill="#F9FBFE"/>
<path d="M38.1637 157.875L38.0532 155.918L33.1983 154.608L33.0195 156.502C33.0195 156.502 34.2871 158.422 35.944 158.543C37.6009 158.664 38.1637 157.875 38.1637 157.875Z" fill="#F9FBFE"/>
<path d="M37.301 80.743C37.301 80.743 30.905 83.8569 30.7524 84.8563C30.5999 85.8557 31.473 110.824 31.473 110.824C31.473 110.824 33.577 113.523 39.9257 113.523C46.4533 113.523 48.1364 111.656 48.4257 110.782C48.715 109.909 49.7565 85.0509 49.6092 83.9832C49.4619 82.9154 43.555 80.7588 43.555 80.7588L37.301 80.743Z" fill="#6A99E6"/>
<path d="M46.8846 92.4939L45.5749 111.85L48.4258 110.783L48.8255 104.607L46.8846 92.4939Z" fill="url(#paint2_linear_110_278)"/>
<path d="M41.1145 97.9007C41.1145 97.9007 33.5718 97.9639 33.0931 97.4852C32.6145 97.0066 30.8051 84.4722 30.7525 84.8614C30.6473 85.5925 31.0681 97.5694 31.31 104.249C34.0538 103.367 36.7458 102.331 39.3735 101.146C40.096 100.838 40.7161 100.331 41.1618 99.6839C41.5721 99.0737 41.8088 98.3531 41.1145 97.9007Z" fill="url(#paint3_linear_110_278)"/>
<path d="M38.3635 77.2084C38.0895 78.4081 37.7381 79.5888 37.3116 80.743C36.8908 81.8897 37.7534 84.3093 40.3518 84.3093C42.9502 84.3093 43.25 81.3216 43.2027 80.743C43.1711 80.3275 42.4978 78.9547 42.3295 77.6292C42.1454 76.2037 38.5056 76.2143 38.3635 77.2084Z" fill="#F9FBFE"/>
<path d="M38.9106 84.8615L40.0151 86.4079L39.2261 107.284L41.3249 109.594L42.7924 106.758L41.0619 86.1501L41.4564 84.63L40.2939 83.9094L38.9106 84.8615Z" fill="#1F1F1F"/>
<path d="M41.8719 95.9179L42.1297 92.215L48.0734 90.7474L46.1851 102.288L41.4985 102.845L41.8719 95.9179Z" fill="#F9FBFE"/>
<path d="M38.0059 78.86C38.0059 78.86 38.0059 82.847 40.2045 82.4946C42.4032 82.1422 42.7609 79.1019 42.7609 79.1019L38.0059 78.86Z" fill="url(#paint4_linear_110_278)"/>
<path d="M32.483 111.166C32.483 111.166 31.2048 115.543 31.957 129.545C32.7091 143.546 33.009 153.34 33.009 153.34C33.009 153.34 33.1036 154.482 35.5127 154.513C37.9217 154.545 38.5634 152.935 38.5634 152.935L40.8988 117.068L43.3605 153.693C43.3605 153.693 46.2534 155.36 48.5099 154.108C49.7565 153.419 49.6461 127.877 49.0833 116.621C49.01 114.784 48.5626 112.982 47.7683 111.324C47.7683 111.324 41.672 115.374 32.483 111.166Z" fill="#1F1F1F"/>
<path d="M49.6093 83.9833C49.6093 83.9833 52.5232 96.2126 52.7652 98.2902C53.0072 100.368 49.8407 106.149 49.3147 105.049C48.5783 103.613 47.8419 98.1587 47.8419 98.1587L49.6093 83.9833Z" fill="#6A99E6"/>
<path d="M54.8744 97.8325C54.8723 97.9309 54.8977 98.0279 54.9479 98.1125C54.9981 98.1971 55.0711 98.2659 55.1585 98.3112C55.2624 98.3375 55.3707 98.3422 55.4765 98.325C55.5824 98.3079 55.6836 98.2691 55.7739 98.2112C57.2256 97.5222 58.0724 96.5176 59.156 95.434C59.9923 94.6965 60.7391 93.8632 61.3809 92.9513C61.8754 92.1255 61.4598 88.5172 60.9812 88.4594C60.5025 88.4015 60.5762 89.5587 60.6603 90.2793C60.7445 90.9999 59.9608 91.8573 59.7661 92.2044C59.5715 92.5516 58.9088 91.9151 58.3144 92.904C57.8778 93.6351 57.862 94.1769 57.2203 94.7765C56.4594 95.4768 55.7753 96.2562 55.1795 97.1014C55.0301 97.2805 54.9271 97.4937 54.8797 97.7221C54.8753 97.7587 54.8736 97.7956 54.8744 97.8325Z" fill="#F9FBFE"/>
<path d="M50.0721 98.5846C50.1721 98.4163 57.1625 94.3767 57.1625 94.3767C57.1625 94.3767 58.0672 94.929 58.7405 96.628C58.7405 96.628 50.3246 104.755 49.6303 105.117C48.936 105.48 49.9196 103.802 48.7414 101.52C47.5631 99.2369 50.0721 98.5846 50.0721 98.5846Z" fill="#6A99E6"/>
<path d="M29.6689 158.884C29.065 159.291 28.5628 159.83 28.2014 160.462C28.0298 160.784 27.9722 161.154 28.0381 161.512C28.104 161.87 28.2896 162.196 28.5644 162.435C28.8086 162.587 29.0833 162.684 29.3691 162.719C30.5532 162.919 31.7686 162.821 32.9049 162.432C34.0412 162.044 35.0624 161.378 35.8756 160.494C36.0064 160.323 36.1689 160.178 36.3543 160.068C36.7646 159.863 37.28 160.068 37.7219 159.91C38.3373 159.694 38.5266 158.926 38.6161 158.274C38.7055 157.622 38.7791 156.828 38.3215 156.328C37.8481 157.112 36.8224 157.343 35.9072 157.38C35.3513 157.439 34.7892 157.384 34.2556 157.217C33.7612 157.038 33.3614 156.512 32.7933 156.586C32.2253 156.659 31.7413 157.233 31.3416 157.548L29.6689 158.884Z" fill="#1F1F1F"/>
<path d="M52.3549 158.884C52.9589 159.291 53.4611 159.831 53.8224 160.462C53.9941 160.784 54.0517 161.154 53.9857 161.512C53.9198 161.87 53.7343 162.196 53.4595 162.435C53.2153 162.587 52.9405 162.684 52.6547 162.719C51.4728 162.918 50.2597 162.82 49.1254 162.432C47.9912 162.045 46.9715 161.38 46.1587 160.499C46.0279 160.328 45.8654 160.183 45.6801 160.073C45.2698 159.868 44.7543 160.073 44.3125 159.915C43.6971 159.7 43.5077 158.932 43.4183 158.28C43.3289 157.627 43.2553 156.833 43.7129 156.333C44.1863 157.117 45.212 157.349 46.1272 157.385C46.6831 157.445 47.2452 157.389 47.7788 157.222C48.2732 157.043 48.673 156.517 49.241 156.591C49.8091 156.665 50.293 157.238 50.6928 157.554L52.3549 158.884Z" fill="#1F1F1F"/>
<path d="M38.3004 96.6648C38.5214 96.5122 38.8264 96.4491 39.0789 96.2703C39.3314 96.0914 42.3979 94.0453 42.6346 94.5871C42.7398 94.8343 42.5136 95.1131 42.298 95.2709C42.0823 95.4287 41.8298 95.6496 41.8772 95.9231L44.991 94.3872C45.0424 94.3538 45.1037 94.3389 45.1646 94.3451C45.2698 94.3451 45.3119 94.4871 45.3329 94.5976C45.437 95.3741 45.2352 96.1606 44.7701 96.791C43.996 97.8321 42.9225 98.612 41.6931 99.0265C40.1151 99.5524 38.6686 100.278 38.2689 99.0738C38.09 98.5478 37.7797 97.6799 37.9796 97.1013C38.0336 96.9235 38.1468 96.7694 38.3004 96.6648Z" fill="#F9FBFE"/>
<path d="M31.957 83.694C31.0469 84.3191 30.2604 85.1073 29.6374 86.0189C28.6222 87.5179 26.9443 100.089 27.7175 103.498C28.0436 104.939 39.9047 99.5579 39.9047 99.5579C39.9047 99.5579 39.6312 97.1488 38.3741 96.3283C38.3741 96.3283 32.5566 97.5749 32.12 97.1383C31.6835 96.7017 31.957 83.694 31.957 83.694Z" fill="#6A99E6"/>
<path d="M36.0439 72.0064C36.0439 72.0064 35.9072 77.4609 38.0059 78.8443C40.1046 80.2276 40.9409 80.033 42.4452 79.3334C43.3552 78.9074 44.0232 75.5726 44.4072 73.0215C44.5956 71.8553 44.3701 70.66 43.7696 69.6426C43.1692 68.6252 42.2317 67.85 41.1197 67.4513C40.3406 67.1539 39.4793 67.1539 38.7002 67.4513C37.7933 67.7782 37.0304 68.4137 36.5448 69.2464C36.0592 70.0791 35.8819 71.0561 36.0439 72.0064Z" fill="#F9FBFE"/>
<path d="M44.444 72.8111C44.5663 72.5375 44.6529 72.2494 44.7018 71.9538C44.7993 70.9655 44.6901 69.9677 44.3809 69.024C44.2736 68.4712 44.0802 67.9387 43.8076 67.446C43.5381 67.0231 43.1554 66.6841 42.703 66.4677C42.461 66.4677 42.2401 66.2205 42.0613 66.0574C41.8733 65.918 41.6585 65.8189 41.4304 65.7664C41.2023 65.7139 40.9658 65.7091 40.7358 65.7523C40.2729 65.8049 39.8258 65.9522 39.3577 65.9943C38.5634 66.0679 37.6482 65.8575 37.0381 66.373C36.7232 66.7317 36.4675 67.1383 36.2806 67.5775C36.065 67.9405 35.7546 68.2403 35.5127 68.5822C35.2408 68.9116 35.0969 69.3281 35.1077 69.7551C35.1973 70.1308 35.3223 70.4971 35.4811 70.8492C35.5698 71.4329 35.6243 72.0212 35.6442 72.6113C35.7704 73.2898 36.1702 73.9052 36.1702 74.589L36.3122 70.9807C36.3035 70.8807 36.3236 70.7803 36.3701 70.6914C36.4805 70.5126 36.7277 70.502 36.9329 70.4494C37.422 70.3232 37.7692 69.8708 38.2426 69.692C38.5731 69.5929 38.9207 69.5642 39.263 69.6078L41.8561 69.7341C42.0116 69.7313 42.1653 69.7674 42.3032 69.8393C42.4023 69.9184 42.4954 70.0045 42.582 70.097C42.8713 70.3337 43.3026 70.2864 43.634 70.4757C44.0863 70.7387 44.16 71.3489 44.1863 71.8749L44.281 73.8263C44.2583 73.48 44.3141 73.133 44.444 72.8111Z" fill="#1F1F1F"/>
<path d="M37.4694 80.3169C37.4694 80.3169 38.7738 83.4413 40.2939 83.9147L37.664 85.7293L36.7751 80.9954L37.4694 80.3169Z" fill="#6A99E6"/>
<path d="M43.0028 80.175L43.5288 80.7379L43.108 85.6033L40.2676 83.8938C40.2676 83.8938 42.6346 82.2422 43.0028 80.175Z" fill="#6A99E6"/>
<path d="M37.4694 80.3169C37.4694 80.3169 38.7738 83.4413 40.2939 83.9147L37.664 85.7293L36.7751 80.9954L37.4694 80.3169Z" fill="url(#paint5_linear_110_278)"/>
<path d="M43.0028 80.175L43.5288 80.7379L43.108 85.6033L40.2676 83.8938C40.2676 83.8938 42.6346 82.2422 43.0028 80.175Z" fill="url(#paint6_linear_110_278)"/>
<path d="M101.851 115.716C102.535 122.096 100.273 135.22 93.1929 137.808C91.4519 138.444 89.5636 138.523 87.7068 138.581C80.4481 138.819 73.186 138.879 65.9203 138.76C63.0148 138.773 60.1122 138.573 57.2361 138.16C55.837 137.929 54.3905 137.576 53.3017 136.666C51.466 135.12 51.1662 132.169 52.4023 130.107C53.6384 128.045 56.1316 126.951 58.5301 127.03C57.5578 127.097 56.5857 126.897 55.7192 126.451C54.8526 126.005 54.1246 125.331 53.6142 124.5C53.1037 123.67 52.8302 122.716 52.8234 121.742C52.8165 120.767 53.0765 119.809 53.5752 118.972C55.2637 116.142 59.014 115.5 62.2909 115.148C60.229 112.676 58.6931 109.63 58.609 106.411C58.5248 103.192 60.1344 99.8206 63.0168 98.3846C65.8992 96.9487 69.9494 97.9849 71.3117 100.904C70.2597 95.4391 71.6904 89.4322 75.4828 85.3558C78.8912 81.6739 85.7922 78.7967 90.7365 81.0006C95.4705 83.1046 97.2325 90.2896 98.2793 94.7816C99.8947 101.681 101.087 108.672 101.851 115.716Z" fill="#6A99E6"/>
<path d="M101.851 115.716C102.535 122.096 100.273 135.22 93.1929 137.808C91.4519 138.444 89.5636 138.523 87.7068 138.581C80.4481 138.819 73.186 138.879 65.9203 138.76C63.0148 138.773 60.1122 138.573 57.2361 138.16C55.837 137.929 54.3905 137.576 53.3017 136.666C51.466 135.12 51.1662 132.169 52.4023 130.107C53.6384 128.045 56.1316 126.951 58.5301 127.03C57.5578 127.097 56.5857 126.897 55.7192 126.451C54.8526 126.005 54.1246 125.331 53.6142 124.5C53.1037 123.67 52.8302 122.716 52.8234 121.742C52.8165 120.767 53.0765 119.809 53.5752 118.972C55.2637 116.142 59.014 115.5 62.2909 115.148C60.229 112.676 58.6931 109.63 58.609 106.411C58.5248 103.192 60.1344 99.8206 63.0168 98.3846C65.8992 96.9487 69.9494 97.9849 71.3117 100.904C70.2597 95.4391 71.6904 89.4322 75.4828 85.3558C78.8912 81.6739 85.7922 78.7967 90.7365 81.0006C95.4705 83.1046 97.2325 90.2896 98.2793 94.7816C99.8947 101.681 101.087 108.672 101.851 115.716Z" fill="url(#paint7_linear_110_278)"/>
<path d="M143.462 44.8177H153.982V71.1121H143.462V44.8177Z" fill="#6A99E6"/>
<path d="M143.462 44.8177H153.982V71.1121H143.462V44.8177Z" fill="url(#paint8_linear_110_278)"/>
<path d="M154.908 41.0886H142.531C141.857 41.0886 141.311 41.635 141.311 42.3089V44.9073C141.311 45.5813 141.857 46.1276 142.531 46.1276H154.908C155.581 46.1276 156.128 45.5813 156.128 44.9073V42.3089C156.128 41.635 155.581 41.0886 154.908 41.0886Z" fill="#6A99E6"/>
<path d="M116.947 38.243L79.0385 75.9777V86.6658V136.409H159.236V86.6658V79.5439L116.947 38.243Z" fill="#6A99E6"/>
<path d="M116.947 38.243L79.0385 75.9777V86.6658V136.409H159.236V86.6658V79.5439L116.947 38.243Z" fill="url(#paint9_linear_110_278)"/>
<path opacity="0.2" d="M118.046 35.6709L79.0437 74.5627V80.7536L118.046 43.7764L159.247 82.8366V78.9442C159.477 78.9456 159.702 78.8776 159.892 78.7489C160.083 78.6203 160.23 78.4371 160.315 78.2233C160.4 78.0096 160.418 77.7752 160.367 77.5509C160.316 77.3267 160.199 77.123 160.031 76.9665L118.046 35.6709Z" fill="#6A99E6"/>
<path d="M75.9193 136.409H162.361V142.763H75.9193V136.409Z" fill="#6A99E6"/>
<path d="M89.1743 96.2544H120.071V121.891H89.1743V96.2544Z" fill="#6A99E6"/>
<path d="M89.1743 96.2544H120.071V121.891H89.1743V96.2544Z" fill="url(#paint10_linear_110_278)"/>
<path d="M130.586 95.1027H150.963V136.409H130.586V95.1027Z" fill="#6A99E6"/>
<path d="M132.237 97.7325H149.316V134.268H132.237V97.7325Z" fill="#6A99E6"/>
<path d="M132.237 97.7325H149.316V134.268H132.237V97.7325Z" fill="url(#paint11_linear_110_278)"/>
<path d="M151.557 92.804H130.107C129.616 92.804 129.218 93.2019 129.218 93.6929V95.3655C129.218 95.8565 129.616 96.2545 130.107 96.2545H151.557C152.048 96.2545 152.446 95.8565 152.446 95.3655V93.6929C152.446 93.2019 152.048 92.804 151.557 92.804Z" fill="#6A99E6"/>
<path d="M116.231 35.6287L74.4308 76.2826C74.0717 76.6485 73.8275 77.1114 73.7281 77.6144C73.6287 78.1173 73.6785 78.6383 73.8713 79.1133C74.0641 79.5884 74.3915 79.9967 74.8133 80.2881C75.2351 80.5795 75.7329 80.7412 76.2454 80.7535C76.9155 80.7542 77.56 80.496 78.0443 80.0329L116.252 43.6763C116.736 43.2152 117.378 42.958 118.046 42.958C118.714 42.958 119.356 43.2152 119.84 43.6763L158.048 80.0329C158.53 80.4953 159.173 80.7534 159.841 80.7535C160.354 80.7412 160.852 80.5795 161.273 80.2881C161.695 79.9967 162.023 79.5884 162.215 79.1133C162.408 78.6383 162.458 78.1173 162.359 77.6144C162.259 77.1114 162.015 76.6485 161.656 76.2826L119.861 35.6287C119.375 35.1551 118.724 34.89 118.046 34.89C117.368 34.89 116.717 35.1551 116.231 35.6287Z" fill="#6A99E6"/>
<path d="M88.2854 95.1027H120.96V96.2546H88.2854V95.1027Z" fill="#6A99E6"/>
<path d="M96.7065 96.2544H97.748V119.756H96.7065V96.2544Z" fill="#6A99E6"/>
<path d="M104.102 96.2544H105.143V119.756H104.102V96.2544Z" fill="#6A99E6"/>
<path d="M111.497 96.2544H112.539V119.756H111.497V96.2544Z" fill="#6A99E6"/>
<path d="M89.1743 108.636H120.071V109.515H89.1743V108.636Z" fill="#6A99E6"/>
<path d="M119.13 120.15C119.629 119.889 120.053 119.503 120.358 119.029C120.663 118.555 120.84 118.009 120.871 117.447C120.871 116.921 120.686 116.321 120.187 116.247C119.974 116.238 119.763 116.287 119.577 116.389C119.009 116.659 118.502 117.042 118.088 117.515C118.241 117.004 118.303 116.47 118.272 115.937C118.274 115.642 118.182 115.354 118.01 115.115C117.838 114.875 117.595 114.697 117.315 114.604C117.035 114.512 116.733 114.511 116.452 114.601C116.171 114.691 115.927 114.868 115.753 115.106C115.352 115.587 115.068 116.154 114.922 116.763C114.592 115.882 114.019 115.112 113.27 114.543C113.145 114.439 112.997 114.365 112.839 114.327C112.655 114.317 112.472 114.361 112.313 114.454C111.849 114.692 111.455 115.047 111.17 115.484C110.886 115.922 110.722 116.426 110.693 116.947C110.642 116.759 110.535 116.591 110.386 116.465C110.238 116.34 110.055 116.262 109.862 116.242C109.766 116.24 109.672 116.26 109.585 116.299C109.498 116.339 109.421 116.397 109.36 116.471C109.299 116.544 109.255 116.63 109.232 116.722C109.209 116.815 109.206 116.911 109.225 117.005C108.859 116.623 108.398 116.347 107.889 116.205C107.38 116.062 106.843 116.059 106.332 116.195C105.829 116.353 105.398 116.685 105.115 117.13C104.832 117.576 104.715 118.107 104.786 118.63C104.661 118.579 104.527 118.557 104.392 118.563C104.258 118.57 104.126 118.606 104.007 118.668C103.888 118.731 103.784 118.819 103.702 118.926C103.62 119.033 103.563 119.156 103.534 119.287C103.492 119.558 103.509 119.835 103.585 120.098C103.66 120.361 103.792 120.605 103.97 120.813" fill="#6A99E6"/>
<path d="M89.4268 120.098L88.2381 119.098C87.9774 118.924 87.7901 118.66 87.7121 118.357C87.6595 117.831 88.2381 117.489 88.7641 117.573C89.2537 117.71 89.6891 117.994 90.0107 118.388C89.8634 117.294 89.7845 116.016 90.5893 115.232C90.9112 114.967 91.3029 114.8 91.7173 114.753C92.1317 114.705 92.551 114.779 92.9247 114.964C93.6664 115.353 94.2487 115.99 94.571 116.763C94.9339 115.611 95.6406 114.598 96.5961 113.859C96.6624 113.783 96.7448 113.723 96.8373 113.683C96.9298 113.643 97.0301 113.624 97.1308 113.628C97.2316 113.631 97.3303 113.657 97.4197 113.704C97.5092 113.75 97.5872 113.816 97.6481 113.896C98.0476 114.277 98.3633 114.737 98.5752 115.247C98.7871 115.757 98.8905 116.305 98.8789 116.857C99.0287 116.513 99.2138 116.185 99.4312 115.879C99.4845 115.783 99.5702 115.708 99.6731 115.669C99.8362 115.621 99.9887 115.748 100.11 115.863C100.425 116.174 100.741 116.584 100.636 117.01C100.809 116.311 101.174 115.674 101.688 115.169C102.214 114.711 103.192 114.669 103.586 115.264C103.766 115.583 103.832 115.954 103.776 116.316C103.704 117.086 103.456 117.83 103.05 118.488C103.05 118.23 103.439 118.13 103.644 118.283C103.738 118.37 103.807 118.48 103.847 118.601C103.886 118.722 103.894 118.852 103.871 118.977C103.871 119.23 103.755 119.477 103.744 119.735" fill="#6A99E6"/>
<path d="M119.13 120.15C119.629 119.889 120.053 119.503 120.358 119.029C120.663 118.555 120.84 118.009 120.871 117.447C120.871 116.921 120.686 116.321 120.187 116.247C119.974 116.238 119.763 116.287 119.577 116.389C119.009 116.659 118.502 117.042 118.088 117.515C118.241 117.004 118.303 116.47 118.272 115.937C118.274 115.642 118.182 115.354 118.01 115.115C117.838 114.875 117.595 114.697 117.315 114.604C117.035 114.512 116.733 114.511 116.452 114.601C116.171 114.691 115.927 114.868 115.753 115.106C115.352 115.587 115.068 116.154 114.922 116.763C114.592 115.882 114.019 115.112 113.27 114.543C113.145 114.439 112.997 114.365 112.839 114.327C112.655 114.317 112.472 114.361 112.313 114.454C111.849 114.692 111.455 115.047 111.17 115.484C110.886 115.922 110.722 116.426 110.693 116.947C110.642 116.759 110.535 116.591 110.386 116.465C110.238 116.34 110.055 116.262 109.862 116.242C109.766 116.24 109.672 116.26 109.585 116.299C109.498 116.339 109.421 116.397 109.36 116.471C109.299 116.544 109.255 116.63 109.232 116.722C109.209 116.815 109.206 116.911 109.225 117.005C108.859 116.623 108.398 116.347 107.889 116.205C107.38 116.062 106.843 116.059 106.332 116.195C105.829 116.353 105.398 116.685 105.115 117.13C104.832 117.576 104.715 118.107 104.786 118.63C104.661 118.579 104.527 118.557 104.392 118.563C104.258 118.57 104.126 118.606 104.007 118.668C103.888 118.731 103.784 118.819 103.702 118.926C103.62 119.033 103.563 119.156 103.534 119.287C103.492 119.558 103.509 119.835 103.585 120.098C103.66 120.361 103.792 120.605 103.97 120.813" fill="url(#paint12_linear_110_278)"/>
<path d="M119.976 119.756H89.2742C88.1994 119.756 87.3281 120.627 87.3281 121.702V125.042C87.3281 126.117 88.1994 126.988 89.2742 126.988H119.976C121.051 126.988 121.923 126.117 121.923 125.042V121.702C121.923 120.627 121.051 119.756 119.976 119.756Z" fill="#6A99E6"/>
<path d="M89.4268 120.098L88.2381 119.098C87.9774 118.924 87.7901 118.66 87.7121 118.357C87.6595 117.831 88.2381 117.489 88.7641 117.573C89.2537 117.71 89.6891 117.994 90.0107 118.388C89.8634 117.294 89.7845 116.016 90.5893 115.232C90.9112 114.967 91.3029 114.8 91.7173 114.753C92.1317 114.705 92.551 114.779 92.9247 114.964C93.6664 115.353 94.2487 115.99 94.571 116.763C94.9339 115.611 95.6406 114.598 96.5961 113.859C96.6624 113.783 96.7448 113.723 96.8373 113.683C96.9298 113.643 97.0301 113.624 97.1308 113.628C97.2316 113.631 97.3303 113.657 97.4197 113.704C97.5092 113.75 97.5872 113.816 97.6481 113.896C98.0476 114.277 98.3633 114.737 98.5752 115.247C98.7871 115.757 98.8905 116.305 98.8789 116.857C99.0287 116.513 99.2138 116.185 99.4312 115.879C99.4845 115.783 99.5702 115.708 99.6731 115.669C99.8362 115.621 99.9887 115.748 100.11 115.863C100.425 116.174 100.741 116.584 100.636 117.01C100.809 116.311 101.174 115.674 101.688 115.169C102.214 114.711 103.192 114.669 103.586 115.264C103.766 115.583 103.832 115.954 103.776 116.316C103.704 117.086 103.456 117.83 103.05 118.488C103.05 118.23 103.439 118.13 103.644 118.283C103.738 118.37 103.807 118.48 103.847 118.601C103.886 118.722 103.894 118.852 103.871 118.977C103.871 119.23 103.755 119.477 103.744 119.735" fill="url(#paint13_linear_110_278)"/>
<path d="M95.4599 123.695H99.9308V155.06H95.4599V123.695Z" fill="#6A99E6"/>
<path d="M95.4599 123.695H99.9308V155.06H95.4599V123.695Z" fill="url(#paint14_linear_110_278)"/>
<path d="M83.0518 125.321H110.63V140.49H83.0518V125.321Z" fill="#6A99E6"/>
<path d="M82.936 125.321H110.514V140.49H82.936V125.321Z" fill="url(#paint15_linear_110_278)"/>
<path d="M87.833 131.433C87.7109 131.267 87.5527 131.13 87.3702 131.033C87.162 130.927 86.9306 130.875 86.6969 130.881C86.5561 130.882 86.4161 130.903 86.2814 130.944C86.1451 130.984 86.0169 131.049 85.9027 131.133C85.7883 131.222 85.6934 131.333 85.6239 131.459C85.5509 131.601 85.5148 131.758 85.5187 131.917C85.5144 132.069 85.5488 132.219 85.6186 132.354C85.6865 132.468 85.7779 132.567 85.8869 132.643C86.0043 132.728 86.1337 132.795 86.2709 132.843L86.7127 133C86.9073 133.058 87.0967 133.127 87.2913 133.2C87.4787 133.271 87.6557 133.366 87.8173 133.484C87.9756 133.603 88.1051 133.756 88.196 133.932C88.3022 134.141 88.3529 134.375 88.3433 134.61C88.3495 134.856 88.2954 135.1 88.1855 135.32C88.0892 135.513 87.9508 135.682 87.7805 135.815C87.609 135.946 87.4146 136.044 87.2071 136.104C86.9953 136.166 86.7757 136.198 86.5549 136.199C86.3781 136.201 86.2016 136.184 86.0289 136.146C85.8658 136.113 85.7069 136.062 85.5555 135.993C85.4037 135.928 85.262 135.841 85.1347 135.736C85.0039 135.634 84.8887 135.513 84.7928 135.378L85.2767 135.02C85.4076 135.227 85.5886 135.397 85.8027 135.515C86.0307 135.653 86.2937 135.722 86.5601 135.715C86.7061 135.714 86.8513 135.692 86.9915 135.651C87.1335 135.606 87.2668 135.536 87.386 135.446C87.5033 135.355 87.6001 135.241 87.67 135.11C87.7505 134.969 87.7906 134.809 87.7857 134.647C87.7919 134.48 87.7518 134.314 87.67 134.168C87.5958 134.041 87.4931 133.933 87.3702 133.853C87.2396 133.76 87.096 133.687 86.9441 133.637L86.4181 133.463C86.239 133.409 86.0634 133.344 85.8921 133.269C85.7174 133.202 85.5555 133.106 85.4135 132.985C85.2722 132.866 85.1575 132.719 85.0769 132.553C84.9872 132.345 84.9436 132.119 84.9491 131.892C84.9545 131.666 85.0089 131.442 85.1084 131.238C85.2118 131.053 85.3535 130.892 85.5239 130.765C85.6954 130.641 85.8878 130.548 86.092 130.492C86.2924 130.436 86.4994 130.408 86.7074 130.407C87.0378 130.398 87.3658 130.466 87.6647 130.607C87.8975 130.716 88.1026 130.876 88.2644 131.075L87.833 131.433Z" fill="#F9FBFE"/>
<path d="M91.3204 136.056H90.705L93.0877 130.549H93.6137L95.9806 136.056H95.36L94.7498 134.61H91.92L91.3204 136.056ZM92.1304 134.094H94.55L93.3402 131.196L92.1304 134.094Z" fill="#F9FBFE"/>
<path d="M99.1734 135.557H101.74V136.056H98.6106V130.549H99.1734V135.557Z" fill="#F9FBFE"/>
<path d="M104.901 135.557H107.852V136.056H104.339V130.549H107.758V131.044H104.901V132.937H107.568V133.437H104.901V135.557Z" fill="#F9FBFE"/>
<defs>
<linearGradient id="paint0_linear_110_278" x1="93.0824" y1="90.4528" x2="92.0515" y2="194.552" gradientUnits="userSpaceOnUse">
<stop offset="0.01"/>
<stop offset="0.12" stop-opacity="0.75"/>
<stop offset="1" stop-opacity="0"/>
</linearGradient>
<linearGradient id="paint1_linear_110_278" x1="43.6287" y1="129.366" x2="43.0344" y2="189.255" gradientUnits="userSpaceOnUse">
<stop offset="0.01"/>
<stop offset="0.12" stop-opacity="0.75"/>
<stop offset="1" stop-opacity="0"/>
</linearGradient>
<linearGradient id="paint2_linear_110_278" x1="54.5641" y1="100.857" x2="40.6148" y2="103.056" gradientUnits="userSpaceOnUse">
<stop offset="0.01"/>
<stop offset="0.12" stop-opacity="0.75"/>
<stop offset="1" stop-opacity="0"/>
</linearGradient>
<linearGradient id="paint3_linear_110_278" x1="22.0841" y1="96.6962" x2="42.1507" y2="91.8729" gradientUnits="userSpaceOnUse">
<stop offset="0.01"/>
<stop offset="0.12" stop-opacity="0.75"/>
<stop offset="1" stop-opacity="0"/>
</linearGradient>
<linearGradient id="paint4_linear_110_278" x1="40.9883" y1="72.2798" x2="39.4524" y2="89.201" gradientUnits="userSpaceOnUse">
<stop offset="0.01"/>
<stop offset="0.12" stop-opacity="0.75"/>
<stop offset="1" stop-opacity="0"/>
</linearGradient>
<linearGradient id="paint5_linear_110_278" x1="38.5792" y1="74.2943" x2="38.4372" y2="97.0908" gradientUnits="userSpaceOnUse">
<stop offset="0.01"/>
<stop offset="0.12" stop-opacity="0.75"/>
<stop offset="1" stop-opacity="0"/>
</linearGradient>
<linearGradient id="paint6_linear_110_278" x1="41.9719" y1="74.3155" x2="41.8351" y2="97.112" gradientUnits="userSpaceOnUse">
<stop offset="0.01"/>
<stop offset="0.12" stop-opacity="0.75"/>
<stop offset="1" stop-opacity="0"/>
</linearGradient>
<linearGradient id="paint7_linear_110_278" x1="110.393" y1="138.639" x2="42.8292" y2="85.9028" gradientUnits="userSpaceOnUse">
<stop offset="0.01"/>
<stop offset="0.12" stop-opacity="0.75"/>
<stop offset="1" stop-opacity="0"/>
</linearGradient>
<linearGradient id="paint8_linear_110_278" x1="148.648" y1="38.6742" x2="148.801" y2="80.8061" gradientUnits="userSpaceOnUse">
<stop offset="0.01"/>
<stop offset="0.12" stop-opacity="0.75"/>
<stop offset="1" stop-opacity="0"/>
</linearGradient>
<linearGradient id="paint9_linear_110_278" x1="126.514" y1="167.853" x2="102.619" y2="-26.1015" gradientUnits="userSpaceOnUse">
<stop offset="0.01"/>
<stop offset="0.12" stop-opacity="0.75"/>
<stop offset="1" stop-opacity="0"/>
</linearGradient>
<linearGradient id="paint10_linear_110_278" x1="105.675" y1="88.2488" x2="104.754" y2="106.48" gradientUnits="userSpaceOnUse">
<stop offset="0.02" stop-color="white" stop-opacity="0"/>
<stop offset="0.58" stop-color="white" stop-opacity="0.39"/>
<stop offset="1" stop-color="white"/>
</linearGradient>
<linearGradient id="paint11_linear_110_278" x1="142.626" y1="147.239" x2="140.937" y2="118.746" gradientUnits="userSpaceOnUse">
<stop offset="0.02" stop-color="white" stop-opacity="0"/>
<stop offset="0.58" stop-color="white" stop-opacity="0.39"/>
<stop offset="1" stop-color="white"/>
</linearGradient>
<linearGradient id="paint12_linear_110_278" x1="113.396" y1="112.223" x2="110.335" y2="128.003" gradientUnits="userSpaceOnUse">
<stop offset="0.01"/>
<stop offset="0.12" stop-opacity="0.75"/>
<stop offset="1" stop-opacity="0"/>
</linearGradient>
<linearGradient id="paint13_linear_110_278" x1="97.6218" y1="109.157" x2="94.5552" y2="124.937" gradientUnits="userSpaceOnUse">
<stop offset="0.01"/>
<stop offset="0.12" stop-opacity="0.75"/>
<stop offset="1" stop-opacity="0"/>
</linearGradient>
<linearGradient id="paint14_linear_110_278" x1="88.906" y1="139.012" x2="118.63" y2="140.238" gradientUnits="userSpaceOnUse">
<stop offset="0.01"/>
<stop offset="0.12" stop-opacity="0.75"/>
<stop offset="1" stop-opacity="0"/>
</linearGradient>
<linearGradient id="paint15_linear_110_278" x1="94.2186" y1="117.31" x2="100.425" y2="155.918" gradientUnits="userSpaceOnUse">
<stop offset="0.01"/>
<stop offset="0.12" stop-opacity="0.75"/>
<stop offset="1" stop-opacity="0"/>
</linearGradient>
</defs>
</svg>
