<svg width="169" height="169" viewBox="0 0 169 169" fill="none" xmlns="http://www.w3.org/2000/svg">
<path d="M84.0246 168.938C130.43 168.938 168.049 131.319 168.049 84.9131C168.049 38.5076 130.43 0.88855 84.0246 0.88855C37.6191 0.88855 0 38.5076 0 84.9131C0 131.319 37.6191 168.938 84.0246 168.938Z" fill="#6A99E6"/>
<path d="M106.619 18.4582V127.391C106.619 127.993 106.38 128.57 105.955 128.995C105.53 129.421 104.953 129.659 104.351 129.659H29.0246C28.4231 129.659 27.8462 129.421 27.4209 128.995C26.9955 128.57 26.7566 127.993 26.7566 127.391V35.5913L46.161 16.1902H104.351C104.953 16.1902 105.53 16.4291 105.955 16.8545C106.38 17.2798 106.619 17.8567 106.619 18.4582Z" fill="#E4E4E4"/>
<path d="M46.161 16.1902V26.713C46.161 27.8792 45.9313 29.0339 45.4849 30.1113C45.0385 31.1887 44.3842 32.1676 43.5594 32.9921C42.7347 33.8166 41.7555 34.4705 40.678 34.9164C39.6004 35.3624 38.4456 35.5918 37.2794 35.5913H26.7566L46.161 16.1902Z" fill="#F9FBFE"/>
<path d="M119.568 25.8694V134.803C119.564 135.403 119.324 135.978 118.9 136.403C118.475 136.827 117.9 137.067 117.3 137.071H41.9697C41.3708 137.066 40.7977 136.826 40.3754 136.401C39.9531 135.976 39.7157 135.402 39.7148 134.803V43.0059L59.1061 23.6014H117.3C117.901 23.6023 118.477 23.8415 118.902 24.2667C119.328 24.6918 119.567 25.2682 119.568 25.8694Z" fill="#F9FBFE"/>
<path d="M106.619 62.3775H50.7003C50.2781 62.3775 49.8732 62.2098 49.5746 61.9112C49.2761 61.6127 49.1084 61.2078 49.1084 60.7856C49.1084 60.3634 49.2761 59.9585 49.5746 59.66C49.8732 59.3614 50.2781 59.1937 50.7003 59.1937H106.619C107.041 59.1937 107.446 59.3614 107.745 59.66C108.043 59.9585 108.211 60.3634 108.211 60.7856C108.211 61.2078 108.043 61.6127 107.745 61.9112C107.446 62.2098 107.041 62.3775 106.619 62.3775Z" fill="#1F1F1F"/>
<path d="M79.7315 71.8861H50.7003C50.2902 71.8675 49.903 71.6915 49.6194 71.3947C49.3358 71.0979 49.1775 70.7031 49.1775 70.2926C49.1775 69.8821 49.3358 69.4873 49.6194 69.1905C49.903 68.8937 50.2902 68.7177 50.7003 68.6991H79.7315C80.1416 68.7177 80.5287 68.8937 80.8124 69.1905C81.096 69.4873 81.2543 69.8821 81.2543 70.2926C81.2543 70.7031 81.096 71.0979 80.8124 71.3947C80.5287 71.6915 80.1416 71.8675 79.7315 71.8861Z" fill="#1F1F1F"/>
<path d="M106.619 71.8861H84.7828C84.3727 71.8675 83.9856 71.6915 83.7019 71.3947C83.4183 71.0979 83.26 70.7031 83.26 70.2926C83.26 69.8821 83.4183 69.4873 83.7019 69.1905C83.9856 68.8937 84.3727 68.7177 84.7828 68.6991H106.619C107.029 68.7177 107.417 68.8937 107.7 69.1905C107.984 69.4873 108.142 69.8821 108.142 70.2926C108.142 70.7031 107.984 71.0979 107.7 71.3947C107.417 71.6915 107.029 71.8675 106.619 71.8861Z" fill="#1F1F1F"/>
<path d="M106.619 91.9108H76.4754C76.0532 91.9108 75.6483 91.7431 75.3498 91.4446C75.0513 91.146 74.8835 90.7411 74.8835 90.3189C74.8835 89.8967 75.0513 89.4918 75.3498 89.1933C75.6483 88.8948 76.0532 88.7271 76.4754 88.7271H106.609C107.032 88.7271 107.436 88.8948 107.735 89.1933C108.034 89.4918 108.201 89.8967 108.201 90.3189C108.201 90.7411 108.034 91.146 107.735 91.4446C107.436 91.7431 107.032 91.9108 106.609 91.9108H106.619Z" fill="#1F1F1F"/>
<path d="M93.1753 46.9839H64.1441C63.9351 46.9839 63.7281 46.9427 63.5349 46.8627C63.3418 46.7827 63.1663 46.6655 63.0185 46.5177C62.8707 46.3698 62.7534 46.1944 62.6734 46.0012C62.5934 45.8081 62.5522 45.6011 62.5522 45.392C62.5522 45.183 62.5934 44.976 62.6734 44.7829C62.7534 44.5897 62.8707 44.4142 63.0185 44.2664C63.1663 44.1186 63.3418 44.0013 63.5349 43.9213C63.7281 43.8413 63.9351 43.8002 64.1441 43.8002H93.1753C93.3843 43.8002 93.5913 43.8413 93.7845 43.9213C93.9776 44.0013 94.1531 44.1186 94.3009 44.2664C94.4487 44.4142 94.566 44.5897 94.646 44.7829C94.726 44.976 94.7671 45.183 94.7671 45.392C94.7671 45.6011 94.726 45.8081 94.646 46.0012C94.566 46.1944 94.4487 46.3698 94.3009 46.5177C94.1531 46.6655 93.9776 46.7827 93.7845 46.8627C93.5913 46.9427 93.3843 46.9839 93.1753 46.9839Z" fill="#1F1F1F"/>
<path d="M106.619 82.4055H50.7003C50.2902 82.3869 49.903 82.2109 49.6194 81.9141C49.3358 81.6173 49.1775 81.2226 49.1775 80.812C49.1775 80.4015 49.3358 80.0068 49.6194 79.71C49.903 79.4131 50.2902 79.2371 50.7003 79.2185H106.619C107.029 79.2371 107.417 79.4131 107.7 79.71C107.984 80.0068 108.142 80.4015 108.142 80.812C108.142 81.2226 107.984 81.6173 107.7 81.9141C107.417 82.2109 107.029 82.3869 106.619 82.4055Z" fill="#1F1F1F"/>
<path d="M70.4328 91.9599H50.7002C50.2649 91.9599 49.8475 91.787 49.5397 91.4793C49.232 91.1715 49.0591 90.7541 49.0591 90.3188C49.0591 89.8836 49.232 89.4662 49.5397 89.1584C49.8475 88.8506 50.2649 88.6777 50.7002 88.6777H70.4328C70.8681 88.6777 71.2855 88.8506 71.5933 89.1584C71.901 89.4662 72.0739 89.8836 72.0739 90.3188C72.0739 90.7541 71.901 91.1715 71.5933 91.4793C71.2855 91.787 70.8681 91.9599 70.4328 91.9599Z" fill="#1F1F1F"/>
<path d="M106.619 102.43H50.7003C50.4912 102.43 50.2842 102.389 50.0911 102.309C49.898 102.229 49.7225 102.112 49.5746 101.964C49.4268 101.816 49.3096 101.641 49.2296 101.448C49.1496 101.254 49.1084 101.047 49.1084 100.838C49.1084 100.629 49.1496 100.422 49.2296 100.229C49.3096 100.036 49.4268 99.8606 49.5746 99.7128C49.7225 99.565 49.898 99.4478 50.0911 99.3678C50.2842 99.2878 50.4912 99.2466 50.7003 99.2466H106.619C106.828 99.2466 107.035 99.2878 107.228 99.3678C107.422 99.4478 107.597 99.565 107.745 99.7128C107.893 99.8606 108.01 100.036 108.09 100.229C108.17 100.422 108.211 100.629 108.211 100.838C108.211 101.047 108.17 101.254 108.09 101.448C108.01 101.641 107.893 101.816 107.745 101.964C107.597 102.112 107.422 102.229 107.228 102.309C107.035 102.389 106.828 102.43 106.619 102.43Z" fill="#1F1F1F"/>
<path d="M79.7315 111.939H50.7003C50.2902 111.92 49.903 111.744 49.6194 111.447C49.3358 111.15 49.1775 110.756 49.1775 110.345C49.1775 109.935 49.3358 109.54 49.6194 109.243C49.903 108.946 50.2902 108.77 50.7003 108.752H79.7315C80.1416 108.77 80.5287 108.946 80.8124 109.243C81.096 109.54 81.2543 109.935 81.2543 110.345C81.2543 110.756 81.096 111.15 80.8124 111.447C80.5287 111.744 80.1416 111.92 79.7315 111.939Z" fill="#1F1F1F"/>
<path d="M59.1061 23.6047V34.1275C59.1083 35.2949 58.8798 36.4512 58.4338 37.5299C57.9878 38.6087 57.333 39.5888 56.5071 40.4138C55.6812 41.2388 54.7004 41.8925 53.6211 42.3373C52.5418 42.7821 51.3853 43.0093 50.2179 43.0059H39.7148L59.1061 23.6047Z" fill="#F9FBFE"/>
<path d="M61.6727 129.958H61.5315C61.2899 129.936 61.0566 129.859 60.849 129.733C60.6415 129.608 60.4652 129.437 60.3335 129.233L58.2953 126.066L55.8599 127.51C55.6246 127.65 55.3572 127.727 55.0834 127.733C54.8097 127.739 54.539 127.675 54.2975 127.546C53.7566 127.26 53.2338 126.941 52.7319 126.591C52.3616 126.909 51.9725 127.205 51.5667 127.477C51.2129 127.708 50.7819 127.788 50.3685 127.701C49.9552 127.614 49.5934 127.366 49.3627 127.012C49.132 126.659 49.0514 126.228 49.1385 125.814C49.2256 125.401 49.4733 125.039 49.8272 124.808C49.8272 124.808 50.0996 124.628 50.4836 124.323C50.0273 123.608 49.7826 122.778 49.7779 121.93C49.7779 118.628 53.4901 116.527 53.9168 116.298C54.1113 116.194 54.3252 116.132 54.5449 116.116C54.7647 116.099 54.9854 116.129 55.1932 116.202C55.4009 116.276 55.5911 116.391 55.7517 116.542C55.9122 116.693 56.0396 116.876 56.1257 117.079C57.2942 119.898 56.2997 122.393 54.9441 124.234L55.0229 124.283L57.9769 122.527C58.3319 122.317 58.7545 122.253 59.156 122.348C59.5574 122.443 59.9066 122.689 60.13 123.036L61.886 125.767L64.0326 123.453C64.2372 123.233 64.4999 123.075 64.7904 122.999C65.0809 122.922 65.3872 122.929 65.6737 123.02L68.9001 124.057H74.8606C75.0759 124.047 75.291 124.081 75.4929 124.157C75.6947 124.232 75.8791 124.348 76.035 124.497C76.1908 124.646 76.3149 124.825 76.3996 125.023C76.4844 125.221 76.5281 125.435 76.5281 125.65C76.5281 125.866 76.4844 126.079 76.3996 126.277C76.3149 126.476 76.1908 126.655 76.035 126.804C75.8791 126.952 75.6947 127.068 75.4929 127.144C75.291 127.22 75.0759 127.254 74.8606 127.244H68.6802C68.514 127.244 68.3489 127.217 68.1911 127.165L65.6934 126.361L62.8411 129.44C62.6928 129.602 62.5123 129.732 62.3112 129.821C62.1101 129.911 61.8927 129.957 61.6727 129.958Z" fill="#1F1F1F"/>
<path d="M139.924 134.475L132.663 108C132.663 108 132.663 108 132.663 107.984C132.663 107.967 132.647 107.941 132.637 107.921C132.626 107.909 132.614 107.898 132.601 107.889C132.601 107.872 132.578 107.856 132.568 107.836L132.532 107.787L132.493 107.744L132.45 107.702L132.401 107.669L132.348 107.636L132.296 107.613L132.233 107.587H132.217H132.181H132.112H131.991H131.922H131.886H131.869L131.807 107.613L131.754 107.636L131.705 107.669L131.653 107.705L131.613 107.744L131.57 107.787L131.534 107.836C131.534 107.853 131.511 107.869 131.502 107.889C131.492 107.905 131.484 107.923 131.479 107.941C131.479 107.961 131.462 107.981 131.452 108.004C131.442 108.026 131.452 108.004 131.452 108.02L124.199 134.475C124.155 134.634 124.177 134.805 124.259 134.949C124.34 135.092 124.476 135.198 124.635 135.243C124.69 135.257 124.746 135.264 124.803 135.266C124.94 135.265 125.073 135.219 125.182 135.136C125.291 135.052 125.37 134.935 125.406 134.803L132.063 110.514L138.716 134.803C138.752 134.935 138.831 135.052 138.94 135.136C139.049 135.219 139.182 135.265 139.32 135.266C139.376 135.264 139.432 135.257 139.487 135.243C139.647 135.198 139.782 135.092 139.864 134.949C139.945 134.805 139.967 134.634 139.924 134.475Z" fill="#6A99E6"/>
<path d="M124.238 134.36H139.885C140.1 134.36 140.307 134.445 140.46 134.598C140.613 134.751 140.699 134.958 140.699 135.174V136.917C140.698 138.872 139.92 140.747 138.537 142.129C137.154 143.512 135.279 144.288 133.323 144.288H130.799C129.83 144.29 128.87 144.101 127.974 143.731C127.078 143.361 126.263 142.819 125.577 142.134C124.891 141.449 124.346 140.636 123.975 139.741C123.603 138.846 123.412 137.886 123.411 136.917V135.174C123.411 135.066 123.433 134.959 123.474 134.859C123.516 134.76 123.577 134.669 123.654 134.593C123.731 134.518 123.822 134.458 123.923 134.418C124.023 134.378 124.13 134.358 124.238 134.36Z" fill="#1D48BB"/>
<path d="M133.304 144.288H130.799C129.83 144.29 128.869 144.101 127.973 143.731C127.077 143.361 126.262 142.818 125.576 142.133C124.89 141.448 124.345 140.634 123.974 139.739C123.602 138.843 123.411 137.883 123.411 136.913V135.174C123.411 135.067 123.432 134.961 123.473 134.862C123.514 134.763 123.574 134.674 123.65 134.598C123.725 134.522 123.815 134.462 123.914 134.422C124.012 134.381 124.118 134.36 124.225 134.36H126.729C126.623 134.36 126.517 134.381 126.418 134.422C126.319 134.462 126.229 134.522 126.154 134.598C126.078 134.674 126.018 134.763 125.977 134.862C125.937 134.961 125.915 135.067 125.915 135.174V136.913C125.915 137.883 126.107 138.843 126.478 139.739C126.85 140.634 127.394 141.448 128.08 142.133C128.766 142.818 129.581 143.361 130.477 143.731C131.374 144.101 132.334 144.29 133.304 144.288Z" fill="#1D48BB"/>
<path d="M105.553 134.474L98.2925 108C98.2925 108 98.2925 108 98.2925 107.984C98.2925 107.967 98.2761 107.941 98.2695 107.921L98.2465 107.869C98.2465 107.852 98.2236 107.836 98.2137 107.816L98.1776 107.767L98.1349 107.724C98.1216 107.709 98.1073 107.695 98.0923 107.682L98.043 107.649L97.9938 107.616L97.9413 107.593L97.8757 107.567H97.81H97.7444H97.6229H97.554H97.5179H97.5015L97.4391 107.593L97.3866 107.616L97.3341 107.649L97.2849 107.685C97.2691 107.696 97.2548 107.71 97.2422 107.724L97.1995 107.767L97.1667 107.816C97.1539 107.833 97.1429 107.85 97.1339 107.869C97.1242 107.885 97.1165 107.903 97.1109 107.921C97.1002 107.941 97.0914 107.962 97.0846 107.984C97.0846 107.984 97.0846 107.984 97.0846 108L89.8244 134.474C89.7812 134.635 89.8032 134.805 89.8856 134.949C89.9681 135.093 90.1042 135.199 90.2642 135.242C90.3179 135.256 90.3729 135.264 90.4283 135.265C90.5658 135.265 90.6994 135.22 90.8085 135.136C90.9176 135.053 90.9963 134.935 91.0322 134.803L97.6886 110.514L104.345 134.803C104.381 134.935 104.459 135.053 104.569 135.136C104.678 135.22 104.811 135.265 104.949 135.265C105.004 135.265 105.059 135.257 105.113 135.242C105.273 135.199 105.409 135.093 105.492 134.949C105.574 134.805 105.596 134.635 105.553 134.474Z" fill="#6A99E6"/>
<path d="M125.548 149.297H123.299V146.51C123.299 146.126 123.147 145.758 122.876 145.486C122.604 145.214 122.236 145.061 121.852 145.06H107.843C107.459 145.061 107.09 145.214 106.819 145.486C106.547 145.757 106.394 146.126 106.393 146.51V149.297H104.148C104.086 149.294 104.025 149.294 103.964 149.297C103.529 149.34 103.126 149.544 102.833 149.868C102.541 150.193 102.381 150.616 102.385 151.053V152.694C102.389 152.95 102.493 153.193 102.673 153.374C102.854 153.555 103.098 153.658 103.353 153.662H126.329C126.587 153.662 126.835 153.561 127.019 153.38C127.204 153.199 127.309 152.952 127.313 152.694V151.053C127.313 150.822 127.267 150.593 127.178 150.379C127.089 150.166 126.959 149.972 126.795 149.809C126.631 149.646 126.436 149.517 126.222 149.429C126.008 149.341 125.779 149.296 125.548 149.297Z" fill="#1D48BB"/>
<path d="M134.134 106.937H116.847V102.014C116.847 101.483 116.636 100.973 116.26 100.598C115.885 100.222 115.375 100.011 114.844 100.011C114.313 100.011 113.804 100.222 113.429 100.598C113.053 100.973 112.842 101.483 112.842 102.014V106.937H95.5614C95.243 106.953 94.943 107.091 94.7234 107.322C94.5038 107.554 94.3813 107.86 94.3813 108.179C94.3813 108.498 94.5038 108.805 94.7234 109.036C94.943 109.267 95.243 109.405 95.5614 109.421H112.846V145.06H116.847V109.421H134.131C134.449 109.405 134.749 109.267 134.969 109.036C135.188 108.805 135.311 108.498 135.311 108.179C135.311 107.86 135.188 107.554 134.969 107.322C134.749 107.091 134.449 106.953 134.131 106.937H134.134Z" fill="#1D48BB"/>
<path d="M114.848 112.182C117.059 112.182 118.852 110.389 118.852 108.177C118.852 105.966 117.059 104.173 114.848 104.173C112.636 104.173 110.844 105.966 110.844 108.177C110.844 110.389 112.636 112.182 114.848 112.182Z" fill="#6A99E6"/>
<path d="M114.848 110.807C116.3 110.807 117.477 109.629 117.477 108.178C117.477 106.726 116.3 105.548 114.848 105.548C113.396 105.548 112.219 106.726 112.219 108.178C112.219 109.629 113.396 110.807 114.848 110.807Z" fill="#6A99E6"/>
<path d="M89.867 134.36H105.513C105.729 134.36 105.936 134.445 106.089 134.598C106.241 134.751 106.327 134.958 106.327 135.174V136.916C106.327 137.885 106.136 138.844 105.766 139.739C105.395 140.634 104.852 141.447 104.167 142.131C103.482 142.816 102.669 143.36 101.774 143.73C100.88 144.101 99.9206 144.292 98.9521 144.292H96.4281C95.4596 144.292 94.5006 144.101 93.6058 143.73C92.711 143.36 91.8979 142.816 91.2131 142.131C90.5283 141.447 89.985 140.634 89.6144 139.739C89.2437 138.844 89.053 137.885 89.053 136.916V135.174C89.053 135.067 89.074 134.961 89.1149 134.862C89.1558 134.763 89.2158 134.674 89.2914 134.598C89.367 134.522 89.4567 134.462 89.5555 134.422C89.6542 134.381 89.7601 134.36 89.867 134.36Z" fill="#1D48BB"/>
<path d="M98.9291 144.288H96.4281C94.4721 144.288 92.5962 143.511 91.2131 142.128C89.83 140.745 89.053 138.869 89.053 136.913V135.174C89.053 135.067 89.074 134.961 89.1149 134.862C89.1558 134.763 89.2158 134.674 89.2914 134.598C89.367 134.522 89.4567 134.462 89.5555 134.422C89.6542 134.381 89.7601 134.36 89.867 134.36H92.368C92.1527 134.36 91.9465 134.447 91.7945 134.599C91.6426 134.752 91.5573 134.958 91.5573 135.174V136.913C91.5573 138.869 92.3339 140.744 93.7163 142.127C95.0987 143.51 96.9737 144.287 98.9291 144.288Z" fill="#1D48BB"/>
</svg>
