<svg width="207" height="170" viewBox="0 0 207 170" fill="none" xmlns="http://www.w3.org/2000/svg">
<path opacity="0.25" d="M44.97 58.8802C30.7358 61.6578 0.0781641 68.4491 10.4885 102.32C11.9406 107.052 21.3159 123.223 22.3547 128.063C23.5126 133.469 21.1073 139.169 22.2839 144.572C24.3987 154.286 36.1532 157.898 45.979 159.406C57.3462 161.148 69.0634 162.462 80.2519 159.86C86.4214 158.426 92.2707 155.839 98.4105 154.275C123.613 147.923 151.058 159.465 175.825 151.62C183.156 149.304 190.484 144.68 192.796 137.345C194.285 132.568 193.44 127.415 193.414 122.403C193.34 109.673 194.989 92.7511 199.029 80.6801C203.069 68.6092 221.678 21.1074 182.646 13.3257C125.941 2.01802 143.868 39.5749 44.97 58.8802Z" fill="#6A99E6"/>
<path opacity="0.25" d="M44.2626 144.632C35.1443 146.601 25.5046 149.204 19.3165 156.174C18.0394 157.607 16.8927 159.328 16.8629 161.245C16.7847 165.81 22.4255 167.947 26.953 168.561C40.9303 170.423 55.1011 169.838 69.1901 169.261C78.1037 168.889 87.0396 168.517 95.8601 167.21C113.188 164.6 130.375 158.311 147.815 160.21C153.556 160.836 159.175 162.347 164.92 162.924C174.157 163.836 183.471 162.322 191.944 158.531C194.922 157.19 198.068 155.225 198.85 152.045C199.632 148.865 197.711 145.618 195.067 143.775C192.424 141.932 189.17 141.229 186.016 140.562C178.42 138.965 171.867 136.128 164.09 135.636C154.25 135.018 144.393 134.733 134.519 134.78C114.97 134.878 95.4503 136.284 76.0894 138.987C65.4134 140.477 54.8045 142.358 44.2626 144.632Z" fill="#6A99E6"/>
<g opacity="0.24">
<path d="M36.4437 165.992C41.9057 166.491 47.3902 166.703 52.8708 166.737C57.6143 166.759 62.5105 166.614 66.8258 164.644C69.1901 163.564 71.3235 161.956 73.807 161.189C76.1452 160.467 78.6472 160.53 81.0637 160.206C83.4801 159.882 86.0343 159.033 87.4528 157.041L78.1893 153.962C77.0165 153.533 75.8079 153.209 74.5777 152.994C73.0064 152.822 71.4202 152.838 69.8528 153.042C63.9095 153.615 58.0086 154.565 52.1858 155.887C48.9242 156.632 47.2301 158.568 44.4003 159.811C42.1217 160.813 40.7552 160.023 38.4431 159.96C33.0629 159.815 29.2242 165.333 36.4437 165.992Z" fill="#1F1F1F"/>
<path d="M87.3299 141.764C85.9672 141.787 84.1353 142.211 84.1539 143.574C89.0687 145.097 94.3595 143.414 99.5051 143.596C106.423 143.842 112.723 147.435 118.702 150.931C117.545 150.903 116.401 151.183 115.389 151.743C114.376 152.303 113.53 153.123 112.939 154.118C126.413 155.54 139.91 152.104 153.456 151.884C167.634 151.668 181.838 154.997 195.901 153.251C195.656 152.108 194.278 151.672 193.124 151.497C187.207 150.603 181.179 151.009 175.211 150.626C169.242 150.242 163.062 148.946 158.408 145.19C163.239 144.04 167.907 142.289 172.303 139.977C169.511 138.663 166.253 139.065 163.188 139.433C142.853 141.89 122.281 141.615 102.018 138.614C101.318 140.011 103.452 141.049 104.997 141.172L138.953 143.868C142.844 144.177 147.052 144.613 149.911 147.275C134.895 150.157 114.261 147.178 100.116 141.34C97.7924 140.379 101.568 137.672 99.062 137.937C96.1541 138.242 90.8261 141.701 87.3299 141.764Z" fill="#1F1F1F"/>
</g>
<path d="M52.3421 70.4185C52.8244 71.0309 53.0512 71.806 52.9751 72.5818C52.9378 72.9206 52.8485 73.2557 52.8299 73.5945C52.8125 73.7644 52.8303 73.9361 52.8822 74.0988C52.9341 74.2615 53.0189 74.4117 53.1315 74.5402C53.3325 74.7338 53.649 74.8567 53.6974 75.1285C53.7681 75.5008 53.3064 75.7205 53.0346 75.9886C52.793 76.2872 52.6269 76.6397 52.5506 77.0162C52.3819 77.5664 52.1521 78.0959 51.8655 78.5949C51.6163 79.12 51.1888 79.5396 50.6592 79.7789C50.2869 79.9129 49.8326 79.8794 49.4789 80.0842C48.6449 80.5645 48.8422 81.9459 48.0678 82.5379C47.8455 82.6874 47.5897 82.7795 47.3231 82.8059C46.7116 82.8981 46.0865 82.8142 45.521 82.5639C45.2662 82.4661 45.046 82.2951 44.8881 82.0725C44.7402 81.7714 44.687 81.4326 44.7354 81.1007C44.7987 79.9837 44.9514 78.8444 44.9141 77.7162C44.8955 77.113 44.8248 76.5098 44.8322 75.9067C44.8404 75.0119 45.0447 74.1297 45.4306 73.3224C45.8166 72.515 46.3749 71.8022 47.0662 71.2339C47.77 70.6775 48.605 70.3113 49.4911 70.1705C50.3771 70.0297 51.2845 70.1189 52.1262 70.4297L51.7948 70.0574" fill="url(#paint0_linear_30_663)"/>
<path d="M46.3775 73.4905C46.1259 73.5559 45.9087 73.7148 45.7703 73.9348C45.6319 74.1549 45.5827 74.4195 45.6328 74.6745C45.6985 74.9242 45.8424 75.1464 46.0433 75.3085C46.2443 75.4706 46.4918 75.5642 46.7498 75.5756L45.5621 77.858C45.4615 78.0516 45.294 78.2824 45.0818 78.2303C44.8695 78.1782 44.8174 77.8877 44.7765 77.6606C44.6499 76.942 44.0839 76.391 43.7637 75.7357C43.2946 74.7788 43.3914 73.6544 43.4733 72.5932C43.5589 71.6475 43.6557 70.6571 44.1696 69.8566C44.4714 69.4261 44.8426 69.0486 45.2679 68.7396C45.9768 68.1377 46.8346 67.7377 47.7514 67.5817C48.5245 67.527 49.301 67.6231 50.0375 67.8646C50.7766 68.0238 51.4711 68.3456 52.0704 68.8066C52.3647 69.0421 52.5856 69.3569 52.707 69.7138C52.8284 70.0706 52.8452 70.4548 52.7555 70.8209C51.6385 70.9699 49.4678 70.8209 48.5928 71.6363C47.8482 72.34 48.3545 73.8703 47.3902 74.3506C47.353 73.7065 46.9136 73.5724 46.3775 73.4905Z" fill="#25233A"/>
<path d="M55.9127 69.4955C55.5702 69.2908 54.0511 68.6541 53.7048 68.4493C53.6378 67.2429 52.3384 65.668 50.5549 65.0015C49.222 64.5212 46.4816 64.5212 44.3072 66.152C41.8387 68.0137 42.1849 71.1338 42.1589 71.9492C42.1545 72.1237 42.1941 72.2965 42.2741 72.4516C42.354 72.6067 42.4718 72.7392 42.6165 72.8368C42.7613 72.9344 42.9282 72.9939 43.102 73.0099C43.2758 73.0259 43.4509 72.9979 43.611 72.9284C44.2702 72.6305 44.9466 72.3719 45.6364 72.154L48.6151 71.4093C50.7187 70.8508 53.8016 70.0391 55.9127 69.4955Z" fill="#6A99E6"/>
<path d="M55.4586 69.2983L46.653 71.5769L49.5571 70.0317L50.3539 69.611L51.7017 69.1419L53.2171 68.6206L53.7049 68.4493L55.4586 69.2983Z" fill="url(#paint1_linear_30_663)"/>
<path d="M46.653 71.8707L44.0206 76.711L43.4174 75.2366L44.2477 73.7808L43.2871 73.0882L44.3073 72.6266L44.97 73.1553L45.2418 72.2803L46.653 71.8707Z" fill="#65657F"/>
<path d="M42.5276 72.7644C42.5276 72.7644 42.9446 72.8724 44.0169 72.3921C44.8768 72.0454 45.7633 71.7689 46.6679 71.5655L50.3688 69.5996C50.3688 69.5996 45.6626 67.2316 42.885 69.9161C42.8701 69.9235 41.7904 71.4091 42.5276 72.7644Z" fill="#6A99E6"/>
<path d="M42.4717 68.8624C42.4717 68.8624 44.486 65.4034 47.7141 65.4146C49.2367 65.4266 50.7055 65.9796 51.8581 66.9746C51.8581 66.9746 46.3104 63.4859 42.4717 68.8624Z" fill="url(#paint2_linear_30_663)"/>
<path d="M42.3971 72.4704C42.3971 72.4704 42.4343 73.0028 43.3242 72.6566C44.2141 72.3103 46.8948 71.5396 46.8948 71.5396L48.1347 70.7949C48.1347 70.7949 42.8886 72.8092 42.3971 72.4704Z" fill="url(#paint3_linear_30_663)"/>
<path d="M43.827 155.868C49.9042 144.229 53.5512 131.475 54.5464 118.382C54.6358 117.191 54.6842 115.91 54.0549 114.893C52.8523 112.942 50.0226 113.058 47.7588 113.404C46.7312 113.568 45.5695 113.825 45.0557 114.726C44.6834 115.392 40.7628 117.805 41.1202 118.483C43.7265 123.401 44.7839 129.708 43.4808 136.265C42.2 142.718 39.899 147.487 38.9756 153.928C39.5006 153.973 43.626 156.248 43.827 155.868Z" fill="#25233A"/>
<path d="M164.208 44.5828H170.81V139.456H164.208V44.5828Z" fill="#6A99E6"/>
<path d="M167.012 44.5828H170.81V139.456H167.012V44.5828Z" fill="url(#paint4_linear_30_663)"/>
<path d="M170.81 64.7779C170.81 64.5694 194.535 72.8835 194.535 72.8835L195.101 81.0338L170.285 72.0532L170.222 64.7742L170.81 64.7779Z" fill="#6A99E6"/>
<path d="M170.218 65.4778C170.218 65.2693 194.535 74.0228 194.535 74.0228L195.101 80.6912L170.285 71.7106L170.218 65.4778Z" fill="url(#paint5_linear_30_663)"/>
<path d="M168.952 66.4014C168.952 66.1929 192.673 74.5071 192.673 74.5071L193.239 82.1361L168.423 73.1555L168.349 66.3828L168.952 66.4014Z" fill="#6A99E6"/>
<path d="M168.36 66.9226C168.36 66.7141 192.673 75.4676 192.673 75.4676L193.239 82.136L168.423 73.1554L168.36 66.9226Z" fill="url(#paint6_linear_30_663)"/>
<path d="M190.477 52.651H197.078V150.417H190.477V52.651Z" fill="#6A99E6"/>
<path d="M191.232 52.651H197.834V150.417H191.232V52.651Z" fill="url(#paint7_linear_30_663)"/>
<path d="M193.113 52.651H194.043V150.417H193.113V52.651Z" fill="#6A99E6"/>
<path d="M193.165 104.23V105.455L193.049 110.895L168.528 102.674L168.487 102.659L168.803 96.2473L193.165 104.23Z" fill="#6A99E6"/>
<path d="M193.049 105.176V111.476L168.528 102.674L168.803 97.1781L193.049 105.176Z" fill="url(#paint8_linear_30_663)"/>
<path d="M95.4951 42.5648H102.097V139.456H95.4951V42.5648Z" fill="#6A99E6"/>
<path d="M96.251 42.5648H102.852V139.456H96.251V42.5648Z" fill="url(#paint9_linear_30_663)"/>
<path d="M99.5536 96.1504H165.05V102.324H99.5536V96.1504Z" fill="#6A99E6"/>
<path d="M99.5536 96.1504H165.05V102.324H99.5536V96.1504Z" fill="url(#paint10_linear_30_663)"/>
<path d="M102.033 96.1504H164.209V96.9956H102.033V96.1504Z" fill="url(#paint11_linear_30_663)"/>
<path d="M99.5536 64.4465H165.05V70.6198H99.5536V64.4465Z" fill="#6A99E6"/>
<path d="M99.5536 64.4465H165.05V70.6198H99.5536V64.4465Z" fill="url(#paint12_linear_30_663)"/>
<path d="M100.41 66.0737H165.906V72.247H100.41V66.0737Z" fill="#6A99E6"/>
<path d="M99.5536 65.2174H165.05V72.247H99.5536V65.2174Z" fill="url(#paint13_linear_30_663)"/>
<path d="M121.886 73.4421L102.097 66.0737V67.6822L121.886 75.0469V73.4421Z" fill="#6A99E6"/>
<path d="M121.886 73.4421L102.097 66.0737V67.6822L121.886 75.0469V73.4421Z" fill="url(#paint14_linear_30_663)"/>
<path d="M102.097 66.0737H164.209V66.7179H102.097V66.0737Z" fill="#6A99E6"/>
<path d="M102.097 64.0146H164.209V64.6588H102.097V64.0146Z" fill="#6A99E6"/>
<path d="M98.1313 42.5648H102.097V139.456H98.1313V42.5648Z" fill="#6A99E6"/>
<path d="M98.1313 42.5648H102.097V139.456H98.1313V42.5648Z" fill="url(#paint15_linear_30_663)"/>
<path d="M127.553 105.872H193.049V112.045H127.553V105.872Z" fill="#6A99E6"/>
<path d="M127.553 106.725H193.049V112.041H127.553V106.725Z" fill="url(#paint16_linear_30_663)"/>
<path d="M69.2981 89.6978C68.9257 92.2221 67.8869 94.7242 65.9769 96.3997C64.0668 98.0752 61.2148 98.8198 58.8617 97.8257C56.4006 96.7869 54.9969 94.229 53.7831 91.8684C53.757 97.8518 56.1586 103.783 55.3245 109.692C55.2626 110.556 54.9538 111.385 54.4347 112.079C53.7943 112.823 52.8039 113.132 51.8619 113.393C48.5717 114.288 45.2069 114.883 41.809 115.169C41.4813 115.195 41.1574 115.225 40.8297 115.243C40.4351 113.292 40.2712 110.749 40.2415 107.651C40.2415 107.346 40.2415 107.03 40.2415 106.713C40.2415 104.226 40.301 101.411 40.3941 98.2911C40.3941 98.064 40.3941 97.8369 40.3941 97.6098C40.3941 97.5837 40.3941 97.5614 40.3941 97.5353C40.3941 97.5092 40.3941 97.4534 40.3941 97.3864C40.3941 97.2114 40.3941 96.9396 40.4165 96.6417C40.4165 96.5672 40.4165 96.489 40.4165 96.4109C40.4165 96.3327 40.4165 96.2545 40.4165 96.1726C40.4165 96.0236 40.4165 95.8747 40.4165 95.7332C40.4165 95.6513 40.4165 95.5657 40.4165 95.4875C40.4165 95.1152 40.4165 94.8322 40.4165 94.8322C40.481 92.8961 40.543 90.8582 40.6026 88.7185C40.6026 88.443 40.6026 88.1712 40.6212 87.892C40.6315 87.1325 40.7214 86.3763 40.8893 85.6356C41.1548 84.4037 41.8875 83.3227 42.9334 82.6198C43.7154 82.1064 44.5617 81.6983 45.4503 81.406C49.0098 80.1587 53.2432 80.9033 55.7899 83.5841C56.2283 84.0507 56.621 84.5582 56.9628 85.0995C57.5287 85.9633 57.9979 86.8867 58.4893 87.8026C58.9802 88.7775 59.5545 89.708 60.2058 90.5839C60.7941 91.3286 61.6504 92.0397 62.5775 91.8759C63.9105 91.6376 64.2753 89.9249 64.2902 88.5808C64.3171 86.3521 64.1927 84.1242 63.9179 81.9123C65.6204 81.7564 67.3359 81.819 69.0225 82.0985C69.2333 83.463 69.3737 84.8375 69.4433 86.2165C69.5 87.3789 69.4514 88.5441 69.2981 89.6978Z" fill="#6A99E6"/>
<path d="M47.9636 100.514C46.9657 102.141 45.6067 103.515 44.2403 104.833C43.5961 105.447 43.9722 112.857 43.3057 113.452C43.0637 113.668 42.4717 114.398 41.8164 115.165C41.4888 115.191 41.1648 115.221 40.8372 115.24C40.4425 113.289 40.2787 110.746 40.2489 107.648C40.2489 107.342 40.2489 107.026 40.2489 106.71C40.2489 104.222 40.3085 101.408 40.4016 98.2874C40.4016 98.0603 40.4016 97.8332 40.4016 97.6061C40.4016 97.58 40.4016 97.5577 40.4016 97.5316C40.4016 97.5055 40.4016 97.4497 40.4016 97.3827C40.4016 97.2077 40.4016 96.9359 40.4239 96.638C40.4239 96.5635 40.4239 96.4854 40.4239 96.4072C40.4239 96.329 40.4239 96.2508 40.4239 96.1689C40.4239 96.0199 40.4239 95.871 40.4239 95.7295C40.4239 95.6476 40.4239 95.562 40.4239 95.4838C40.4239 95.1115 40.4239 94.8285 40.4239 94.8285C40.8893 94.4226 41.2281 96.1242 41.3138 96.3476C41.3421 96.4216 41.3837 96.4897 41.4366 96.5486C41.5125 96.6085 41.6086 96.6365 41.7047 96.6268C42.1478 96.5559 42.5472 96.319 42.8217 95.9641C43.5515 95.2343 44.2452 94.4723 44.903 93.678L49.304 95.0779C49.5907 96.9694 48.9651 98.8869 47.9636 100.514Z" fill="url(#paint17_linear_30_663)"/>
<path d="M48.7752 94.9588C47.4832 100.261 43.637 105.384 40.2451 106.709C38.8563 107.249 37.5457 107.156 36.5218 106.177C34.6602 104.513 34.2878 98.3581 34.8575 91.4626C34.9216 90.6113 35.0943 89.7717 35.3713 88.9643C35.7672 87.8618 36.3672 86.8437 37.1399 85.9633C38.7295 84.25 40.78 83.0322 43.045 82.4559L43.0115 82.6049L42.4083 85.5388L41.7717 88.6217L40.4946 94.821L39.7499 98.3916C39.7499 98.7975 39.9994 98.6895 40.3791 98.2874C41.4403 97.1704 43.5551 93.7561 44.4487 93.045C44.4754 93.0249 44.5004 93.0024 44.5232 92.978L48.7752 94.9588Z" fill="#6A99E6"/>
<path d="M58.4894 87.8027C58.3665 87.8287 58.2362 87.8436 58.117 87.8622C55.3841 88.1862 52.6252 88.0782 49.8774 88.1378C47.1296 88.1973 44.4711 88.4207 41.768 88.6218L40.6771 88.7074C38.9123 88.8266 37.14 88.9308 35.3677 88.9643C35.7636 87.8619 36.3636 86.8438 37.1362 85.9634C37.3972 85.9036 37.6623 85.8637 37.9293 85.8442C38.942 85.7623 39.9511 85.6878 40.9638 85.6245C41.4441 85.591 41.9244 85.565 42.4047 85.5389C45.6216 85.3527 48.8348 85.2373 52.048 85.1219C53.6863 85.066 55.3246 85.0102 56.9591 85.0995C57.5287 85.9634 57.9979 86.8867 58.4894 87.8027Z" fill="url(#paint18_linear_30_663)"/>
<path d="M51.0948 133.506C55.1234 138.764 58.9324 144.676 59.2861 151.274C59.3531 152.462 59.4871 153.936 60.5967 154.368C61.129 154.516 61.6927 154.507 62.22 154.342L66.3157 153.497L63.7652 142.077C63.1248 139.196 62.4732 136.288 61.2594 133.596C60.4068 131.708 59.2898 129.951 58.3701 128.089C56.0505 123.39 55.0601 118.166 54.0921 113.013C49.3002 113.326 38.417 111.193 41.1275 118.498C43.2796 124.328 48.0305 128.29 51.0948 133.506Z" fill="#1F1F1F"/>
<path d="M62.0153 155.924C62.0892 156.189 62.2159 156.436 62.3876 156.65C62.5641 156.821 62.7808 156.945 63.0176 157.01C63.2545 157.075 63.5039 157.079 63.7429 157.023C64.2196 156.905 64.6728 156.707 65.0833 156.438C65.313 156.33 65.5097 156.163 65.6529 155.954C65.7888 155.591 65.7754 155.19 65.6157 154.837L64.9418 152.703C64.9316 152.639 64.9077 152.578 64.8717 152.524C64.8357 152.47 64.7885 152.425 64.7333 152.391C64.6607 152.377 64.586 152.38 64.5149 152.4C64.4438 152.42 64.3784 152.456 64.3237 152.506C63.5791 153.001 62.4621 153.065 61.777 153.556C61.0919 154.048 61.7509 155.183 62.0153 155.924Z" fill="#1F1F1F"/>
<path d="M39.2622 156.933C39.9311 157.373 40.6702 157.695 41.4478 157.886C41.5689 157.925 41.699 157.925 41.8201 157.886C41.9988 157.823 42.0807 157.622 42.1403 157.443L43.1047 154.68C42.9892 155.015 41.0382 153.325 40.5765 153.496C39.7165 153.835 39.4298 156.155 39.2622 156.933Z" fill="#1F1F1F"/>
<path d="M64.7593 154.96C65.1768 154.811 65.6127 154.719 66.055 154.688C67.2948 154.658 68.4788 155.57 69.6852 155.287C69.9974 155.179 70.3157 155.088 70.6383 155.016C71.0223 155.001 71.3986 155.125 71.6987 155.365C71.9988 155.605 72.2026 155.945 72.2729 156.322C72.3302 156.702 72.2992 157.089 72.1823 157.455C72.0654 157.821 71.8658 158.154 71.599 158.43C71.0584 158.976 70.4174 159.412 69.7112 159.714C68.2608 160.427 66.7061 160.905 65.1055 161.129C64.703 161.21 64.2866 161.187 63.8954 161.062C63.5764 160.917 63.2968 160.697 63.08 160.422C62.3056 159.536 61.4269 157.979 61.5647 156.743C61.7099 155.436 63.7205 155.28 64.7593 154.96Z" fill="#1F1F1F"/>
<path d="M42.6244 157.309C42.7996 157.358 42.9638 157.441 43.1084 157.551C43.2703 157.733 43.3875 157.949 43.451 158.184C43.8724 159.297 44.5973 160.27 45.5435 160.991C45.937 161.235 46.2827 161.547 46.5636 161.915C46.6981 162.102 46.7588 162.333 46.7341 162.562C46.7093 162.792 46.6009 163.004 46.4296 163.158C46.215 163.277 45.97 163.329 45.7259 163.307C44.9185 163.285 44.1135 163.207 43.3169 163.073C41.1537 162.76 38.849 162.384 37.2256 160.921C36.7818 160.574 36.482 160.075 36.3841 159.521C36.3171 158.813 36.7565 158.255 37.1288 157.704C37.3969 157.302 37.7432 156.404 38.1639 156.14C39.1133 155.555 41.6526 156.974 42.6244 157.309Z" fill="#1F1F1F"/>
<path d="M90.1857 78.1818C90.1857 78.1818 90.1597 78.5876 90.1262 79.2094C90.0145 81.153 89.7799 85.189 89.7538 85.2598C89.7278 85.3305 0.465412 89.2139 0.465412 89.2139L0.0930825 84.0013L0 82.9923L5.21262 82.9439L90.1857 78.1818Z" fill="#6A99E6"/>
<path d="M90.1261 79.2094C90.0144 81.1529 89.7798 85.189 89.7538 85.2597C89.7277 85.3305 0.465347 89.2139 0.465347 89.2139L0.0930176 84.0012L5.21255 83.9603L90.1261 79.2094Z" fill="url(#paint19_linear_30_663)"/>
<path d="M90.1857 80.6799C90.1857 80.6799 90.1597 81.0858 90.1262 81.7076C90.0145 83.6549 89.7799 87.6909 89.7538 87.7579C89.7278 87.8249 0.465412 91.7009 0.465412 91.7009L0.0930825 86.4883L0 85.4904L5.21262 85.442L90.1857 80.6799Z" fill="#6A99E6"/>
<path d="M90.1261 81.7076C90.0144 83.6549 89.7798 87.691 89.7538 87.758C89.7277 87.825 0.465347 91.701 0.465347 91.701L0.0930176 86.4884L5.21255 86.4623L90.1261 81.7076Z" fill="url(#paint20_linear_30_663)"/>
<path d="M98.1313 103.794L127.102 112.667L127.084 105.276L98.1313 96.3851V103.794Z" fill="#6A99E6"/>
<path d="M127.102 112.667H127.099L98.1313 103.798V96.3851L127.084 105.276L127.102 112.667Z" fill="url(#paint21_linear_30_663)"/>
<path d="M127.099 112.667L98.1313 103.798V97.2748L127.084 106.166L127.099 112.667Z" fill="url(#paint22_linear_30_663)"/>
<path d="M127.553 74.1678H193.049V80.1475H127.553V74.1678Z" fill="#6A99E6"/>
<path d="M127.553 75.0468H193.049V80.1477H127.553V75.0468Z" fill="url(#paint23_linear_30_663)"/>
<path d="M127.553 75.918H193.049V82.7539H127.553V75.918Z" fill="#6A99E6"/>
<path d="M127.553 76.7969H193.049V82.7244H127.553V76.7969Z" fill="url(#paint24_linear_30_663)"/>
<path d="M47.8033 94.3074C48.7453 93.1681 49.114 92.025 49.5496 90.6102C49.6799 90.1857 49.2666 90.1671 48.7789 91.3288C48.9017 90.5059 49.1512 89.1767 49.1512 88.8602C48.7156 88.4581 48.6188 89.1916 48.4959 89.4895C48.3028 89.8837 48.1301 90.2876 47.9783 90.6996C48.0528 89.9921 48.0454 89.6608 48.1198 88.9533C48.1198 88.823 48.1198 88.6443 47.9895 88.6145C47.3193 88.7485 47.5837 90.3086 46.9879 90.9043C47.0848 90.2528 47.1853 88.7113 46.9879 88.8118C46.6156 88.8118 46.4369 89.2884 46.3699 89.6645L45.9976 91.7756C45.789 91.7123 45.7481 91.4442 45.696 91.232C45.6438 91.0198 45.4167 90.7852 45.2417 90.9155C45.1847 90.9653 45.1476 91.0341 45.1375 91.1091C45.1186 91.3762 45.1387 91.6446 45.197 91.9059C45.2209 92.1609 45.1893 92.418 45.1045 92.6597C45.0197 92.9013 44.8836 93.1217 44.7056 93.3059C45.6912 93.7705 46.7323 94.1071 47.8033 94.3074Z" fill="url(#paint25_linear_30_663)"/>
<path d="M98.1313 96.3851H104.733L121.886 101.058V103.687L98.1313 96.3851Z" fill="url(#paint26_linear_30_663)"/>
<path d="M98.1313 42.5648H99.0622V139.456H98.1313V42.5648Z" fill="#6A99E6"/>
<path d="M121.886 52.5618H128.487V150.328H121.886V52.5618Z" fill="#6A99E6"/>
<path d="M122.642 52.5618H129.243V150.328H122.642V52.5618Z" fill="url(#paint27_linear_30_663)"/>
<path d="M124.522 52.5618H125.453V150.328H124.522V52.5618Z" fill="#6A99E6"/>
<path d="M99.062 66.5504L121.886 75.047V82.7244L99.062 72.813V66.5504Z" fill="#6A99E6"/>
<path d="M99.062 67.533L121.886 76.0332V82.724L99.062 72.8126V67.533Z" fill="url(#paint28_linear_30_663)"/>
<path d="M102.097 66.0737L121.886 73.4421V74.3208L102.097 66.9748V66.0737Z" fill="#6A99E6"/>
<path d="M164.208 2.01807H170.81V60.0345H164.208V2.01807Z" fill="#6A99E6"/>
<path d="M167.012 2.01807H170.81V96.8914H167.012V2.01807Z" fill="url(#paint29_linear_30_663)"/>
<path d="M170.81 22.2096C170.81 22.0048 194.535 30.3189 194.535 30.3189L195.101 38.4581L170.285 29.4775L170.222 22.1947L170.81 22.2096Z" fill="#6A99E6"/>
<path d="M170.218 22.9094C170.218 22.7046 194.535 31.473 194.535 31.473L195.101 38.1265L170.274 29.1497L170.218 22.9094Z" fill="url(#paint30_linear_30_663)"/>
<path d="M168.952 23.8365C168.952 23.628 192.673 31.9421 192.673 31.9421L193.239 39.5749L168.423 30.5943L168.36 23.8365H168.952Z" fill="#6A99E6"/>
<path d="M168.36 24.3578C168.36 24.1493 192.673 32.9214 192.673 32.9214L193.239 39.5749L168.423 30.5943L168.36 24.3578Z" fill="url(#paint31_linear_30_663)"/>
<path d="M190.477 10.0865H197.078V107.853H190.477V10.0865Z" fill="#6A99E6"/>
<path d="M191.232 10.0865H197.834V107.853H191.232V10.0865Z" fill="url(#paint32_linear_30_663)"/>
<path d="M193.113 10.0865H194.043V107.853H193.113V10.0865Z" fill="#6A99E6"/>
<path d="M95.4951 0H102.097V96.8914H95.4951V0Z" fill="#6A99E6"/>
<path d="M96.251 0H102.852V96.8914H96.251V0Z" fill="url(#paint33_linear_30_663)"/>
<path d="M99.5536 21.8817H165.05V28.0549H99.5536V21.8817Z" fill="#6A99E6"/>
<path d="M99.5536 21.8817H165.05V28.0549H99.5536V21.8817Z" fill="url(#paint34_linear_30_663)"/>
<path d="M100.41 23.5089H165.906V29.6821H100.41V23.5089Z" fill="#6A99E6"/>
<path d="M99.5536 22.6526H165.05V29.6822H99.5536V22.6526Z" fill="url(#paint35_linear_30_663)"/>
<path d="M121.886 30.8773L102.097 23.5089V25.1137L121.886 32.4821V30.8773Z" fill="#6A99E6"/>
<path d="M121.886 30.8773L102.097 23.5089V25.1137L121.886 32.4821V30.8773Z" fill="url(#paint36_linear_30_663)"/>
<path d="M102.097 23.5089H164.209V24.153H102.097V23.5089Z" fill="#6A99E6"/>
<path d="M102.097 21.4498H164.209V22.094H102.097V21.4498Z" fill="#6A99E6"/>
<path d="M98.1313 0H102.097V96.8914H98.1313V0Z" fill="#6A99E6"/>
<path d="M98.1313 0H102.097V96.8914H98.1313V0Z" fill="url(#paint37_linear_30_663)"/>
<path d="M127.553 31.6033H193.049V37.5829H127.553V31.6033Z" fill="#6A99E6"/>
<path d="M127.553 32.4822H193.049V37.5831H127.553V32.4822Z" fill="url(#paint38_linear_30_663)"/>
<path d="M127.553 33.3531H193.049V40.1891H127.553V33.3531Z" fill="#6A99E6"/>
<path d="M127.553 34.2318H193.049V40.1593H127.553V34.2318Z" fill="url(#paint39_linear_30_663)"/>
<path d="M98.1313 0H99.0622V96.8914H98.1313V0Z" fill="#6A99E6"/>
<path d="M121.886 9.99707H128.487V107.763H121.886V9.99707Z" fill="#6A99E6"/>
<path d="M122.642 9.99707H129.243V107.763H122.642V9.99707Z" fill="url(#paint40_linear_30_663)"/>
<path d="M124.522 9.99707H125.453V107.763H124.522V9.99707Z" fill="#6A99E6"/>
<path d="M99.062 23.9856L121.886 32.4822V40.1596L99.062 30.2482V23.9856Z" fill="#6A99E6"/>
<path d="M99.062 24.9686L121.886 33.4689V40.1597L99.062 30.2483V24.9686Z" fill="url(#paint41_linear_30_663)"/>
<path d="M102.097 23.5089L121.886 30.8773V31.7523L102.097 24.4062V23.5089Z" fill="#6A99E6"/>
<path d="M65.1316 78.8371C64.936 79.0773 64.7859 79.351 64.6886 79.6451C64.5824 79.871 64.5277 80.1177 64.5284 80.3674C64.5312 80.4922 64.5718 80.6131 64.645 80.7142C64.7181 80.8153 64.8203 80.8918 64.938 80.9333C64.9691 80.9442 65.0022 80.9481 65.035 80.9449C65.0678 80.9417 65.0995 80.9314 65.1279 80.9147C65.1677 80.8836 65.1985 80.8425 65.2173 80.7956C65.4188 80.4134 65.5906 80.0164 65.7311 79.6078C65.5792 79.7978 65.4837 80.0266 65.4553 80.2681C65.427 80.5097 65.4671 80.7544 65.571 80.9743C65.6454 81.1269 65.7906 81.2759 65.9433 81.2386C66.096 81.2014 66.1555 81.0376 66.1965 80.8924C66.2933 80.5498 66.3715 80.2036 66.4348 79.8573C66.3828 80.0801 66.3492 80.3067 66.3343 80.5349C66.3223 80.6523 66.3376 80.7708 66.3789 80.8812C66.4014 80.9359 66.4404 80.9822 66.4905 81.0135C66.5405 81.0449 66.5992 81.0598 66.6582 81.0562C66.7578 81.0277 66.843 80.9625 66.8965 80.8738C67.1603 80.5307 67.3793 80.1553 67.548 79.7568C67.468 80.1269 67.4834 80.5112 67.5927 80.8738C67.6084 80.9294 67.6409 80.9788 67.6858 81.0152C67.8385 81.1307 68.0581 80.9594 68.1475 80.7956C68.3433 80.4852 68.4891 80.146 68.5794 79.7903C68.638 79.6024 68.6508 79.4033 68.6166 79.2094C68.5985 79.1113 68.5544 79.0199 68.4889 78.9446C68.4234 78.8693 68.339 78.8129 68.2443 78.7813C68.15 78.7572 68.0501 78.7711 67.9659 78.8198C67.8817 78.8685 67.82 78.9482 67.7938 79.0419C67.8273 78.7924 67.548 78.5914 67.2986 78.6174C67.0508 78.6676 66.8327 78.8134 66.6917 79.0233C66.6822 78.9073 66.6316 78.7985 66.549 78.7166C66.4664 78.6347 66.3572 78.585 66.2412 78.5765C65.8055 78.5355 65.4891 78.4387 65.1316 78.8371Z" fill="url(#paint42_linear_30_663)"/>
<path d="M69.2979 89.698C68.9256 92.2223 67.8868 94.7244 65.9768 96.3999C64.0667 98.0754 61.2147 98.82 58.8615 97.8259C56.4004 96.7871 54.9968 94.2292 53.783 91.8686C53.783 91.8686 53.9282 89.7575 55.4584 91.016C56.9887 92.2745 59.2562 99.9035 63.9438 95.4467C68.6315 90.9899 68.6501 86.2353 68.6501 86.2353L69.4506 86.2018C69.5057 87.3694 69.4546 88.5396 69.2979 89.698Z" fill="url(#paint43_linear_30_663)"/>
<defs>
<linearGradient id="paint0_linear_30_663" x1="44.7354" y1="76.4577" x2="53.7048" y2="76.4577" gradientUnits="userSpaceOnUse">
<stop stop-color="#ECC4D7"/>
<stop offset="0.42" stop-color="#EFD4D1"/>
<stop offset="1" stop-color="#F2EAC9"/>
</linearGradient>
<linearGradient id="paint1_linear_30_663" x1="50.3055" y1="69.2573" x2="51.8023" y2="71.6179" gradientUnits="userSpaceOnUse">
<stop stop-opacity="0"/>
<stop offset="0.97"/>
</linearGradient>
<linearGradient id="paint2_linear_30_663" x1="47.0811" y1="62.8232" x2="47.3827" y2="81.3987" gradientUnits="userSpaceOnUse">
<stop stop-opacity="0"/>
<stop offset="0.97"/>
</linearGradient>
<linearGradient id="paint3_linear_30_663" x1="45.2268" y1="69.3652" x2="45.3981" y2="79.85" gradientUnits="userSpaceOnUse">
<stop stop-opacity="0"/>
<stop offset="0.97"/>
</linearGradient>
<linearGradient id="paint4_linear_30_663" x1="178.063" y1="91.716" x2="125.237" y2="93.4771" gradientUnits="userSpaceOnUse">
<stop stop-opacity="0"/>
<stop offset="0.97"/>
</linearGradient>
<linearGradient id="paint5_linear_30_663" x1="183.223" y1="62.9683" x2="181.202" y2="98.8423" gradientUnits="userSpaceOnUse">
<stop stop-opacity="0"/>
<stop offset="0.97"/>
</linearGradient>
<linearGradient id="paint6_linear_30_663" x1="190.179" y1="63.9254" x2="158.549" y2="99.6616" gradientUnits="userSpaceOnUse">
<stop stop-opacity="0"/>
<stop offset="0.97"/>
</linearGradient>
<linearGradient id="paint7_linear_30_663" x1="197.342" y1="101.434" x2="179.634" y2="102.085" gradientUnits="userSpaceOnUse">
<stop stop-opacity="0"/>
<stop offset="0.97"/>
</linearGradient>
<linearGradient id="paint8_linear_30_663" x1="168.528" y1="104.327" x2="193.049" y2="104.327" gradientUnits="userSpaceOnUse">
<stop stop-opacity="0"/>
<stop offset="0.97"/>
</linearGradient>
<linearGradient id="paint9_linear_30_663" x1="102.35" y1="90.9081" x2="84.6976" y2="91.5597" gradientUnits="userSpaceOnUse">
<stop stop-opacity="0"/>
<stop offset="0.97"/>
</linearGradient>
<linearGradient id="paint10_linear_30_663" x1="135.286" y1="105.064" x2="120.393" y2="75.985" gradientUnits="userSpaceOnUse">
<stop stop-opacity="0"/>
<stop offset="0.97"/>
</linearGradient>
<linearGradient id="paint11_linear_30_663" x1="133.354" y1="93.6707" x2="132.888" y2="99.4716" gradientUnits="userSpaceOnUse">
<stop stop-opacity="0"/>
<stop offset="0.97"/>
</linearGradient>
<linearGradient id="paint12_linear_30_663" x1="132.3" y1="60.3062" x2="132.3" y2="79.8126" gradientUnits="userSpaceOnUse">
<stop stop-opacity="0"/>
<stop offset="0.97"/>
</linearGradient>
<linearGradient id="paint13_linear_30_663" x1="132.3" y1="60.5" x2="132.3" y2="82.7206" gradientUnits="userSpaceOnUse">
<stop stop-opacity="0"/>
<stop offset="0.97"/>
</linearGradient>
<linearGradient id="paint14_linear_30_663" x1="112.451" y1="67.8162" x2="110.452" y2="79.7271" gradientUnits="userSpaceOnUse">
<stop stop-opacity="0"/>
<stop offset="0.97"/>
</linearGradient>
<linearGradient id="paint15_linear_30_663" x1="97.4723" y1="91.0422" x2="108.076" y2="90.923" gradientUnits="userSpaceOnUse">
<stop stop-opacity="0"/>
<stop offset="0.97"/>
</linearGradient>
<linearGradient id="paint16_linear_30_663" x1="160.232" y1="103.318" x2="160.496" y2="126.827" gradientUnits="userSpaceOnUse">
<stop stop-opacity="0"/>
<stop offset="0.97"/>
</linearGradient>
<linearGradient id="paint17_linear_30_663" x1="50.3539" y1="103.381" x2="12.7896" y2="108.977" gradientUnits="userSpaceOnUse">
<stop stop-opacity="0"/>
<stop offset="0.97"/>
</linearGradient>
<linearGradient id="paint18_linear_30_663" x1="46.1541" y1="84.8724" x2="50.5401" y2="104.833" gradientUnits="userSpaceOnUse">
<stop stop-opacity="0"/>
<stop offset="0.97"/>
</linearGradient>
<linearGradient id="paint19_linear_30_663" x1="44.9662" y1="80.8178" x2="46.2023" y2="93.5664" gradientUnits="userSpaceOnUse">
<stop stop-opacity="0"/>
<stop offset="0.97"/>
</linearGradient>
<linearGradient id="paint20_linear_30_663" x1="44.9662" y1="83.3161" x2="46.2023" y2="96.0647" gradientUnits="userSpaceOnUse">
<stop stop-opacity="0"/>
<stop offset="0.97"/>
</linearGradient>
<linearGradient id="paint21_linear_30_663" x1="113.304" y1="95.9607" x2="111.353" y2="120.259" gradientUnits="userSpaceOnUse">
<stop stop-opacity="0"/>
<stop offset="0.97"/>
</linearGradient>
<linearGradient id="paint22_linear_30_663" x1="113.259" y1="96.9509" x2="111.431" y2="119.7" gradientUnits="userSpaceOnUse">
<stop stop-opacity="0"/>
<stop offset="0.97"/>
</linearGradient>
<linearGradient id="paint23_linear_30_663" x1="160.508" y1="70.3033" x2="159.689" y2="99.3934" gradientUnits="userSpaceOnUse">
<stop stop-opacity="0"/>
<stop offset="0.97"/>
</linearGradient>
<linearGradient id="paint24_linear_30_663" x1="160.53" y1="71.5954" x2="159.614" y2="104.144" gradientUnits="userSpaceOnUse">
<stop stop-opacity="0"/>
<stop offset="0.97"/>
</linearGradient>
<linearGradient id="paint25_linear_30_663" x1="44.6981" y1="91.4591" x2="49.5719" y2="91.4591" gradientUnits="userSpaceOnUse">
<stop stop-color="#ECC4D7"/>
<stop offset="0.42" stop-color="#EFD4D1"/>
<stop offset="1" stop-color="#F2EAC9"/>
</linearGradient>
<linearGradient id="paint26_linear_30_663" x1="110.321" y1="96.1394" x2="109.495" y2="106.453" gradientUnits="userSpaceOnUse">
<stop stop-opacity="0"/>
<stop offset="0.97"/>
</linearGradient>
<linearGradient id="paint27_linear_30_663" x1="128.748" y1="101.341" x2="111.04" y2="101.992" gradientUnits="userSpaceOnUse">
<stop stop-opacity="0"/>
<stop offset="0.97"/>
</linearGradient>
<linearGradient id="paint28_linear_30_663" x1="111.412" y1="68.4638" x2="108.326" y2="90.3679" gradientUnits="userSpaceOnUse">
<stop stop-opacity="0"/>
<stop offset="0.97"/>
</linearGradient>
<linearGradient id="paint29_linear_30_663" x1="178.063" y1="49.1513" x2="125.237" y2="50.9124" gradientUnits="userSpaceOnUse">
<stop stop-opacity="0"/>
<stop offset="0.97"/>
</linearGradient>
<linearGradient id="paint30_linear_30_663" x1="183.223" y1="20.4036" x2="181.202" y2="56.2776" gradientUnits="userSpaceOnUse">
<stop stop-opacity="0"/>
<stop offset="0.97"/>
</linearGradient>
<linearGradient id="paint31_linear_30_663" x1="190.179" y1="21.3568" x2="158.549" y2="57.0967" gradientUnits="userSpaceOnUse">
<stop stop-opacity="0"/>
<stop offset="0.97"/>
</linearGradient>
<linearGradient id="paint32_linear_30_663" x1="197.342" y1="58.8692" x2="179.634" y2="59.5208" gradientUnits="userSpaceOnUse">
<stop stop-opacity="0"/>
<stop offset="0.97"/>
</linearGradient>
<linearGradient id="paint33_linear_30_663" x1="102.35" y1="48.3433" x2="84.6976" y2="48.9949" gradientUnits="userSpaceOnUse">
<stop stop-opacity="0"/>
<stop offset="0.97"/>
</linearGradient>
<linearGradient id="paint34_linear_30_663" x1="132.3" y1="17.7414" x2="132.3" y2="37.2478" gradientUnits="userSpaceOnUse">
<stop stop-opacity="0"/>
<stop offset="0.97"/>
</linearGradient>
<linearGradient id="paint35_linear_30_663" x1="132.3" y1="17.9352" x2="132.3" y2="40.1521" gradientUnits="userSpaceOnUse">
<stop stop-opacity="0"/>
<stop offset="0.97"/>
</linearGradient>
<linearGradient id="paint36_linear_30_663" x1="112.451" y1="25.2514" x2="110.452" y2="37.1622" gradientUnits="userSpaceOnUse">
<stop stop-opacity="0"/>
<stop offset="0.97"/>
</linearGradient>
<linearGradient id="paint37_linear_30_663" x1="97.4723" y1="48.4773" x2="108.076" y2="48.3582" gradientUnits="userSpaceOnUse">
<stop stop-opacity="0"/>
<stop offset="0.97"/>
</linearGradient>
<linearGradient id="paint38_linear_30_663" x1="160.508" y1="27.735" x2="159.689" y2="56.8288" gradientUnits="userSpaceOnUse">
<stop stop-opacity="0"/>
<stop offset="0.97"/>
</linearGradient>
<linearGradient id="paint39_linear_30_663" x1="160.53" y1="29.0304" x2="159.614" y2="61.5794" gradientUnits="userSpaceOnUse">
<stop stop-opacity="0"/>
<stop offset="0.97"/>
</linearGradient>
<linearGradient id="paint40_linear_30_663" x1="128.748" y1="58.776" x2="111.04" y2="59.4276" gradientUnits="userSpaceOnUse">
<stop stop-opacity="0"/>
<stop offset="0.97"/>
</linearGradient>
<linearGradient id="paint41_linear_30_663" x1="111.412" y1="25.8995" x2="108.326" y2="47.8036" gradientUnits="userSpaceOnUse">
<stop stop-opacity="0"/>
<stop offset="0.97"/>
</linearGradient>
<linearGradient id="paint42_linear_30_663" x1="64.5247" y1="79.8871" x2="68.6501" y2="79.8871" gradientUnits="userSpaceOnUse">
<stop stop-color="#ECC4D7"/>
<stop offset="0.42" stop-color="#EFD4D1"/>
<stop offset="1" stop-color="#F2EAC9"/>
</linearGradient>
<linearGradient id="paint43_linear_30_663" x1="61.5535" y1="87.7954" x2="63.1433" y2="119.931" gradientUnits="userSpaceOnUse">
<stop stop-opacity="0"/>
<stop offset="0.49" stop-opacity="0.49"/>
<stop offset="0.97"/>
</linearGradient>
</defs>
</svg>
