<svg width="331" height="331" viewBox="0 0 331 331" fill="none" xmlns="http://www.w3.org/2000/svg">
<path d="M165.5 331C256.903 331 331 256.903 331 165.5C331 74.0969 256.903 0 165.5 0C74.0969 0 0 74.0969 0 165.5C0 256.903 74.0969 331 165.5 331Z" fill="url(#paint0_linear_89_882)"/>
<path d="M249.834 175.892H81.2173L165.523 216.58L249.834 175.892Z" fill="#1D48BB"/>
<path d="M234.492 71.6653H97.6292C95.6393 71.6653 94.0261 73.2784 94.0261 75.2684V238.808C94.0261 240.797 95.6393 242.411 97.6292 242.411H234.492C236.482 242.411 238.095 240.797 238.095 238.808V75.2684C238.095 73.2784 236.482 71.6653 234.492 71.6653Z" fill="#F9FBFE" stroke="#F9FBFE" stroke-width="0.494928" stroke-miterlimit="10"/>
<path d="M200.386 135.135L190.448 98.8516L190.413 98.7626C190.413 98.7626 190.413 98.718 190.379 98.6933C190.366 98.6691 190.351 98.6459 190.334 98.624L190.29 98.5547L190.23 98.4953L190.171 98.4408L190.107 98.3914L190.032 98.3468L189.963 98.3171L189.874 98.2825H189.824H189.73H189.562H189.468H189.419L189.33 98.3171L189.26 98.3468L189.191 98.3914C189.166 98.405 189.143 98.4216 189.122 98.4408L189.062 98.4953L189.008 98.5547C188.989 98.5757 188.972 98.599 188.958 98.624L188.914 98.6933C188.903 98.7158 188.893 98.739 188.884 98.7626C188.87 98.7914 188.859 98.8211 188.849 98.8516L178.901 135.135C178.871 135.243 178.863 135.357 178.877 135.469C178.891 135.58 178.926 135.688 178.982 135.786C179.038 135.884 179.112 135.97 179.201 136.039C179.29 136.108 179.392 136.159 179.5 136.189C179.575 136.209 179.651 136.219 179.728 136.219C179.916 136.218 180.099 136.155 180.248 136.041C180.397 135.927 180.505 135.767 180.554 135.585L189.612 102.351L198.733 135.61C198.783 135.791 198.891 135.951 199.04 136.066C199.189 136.18 199.372 136.243 199.56 136.243C199.637 136.243 199.713 136.233 199.787 136.214C199.899 136.184 200.003 136.132 200.094 136.062C200.185 135.991 200.26 135.902 200.316 135.802C200.372 135.701 200.407 135.59 200.419 135.475C200.431 135.361 200.42 135.245 200.386 135.135Z" fill="#6A99E6"/>
<path d="M178.892 134.962H200.347C200.642 134.962 200.925 135.079 201.134 135.288C201.343 135.497 201.46 135.78 201.46 136.075V138.481C201.46 139.808 201.199 141.122 200.691 142.348C200.183 143.574 199.439 144.688 198.5 145.627C197.562 146.565 196.448 147.31 195.221 147.818C193.995 148.326 192.681 148.587 191.354 148.587H187.889C186.562 148.588 185.247 148.327 184.02 147.819C182.794 147.312 181.679 146.567 180.74 145.629C179.801 144.69 179.056 143.576 178.548 142.349C178.04 141.123 177.778 139.808 177.778 138.481V136.095C177.775 135.947 177.802 135.8 177.857 135.663C177.912 135.525 177.993 135.4 178.097 135.295C178.201 135.189 178.324 135.105 178.461 135.048C178.597 134.991 178.744 134.962 178.892 134.962Z" fill="#1D48BB"/>
<path d="M191.314 148.567H187.884C185.207 148.567 182.64 147.505 180.745 145.614C178.85 143.723 177.783 141.158 177.778 138.481V136.095C177.778 135.8 177.895 135.516 178.104 135.308C178.313 135.099 178.596 134.981 178.891 134.981H182.321C182.026 134.981 181.743 135.099 181.534 135.308C181.325 135.516 181.208 135.8 181.208 136.095V138.481C181.213 141.158 182.28 143.723 184.175 145.614C186.07 147.505 188.637 148.567 191.314 148.567Z" fill="#1D48BB"/>
<path d="M197.753 142.277C198.636 142.277 199.352 141.561 199.352 140.678C199.352 139.795 198.636 139.079 197.753 139.079C196.87 139.079 196.155 139.795 196.155 140.678C196.155 141.561 196.87 142.277 197.753 142.277Z" fill="#6A99E6"/>
<path d="M197.753 138.486C198.379 138.486 198.887 137.978 198.887 137.352C198.887 136.726 198.379 136.219 197.753 136.219C197.127 136.219 196.62 136.726 196.62 137.352C196.62 137.978 197.127 138.486 197.753 138.486Z" fill="#6A99E6"/>
<path d="M153.284 135.135L143.336 98.8516C143.326 98.8211 143.315 98.7914 143.301 98.7626L143.271 98.6933L143.227 98.624L143.177 98.5547L143.118 98.4953C143.102 98.4735 143.082 98.455 143.059 98.4408L142.994 98.3914L142.925 98.3468L142.851 98.3171L142.767 98.2825H142.717H142.623H142.44H142.346H142.296H142.272L142.188 98.3171L142.113 98.3468L142.044 98.3914L141.975 98.4408L141.92 98.4953L141.861 98.5547C141.843 98.5769 141.827 98.6001 141.811 98.624L141.767 98.6933L141.737 98.7626C141.724 98.7914 141.712 98.8211 141.703 98.8516L131.755 135.135C131.695 135.354 131.725 135.588 131.837 135.785C131.949 135.983 132.135 136.128 132.353 136.189C132.428 136.208 132.504 136.218 132.581 136.219C132.769 136.218 132.952 136.155 133.101 136.041C133.25 135.927 133.358 135.767 133.408 135.585L142.504 102.351L151.626 135.61C151.698 135.816 151.845 135.987 152.038 136.088C152.23 136.19 152.454 136.215 152.665 136.157C152.875 136.1 153.056 135.966 153.171 135.78C153.286 135.595 153.326 135.373 153.284 135.16V135.135Z" fill="#6A99E6"/>
<path d="M192.448 97.3818H139.589C138.649 97.3818 137.887 98.143 137.887 99.0819C137.887 100.021 138.649 100.782 139.589 100.782H192.448C193.388 100.782 194.15 100.021 194.15 99.0819C194.15 98.143 193.388 97.3818 192.448 97.3818Z" fill="#1D48BB"/>
<path d="M156.422 149.626H175.6C176.125 149.626 176.629 149.835 177 150.206C177.371 150.578 177.58 151.081 177.58 151.606V155.625H154.437V151.606C154.437 151.346 154.488 151.088 154.588 150.847C154.688 150.607 154.834 150.388 155.019 150.205C155.203 150.021 155.422 149.875 155.663 149.776C155.903 149.677 156.161 149.626 156.422 149.626Z" fill="#6A99E6"/>
<path d="M177.605 153.655V155.635H154.437V151.616C154.437 151.091 154.646 150.587 155.017 150.216C155.388 149.845 155.892 149.636 156.417 149.636H156.575V150.106C156.575 150.574 156.667 151.037 156.846 151.469C157.026 151.901 157.288 152.294 157.619 152.624C157.95 152.955 158.343 153.217 158.775 153.395C159.208 153.574 159.671 153.666 160.139 153.665L177.605 153.655Z" fill="#1D48BB"/>
<path d="M151.349 155.432H180.678C181.317 155.432 181.93 155.686 182.382 156.138C182.834 156.59 183.088 157.203 183.088 157.842V160.109C183.088 160.283 183.054 160.456 182.987 160.617C182.921 160.777 182.823 160.924 182.7 161.047C182.577 161.17 182.431 161.268 182.27 161.334C182.109 161.401 181.936 161.435 181.762 161.435H150.275C150.1 161.435 149.928 161.401 149.767 161.334C149.606 161.268 149.46 161.17 149.337 161.047C149.214 160.924 149.116 160.777 149.049 160.617C148.983 160.456 148.948 160.283 148.948 160.109V157.842C148.948 157.205 149.201 156.593 149.651 156.141C150.101 155.69 150.711 155.435 151.349 155.432Z" fill="#1D48BB"/>
<path d="M183.093 159.97V160.099C183.093 160.273 183.059 160.446 182.992 160.607C182.926 160.768 182.828 160.914 182.705 161.037C182.582 161.16 182.436 161.258 182.275 161.324C182.114 161.391 181.941 161.425 181.767 161.425H150.275C150.1 161.426 149.927 161.392 149.766 161.326C149.604 161.259 149.457 161.162 149.334 161.039C149.21 160.915 149.112 160.769 149.045 160.608C148.978 160.446 148.943 160.274 148.943 160.099V157.837C148.943 157.24 149.164 156.663 149.565 156.219C149.965 155.776 150.517 155.497 151.111 155.437C150.983 155.734 150.918 156.054 150.918 156.377V158.644C150.918 158.996 151.058 159.333 151.307 159.582C151.555 159.831 151.893 159.97 152.245 159.97H183.093Z" fill="#1D48BB"/>
<path d="M166.018 87.9038C166.747 87.9038 167.445 88.1932 167.961 88.7083C168.476 89.2235 168.765 89.9222 168.765 90.6507V149.626H163.276V90.6457C163.278 89.9189 163.567 89.2223 164.081 88.7083C164.595 88.1944 165.291 87.9051 166.018 87.9038Z" fill="#1D48BB"/>
<path d="M163.276 145.736H168.765V149.626H163.276V145.736Z" fill="#1D48BB"/>
<path d="M166.019 104.568C169.05 104.568 171.507 102.111 171.507 99.0793C171.507 96.048 169.05 93.5906 166.019 93.5906C162.987 93.5906 160.53 96.048 160.53 99.0793C160.53 102.111 162.987 104.568 166.019 104.568Z" fill="#6A99E6"/>
<path d="M166.018 102.682C168.008 102.682 169.621 101.069 169.621 99.0794C169.621 97.0895 168.008 95.4763 166.018 95.4763C164.028 95.4763 162.415 97.0895 162.415 99.0794C162.415 101.069 164.028 102.682 166.018 102.682Z" fill="#6A99E6"/>
<path d="M131.784 134.962H153.229C153.525 134.962 153.808 135.079 154.017 135.288C154.226 135.497 154.343 135.78 154.343 136.075V138.481C154.343 141.161 153.278 143.732 151.383 145.627C149.488 147.522 146.917 148.587 144.237 148.587H140.772C138.093 148.586 135.523 147.52 133.629 145.625C131.735 143.73 130.671 141.16 130.671 138.481V136.095C130.668 135.947 130.695 135.8 130.75 135.663C130.804 135.525 130.886 135.4 130.99 135.295C131.093 135.189 131.217 135.105 131.353 135.048C131.49 134.991 131.636 134.962 131.784 134.962Z" fill="#1D48BB"/>
<path d="M144.207 148.567H140.777C138.1 148.567 135.533 147.505 133.638 145.614C131.743 143.723 130.676 141.158 130.671 138.481V136.095C130.671 135.8 130.788 135.516 130.997 135.308C131.206 135.099 131.489 134.981 131.784 134.981H135.214C134.919 134.981 134.636 135.099 134.427 135.308C134.218 135.516 134.101 135.8 134.101 136.095V138.481C134.106 141.158 135.173 143.723 137.068 145.614C138.962 147.505 141.53 148.567 144.207 148.567Z" fill="#1D48BB"/>
<path d="M150.646 142.277C151.529 142.277 152.245 141.561 152.245 140.678C152.245 139.795 151.529 139.079 150.646 139.079C149.763 139.079 149.047 139.795 149.047 140.678C149.047 141.561 149.763 142.277 150.646 142.277Z" fill="#6A99E6"/>
<path d="M150.646 138.486C151.272 138.486 151.779 137.978 151.779 137.352C151.779 136.726 151.272 136.219 150.646 136.219C150.02 136.219 149.513 136.726 149.513 137.352C149.513 137.978 150.02 138.486 150.646 138.486Z" fill="#6A99E6"/>
<path d="M165.523 216.58L81.2173 175.892V257.264H249.834V175.892L165.523 216.58Z" fill="#1D48BB"/>
<path d="M249.839 257.263L170.438 205.756C168.975 204.809 167.269 204.305 165.526 204.305C163.783 204.305 162.077 204.809 160.614 205.756L81.2173 257.263H249.839Z" fill="#3967E0"/>
<path d="M238.095 224.346C240.916 224.346 243.202 222.059 243.202 219.238C243.202 216.417 240.916 214.13 238.095 214.13C235.274 214.13 232.987 216.417 232.987 219.238C232.987 222.059 235.274 224.346 238.095 224.346Z" fill="#F9FBFE"/>
<path d="M238.095 212.22C240.093 212.22 241.713 210.6 241.713 208.602C241.713 206.604 240.093 204.984 238.095 204.984C236.097 204.984 234.477 206.604 234.477 208.602C234.477 210.6 236.097 212.22 238.095 212.22Z" fill="#F9FBFE"/>
<defs>
<linearGradient id="paint0_linear_89_882" x1="20.5" y1="199.674" x2="263.5" y2="445.674" gradientUnits="userSpaceOnUse">
<stop stop-color="#A2BEFF"/>
<stop offset="1" stop-color="#9CBAFF" stop-opacity="0"/>
</linearGradient>
</defs>
</svg>
