<svg width="397" height="74" viewBox="0 0 397 74" fill="none" xmlns="http://www.w3.org/2000/svg">
<g clip-path="url(#clip0_231_43)">
<path d="M77.859 46.4749C82.0115 42.2771 84.9578 34.9371 86.596 30.1157C86.9061 29.2574 87.1528 28.3775 87.3341 27.4831C87.1883 27.4712 87.0418 27.4712 86.8961 27.4831C86.7025 27.5123 86.5131 27.5647 86.332 27.6391C86.1733 27.7102 86.0242 27.8008 85.888 27.9089C85.8744 27.9039 85.8595 27.9039 85.8459 27.9089C85.5639 28.1368 85.3419 28.3767 85.0779 28.5805C76.7429 35.5248 68.3599 42.4211 60.103 49.4613C55.9183 52.9999 52.5854 57.4354 50.3518 62.4382C49.0894 65.2975 48.165 68.2941 47.5975 71.3674C47.5265 71.8176 47.4944 72.273 47.5015 72.7287C47.4959 73.142 47.5381 73.5545 47.6275 73.958L77.859 46.4749Z" fill="#748DC7"/>
<g style="mix-blend-mode:color-burn" opacity="0.75">
<path d="M50.3518 62.4802C58.5548 58.0426 66.6137 53.2632 73.6105 46.4929C78.3451 41.9113 83.8117 35.135 86.596 30.1157C86.9061 29.2574 87.1528 28.3775 87.3341 27.4831C87.1883 27.4712 87.0418 27.4712 86.8961 27.4831C86.7025 27.5123 86.5131 27.5647 86.332 27.6391C86.176 27.723 86.044 27.825 85.888 27.9089C85.8744 27.9039 85.8595 27.9039 85.8459 27.9089C85.5639 28.1368 85.3419 28.3767 85.0779 28.5805C76.7429 35.5248 68.3599 42.4211 60.103 49.4613C55.9133 53.0119 52.58 57.4623 50.3518 62.4802Z" fill="#748DC7"/>
</g>
<g style="mix-blend-mode:overlay">
<path d="M47.6275 74C47.5347 73.6072 47.4924 73.2042 47.5015 72.8006C47.4945 72.333 47.5266 71.8657 47.5975 71.4034C48.165 68.3301 49.0893 65.3334 50.3518 62.4742C58.5548 58.0366 66.6137 53.2572 73.6105 46.4869C78.3451 41.9053 83.8117 35.129 86.596 30.1097" fill="#748DC7"/>
</g>
<path d="M84.8678 22.3379C88.0002 19.3995 90.3405 14.1164 91.6606 10.6442C91.9059 10.0258 92.1065 9.39048 92.2607 8.74327C92.1549 8.73429 92.0485 8.73429 91.9426 8.74327C91.8017 8.76379 91.663 8.79793 91.5286 8.84522C91.4099 8.89029 91.2986 8.95296 91.1986 9.03112C91.1889 9.02743 91.1782 9.02743 91.1686 9.03112C90.9525 9.18703 90.7905 9.35494 90.5685 9.49887C84.3398 14.3922 78.045 19.1896 71.8463 24.083C68.7024 26.5497 66.1568 29.6943 64.3995 33.282C63.4043 35.3321 62.6531 37.4916 62.1612 39.7165C62.0953 40.0424 62.0592 40.3736 62.0532 40.706C62.0343 41.0072 62.0544 41.3095 62.1132 41.6055L84.8678 22.3379Z" fill="#748DC7"/>
<g style="mix-blend-mode:color-burn" opacity="0.75">
<path d="M64.3995 33.282C70.4962 30.2836 76.4909 26.9914 81.8015 22.242C85.3659 19.0217 89.5124 14.2303 91.6906 10.6442C91.9359 10.0258 92.1365 9.39048 92.2907 8.74327C92.1849 8.73429 92.0785 8.73429 91.9727 8.74327C91.8317 8.76379 91.693 8.79793 91.5586 8.84522L91.2286 9.03112C91.2189 9.02743 91.2082 9.02743 91.1986 9.03112C90.9825 9.18703 90.8205 9.35494 90.5985 9.49887C84.3398 14.3922 78.045 19.1896 71.8463 24.083C68.7024 26.5497 66.1568 29.6943 64.3995 33.282Z" fill="#748DC7"/>
</g>
<g style="mix-blend-mode:overlay">
<path d="M62.1132 41.6055C62.0547 41.3196 62.0345 41.0272 62.0532 40.736C62.0588 40.3936 62.095 40.0525 62.1612 39.7165C62.6531 37.4916 63.4043 35.3321 64.3995 33.282C70.4962 30.2836 76.4909 26.9914 81.8015 22.242C85.3659 19.0217 89.5124 14.2303 91.6906 10.6442" fill="#748DC7"/>
</g>
<path d="M81.0094 9.03112C83.1996 7.11815 84.9038 3.59806 85.8759 1.27731C86.0533 0.862287 86.2016 0.435497 86.32 0L86.104 0C86.0081 0.0100934 85.9136 0.0301923 85.8219 0.0599676C85.7383 0.0877783 85.6593 0.128225 85.5879 0.179903C85.4439 0.281848 85.3239 0.395786 85.1859 0.485737C80.8414 3.61605 76.4729 6.72237 72.1644 9.90665C69.9797 11.5018 68.1847 13.5704 66.9137 15.9574C66.1925 17.3224 65.6346 18.7676 65.2515 20.263C65.1986 20.4814 65.1665 20.7043 65.1555 20.9287C65.1327 21.1279 65.1327 21.3291 65.1555 21.5284L81.0094 9.03112Z" fill="#748DC7"/>
<g style="mix-blend-mode:color-burn" opacity="0.75">
<path d="M66.8958 15.9634C71.0962 14.0624 75.2247 11.9875 78.8971 8.89919C81.5324 6.66479 83.8715 4.10348 85.8579 1.27731C86.0414 0.862754 86.1958 0.435955 86.32 0L86.104 0C86.0081 0.0100934 85.9136 0.0301923 85.8219 0.0599676C85.7379 0.0959481 85.6719 0.143922 85.5879 0.179903C85.4439 0.281848 85.3239 0.395786 85.1859 0.485737C80.8414 3.61605 76.4729 6.72237 72.1644 9.90665C69.9725 11.5015 68.1711 13.5723 66.8958 15.9634Z" fill="#748DC7"/>
</g>
<g style="mix-blend-mode:overlay">
<path d="M65.1556 21.5464C65.1313 21.3472 65.1313 21.1458 65.1556 20.9467C65.1635 20.7161 65.1957 20.4869 65.2516 20.263C65.6346 18.7676 66.1926 17.3224 66.9138 15.9574C71.1142 14.0564 75.2427 11.9815 78.9151 8.89319C81.5504 6.65879 83.8895 4.09748 85.876 1.27131" fill="#748DC7"/>
</g>
<path d="M14.4017 46.4749C10.2552 42.2771 7.30885 34.9371 5.66466 30.1157C5.36016 29.2556 5.11358 28.3761 4.92657 27.4831C5.07234 27.471 5.21886 27.471 5.36463 27.4831C5.55822 27.5123 5.7476 27.5647 5.92869 27.6391C6.08927 27.7101 6.24043 27.8008 6.37874 27.9089H6.41475C6.69678 28.1368 6.91881 28.3767 7.18284 28.5806C15.5238 35.5668 23.9068 42.463 32.1697 49.5032C36.3527 53.0435 39.6853 57.4786 41.9209 62.4802C43.1842 65.3386 44.1067 68.3356 44.6692 71.4094C44.7461 71.8589 44.7783 72.3149 44.7652 72.7707C44.7768 73.1842 44.7344 73.5974 44.6392 74L14.4017 46.4749Z" fill="#748DC7"/>
<g style="mix-blend-mode:color-burn" opacity="0.75">
<path d="M41.9209 62.4802C33.7119 58.0426 25.653 53.2632 18.6562 46.4929C13.9276 41.9113 8.45498 35.135 5.67066 30.1157C5.36616 29.2556 5.11958 28.3761 4.93257 27.4831C5.07834 27.471 5.22486 27.471 5.37062 27.4831C5.56422 27.5123 5.7536 27.5647 5.93469 27.6391C6.09071 27.723 6.22872 27.825 6.38474 27.9089H6.42074C6.70278 28.1368 6.9248 28.3767 7.18883 28.5806C15.5238 35.5668 23.9068 42.463 32.1697 49.5032C36.3527 53.0435 39.6853 57.4786 41.9209 62.4802Z" fill="#748DC7"/>
</g>
<g style="mix-blend-mode:overlay">
<path d="M44.6392 74C44.7349 73.6077 44.7773 73.2043 44.7652 72.8006C44.7783 72.3329 44.7461 71.865 44.6692 71.4034C44.1067 68.3296 43.1842 65.3326 41.9209 62.4742C33.7119 58.0366 25.653 53.2572 18.6562 46.4869C13.9276 41.9053 8.45498 35.129 5.67065 30.1097" fill="#748DC7"/>
</g>
<path d="M7.40486 22.3379C4.26649 19.3995 1.93222 14.1164 0.60007 10.6442C0.357439 10.0248 0.15696 9.38971 0 8.74327C0.105822 8.73429 0.212215 8.73429 0.318037 8.74327C0.460836 8.76456 0.601422 8.79868 0.738086 8.84522C0.855517 8.893 0.966414 8.95546 1.06812 9.03112H1.09813C1.30815 9.18703 1.47617 9.35494 1.6982 9.49887C7.93292 14.3922 14.2216 19.1896 20.4024 24.083C23.5534 26.5487 26.1071 29.6931 27.8732 33.282C28.8684 35.3321 29.6196 37.4916 30.1115 39.7165C30.1784 40.0421 30.2126 40.3736 30.2135 40.706C30.2324 41.0072 30.2123 41.3095 30.1535 41.6055L7.40486 22.3379Z" fill="#748DC7"/>
<g style="mix-blend-mode:color-burn" opacity="0.75">
<path d="M27.8732 33.282C21.7765 30.2596 15.7758 26.9854 10.5012 22.242C6.9308 19.0217 2.78432 14.2303 0.600069 10.6442C0.357439 10.0248 0.15696 9.38971 0 8.74327C0.105822 8.73429 0.212215 8.73429 0.318037 8.74327C0.460836 8.76456 0.601422 8.79868 0.738085 8.84522L1.06812 9.03112H1.09813C1.30815 9.18703 1.47617 9.35494 1.6982 9.49887C7.93292 14.3922 14.2216 19.1896 20.4024 24.083C23.5534 26.5487 26.1071 29.6931 27.8732 33.282Z" fill="#748DC7"/>
</g>
<g style="mix-blend-mode:overlay">
<path d="M30.1535 41.6055C30.214 41.3199 30.2362 41.0275 30.2195 40.736C30.2139 40.3936 30.1777 40.0525 30.1115 39.7165C29.6196 37.4916 28.8684 35.3321 27.8732 33.282C21.7765 30.2596 15.7758 26.9854 10.5012 22.242C6.9308 19.0217 2.78432 14.2303 0.600067 10.6442" fill="#748DC7"/>
</g>
<path d="M11.2753 9.03112C9.08505 7.11815 7.38085 3.59806 6.40273 1.27731C6.22039 0.863615 6.06993 0.436603 5.95268 0L6.16871 0C6.26456 0.0100934 6.35908 0.0301923 6.45074 0.0599676C6.53198 0.0891075 6.60874 0.129478 6.67877 0.179903C6.82878 0.281848 6.9428 0.395786 7.08081 0.485737C11.4433 3.59806 15.8118 6.72836 20.1203 9.91264C22.3054 11.509 24.1022 13.5772 25.3769 15.9634C26.093 17.3308 26.6507 18.7753 27.0391 20.269C27.0901 20.4876 27.1202 20.7105 27.1291 20.9347C27.1549 21.1337 27.1549 21.3353 27.1291 21.5344L11.2753 9.03112Z" fill="#748DC7"/>
<g style="mix-blend-mode:color-burn" opacity="0.75">
<path d="M25.3769 15.9634C21.1764 14.0624 17.048 11.9875 13.3755 8.89919C10.7392 6.66232 8.39636 4.1014 6.40273 1.27731C6.22039 0.863615 6.06993 0.436603 5.95268 0L6.16871 0C6.26456 0.0100934 6.35908 0.0301923 6.45074 0.0599676L6.67877 0.179903C6.82878 0.281848 6.9428 0.395786 7.08081 0.485737C11.4433 3.59806 15.8118 6.72836 20.1203 9.91264C22.3054 11.509 24.1022 13.5772 25.3769 15.9634Z" fill="#748DC7"/>
</g>
<g style="mix-blend-mode:overlay">
<path d="M27.1111 21.5464C27.1384 21.3474 27.1384 21.1456 27.1111 20.9467C27.0972 20.7166 27.0651 20.488 27.0151 20.263C26.6267 18.7693 26.069 17.3248 25.3529 15.9574C21.1524 14.0564 17.024 11.9815 13.3515 8.89319C10.724 6.65668 8.38933 4.09785 6.40274 1.27731" fill="#748DC7"/>
</g>
<path d="M136.45 36.4123H130.815L129.057 32.8742H118.61L116.846 36.4123H111.205L121.004 17.7024H126.651L136.45 36.4123ZM127.263 29.2162L123.854 22.3319L120.422 29.2222L127.263 29.2162Z" fill="#F2F2F2"/>
<path d="M160.219 24.089C160.227 24.9657 160.087 25.8376 159.805 26.6676C159.542 27.4421 159.091 28.1389 158.49 28.6945C157.815 29.3071 157.011 29.7618 156.138 30.0258C154.998 30.3682 153.811 30.5281 152.622 30.4995H144.221V36.4123H139.156V17.6964H152.604C153.793 17.6709 154.98 17.8307 156.12 18.1702C156.993 18.4278 157.797 18.8787 158.472 19.4895C159.071 20.0439 159.523 20.7383 159.787 21.5104C160.077 22.339 160.223 23.2111 160.219 24.089ZM155.106 24.1669C155.113 23.7849 155.05 23.4048 154.92 23.0455C154.8 22.7346 154.591 22.4656 154.32 22.272C153.985 22.054 153.609 21.9051 153.216 21.8342C152.662 21.7293 152.099 21.6811 151.536 21.6903H144.203V26.4877H151.512C152.074 26.4944 152.636 26.4543 153.192 26.3677C153.583 26.3132 153.959 26.1785 154.296 25.972C154.565 25.7965 154.774 25.5434 154.896 25.2464C155.026 24.9014 155.091 24.5355 155.088 24.1669H155.106Z" fill="#F2F2F2"/>
<path d="M186.058 17.7024V36.4123H181.005V23.5553L168.367 36.4123H162.889V17.7024H167.917V30.6135L180.567 17.7024H186.058Z" fill="#F2F2F2"/>
<path d="M194.255 24.8086C194.001 25.5106 193.871 26.2511 193.87 26.9974C193.872 27.4938 193.929 27.9885 194.038 28.4726C194.143 28.9584 194.326 29.4241 194.579 29.8519C194.848 30.2999 195.184 30.7043 195.575 31.0512C196.031 31.4403 196.545 31.7559 197.099 31.9867C197.785 32.2684 198.502 32.4697 199.235 32.5864C200.165 32.7447 201.107 32.8189 202.049 32.8083C202.985 32.8174 203.92 32.7533 204.846 32.6164C205.615 32.4929 206.375 32.3166 207.12 32.0887C207.769 31.8865 208.403 31.638 209.016 31.3451C209.586 31.0692 210.132 30.7874 210.648 30.4935V35.0451C209.994 35.3209 209.334 35.5608 208.674 35.7827C208.014 36.0045 207.324 36.1904 206.616 36.3464C205.875 36.5098 205.126 36.63 204.372 36.7062C203.532 36.7929 202.689 36.8349 201.845 36.8321C200.069 36.855 198.297 36.6535 196.571 36.2324C195.09 35.8769 193.686 35.2529 192.43 34.3914C191.296 33.5936 190.368 32.5369 189.724 31.3091C189.053 29.9684 188.722 28.4839 188.758 26.9854C188.725 25.4911 189.056 24.0112 189.724 22.6737C190.368 21.4477 191.296 20.393 192.43 19.5974C193.683 18.7292 195.087 18.1028 196.571 17.7504C198.297 17.3327 200.069 17.1313 201.845 17.1507C202.745 17.1507 203.586 17.1927 204.372 17.2707C205.126 17.3498 205.875 17.4699 206.616 17.6305C207.324 17.7924 208.008 17.9783 208.674 18.1942C209.34 18.41 209.994 18.6619 210.648 18.9318V23.4773C210.132 23.1955 209.586 22.9196 209.016 22.6438C208.403 22.3488 207.769 22.0982 207.12 21.8942C206.375 21.6606 205.615 21.4782 204.846 21.3485C203.921 21.199 202.986 21.1288 202.049 21.1386C200.712 21.1044 199.377 21.2702 198.089 21.6303C197.169 21.8872 196.313 22.3324 195.575 22.9376C194.978 23.4351 194.523 24.0803 194.255 24.8086Z" fill="#F2F2F2"/>
<path d="M234.321 17.6964V21.7682H226.358V36.4123H221.306V21.7682H213.355V17.6964H234.321Z" fill="#F2F2F2"/>
<path d="M256.164 32.4245V36.4123H237.027V17.7024H255.99V21.6903H242.206V24.7846H255.264V28.7844H242.206V32.4365L256.164 32.4245Z" fill="#F2F2F2"/>
<path d="M282.033 17.7024V36.4123H276.974V23.5553L264.337 36.4123H258.858V17.7024H263.887V30.6135L276.536 17.7024H282.033ZM265.861 14.9919V11.4838H275.024V14.9919H265.861Z" fill="#F2F2F2"/>
<path d="M110.155 58.6903L115.951 46.0971H116.87L122.666 58.6903H121.676L116.203 46.6968H116.599L111.145 58.6903H110.155ZM112.279 55.1702L112.585 54.3966H120.128L120.434 55.1702H112.279Z" fill="#F2F2F2"/>
<path d="M124.97 62.1804V49.2994H125.835V52.3757L125.691 54.0128L125.871 55.6499V62.1804H124.97ZM129.687 58.7622C128.901 58.7662 128.128 58.5591 127.449 58.1626C126.777 57.7717 126.228 57.2003 125.865 56.5134C125.477 55.7206 125.276 54.85 125.276 53.9678C125.276 53.0856 125.477 52.215 125.865 51.4222C126.228 50.7369 126.777 50.1676 127.449 49.7791C128.128 49.3826 128.901 49.1755 129.687 49.1794C130.526 49.1626 131.355 49.3696 132.087 49.7791C132.785 50.177 133.358 50.7603 133.743 51.4642C134.138 52.2324 134.344 53.0834 134.344 53.9468C134.344 54.8103 134.138 55.6613 133.743 56.4295C133.364 57.1554 132.785 57.7585 132.075 58.1686C131.346 58.5757 130.522 58.7826 129.687 58.7682V58.7622ZM129.615 57.9527C130.296 57.9619 130.967 57.7901 131.559 57.4549C132.135 57.1278 132.607 56.6458 132.921 56.0637C133.245 55.4198 133.413 54.7093 133.413 53.9888C133.413 53.2683 133.245 52.5578 132.921 51.9139C132.605 51.3348 132.133 50.8552 131.559 50.5287C130.966 50.1956 130.295 50.0259 129.615 50.037C128.938 50.0251 128.271 50.1949 127.683 50.5287C127.115 50.8587 126.648 51.3377 126.333 51.9139C126.005 52.5567 125.835 53.2676 125.835 53.9888C125.835 54.71 126.005 55.4209 126.333 56.0637C126.645 56.6438 127.112 57.1256 127.683 57.4549C128.271 57.7908 128.938 57.9627 129.615 57.9527Z" fill="#F2F2F2"/>
<path d="M137.266 58.6903V49.2994H138.166V57.305L144.863 49.2994H145.655V58.6903H144.755V50.6846L138.058 58.6903H137.266Z" fill="#F2F2F2"/>
<path d="M153.342 58.7682C152.491 58.7877 151.65 58.5808 150.905 58.1686C150.199 57.7681 149.614 57.1836 149.213 56.4775C148.804 55.7172 148.589 54.8673 148.589 54.0038C148.589 53.1403 148.804 52.2904 149.213 51.5301C149.612 50.8243 150.198 50.2415 150.905 49.8451C151.595 49.4819 152.358 49.2783 153.137 49.2492C153.916 49.2202 154.691 49.3664 155.406 49.6771C156.018 49.9601 156.537 50.4089 156.906 50.9724L156.24 51.4582C155.925 50.9961 155.489 50.629 154.98 50.3968C154.407 50.149 153.786 50.0338 153.163 50.0598C152.539 50.0857 151.93 50.2522 151.38 50.5467C150.807 50.8673 150.336 51.3407 150.017 51.9139C149.69 52.5577 149.52 53.2697 149.52 53.9918C149.52 54.714 149.69 55.4259 150.017 56.0697C150.335 56.6504 150.809 57.1304 151.386 57.4549C151.935 57.7521 152.544 57.9206 153.168 57.9476C153.792 57.9746 154.413 57.8594 154.986 57.6109C155.495 57.3786 155.931 57.0115 156.246 56.5494L156.912 57.0352C156.543 57.5987 156.024 58.0475 155.412 58.3305C154.763 58.6273 154.056 58.7768 153.342 58.7682Z" fill="#F2F2F2"/>
<path d="M161.065 58.6903V49.8391L161.317 50.1089H157.392V49.2994H165.619V50.1089H161.695L161.947 49.8391V58.6903H161.065Z" fill="#F2F2F2"/>
<path d="M171.02 58.7682C170.146 58.7897 169.281 58.583 168.512 58.1686C167.801 57.7648 167.216 57.1736 166.819 56.4595C166.404 55.7055 166.197 54.855 166.219 53.9948C166.206 53.1318 166.412 52.2795 166.819 51.5182C167.192 50.8224 167.748 50.2418 168.428 49.8391C169.126 49.4318 169.923 49.2244 170.732 49.2394C171.538 49.2288 172.332 49.436 173.03 49.8391C173.709 50.2323 174.264 50.8078 174.632 51.5002C175.039 52.2615 175.246 53.1138 175.232 53.9768C175.235 54.0148 175.235 54.0528 175.232 54.0908C175.229 54.1367 175.229 54.1828 175.232 54.2287H166.819V53.5091H174.62L174.26 53.8509C174.284 53.1646 174.127 52.4842 173.804 51.878C173.503 51.316 173.058 50.8442 172.514 50.5107C172.097 50.2599 171.634 50.096 171.152 50.0291C170.67 49.9622 170.18 49.9936 169.71 50.1214C169.241 50.2492 168.802 50.4707 168.421 50.7726C168.039 51.0745 167.723 51.4505 167.491 51.878C167.172 52.4923 167.011 53.1766 167.023 53.8689V54.0308C167.011 54.7442 167.189 55.4481 167.539 56.0697C167.871 56.6539 168.359 57.1338 168.95 57.4549C169.58 57.7928 170.286 57.9641 171.002 57.9527C171.58 57.9571 172.153 57.847 172.688 57.6288C173.205 57.4161 173.659 57.0756 174.008 56.6394L174.53 57.2391C174.123 57.7423 173.594 58.1342 172.994 58.3784C172.368 58.6363 171.697 58.7687 171.02 58.7682Z" fill="#F2F2F2"/>
<path d="M178.095 58.6903V49.2993H178.995V57.305L185.692 49.2993H186.484V58.6903H185.583V50.6846L178.887 58.6903H178.095ZM182.253 47.8601C181.601 47.8802 180.963 47.6676 180.453 47.2605C180.215 47.0621 180.024 46.8134 179.895 46.5323C179.765 46.2512 179.699 45.9448 179.703 45.6353H180.369C180.372 45.8601 180.425 46.0813 180.524 46.2833C180.622 46.4854 180.764 46.6634 180.939 46.8047C181.323 47.0849 181.786 47.236 182.262 47.236C182.738 47.236 183.201 47.0849 183.585 46.8047C183.759 46.6639 183.898 46.4854 183.993 46.2828C184.088 46.0803 184.135 45.8589 184.131 45.6353H184.821C184.832 45.9435 184.772 46.25 184.646 46.5315C184.52 46.8131 184.332 47.0623 184.095 47.2605C183.573 47.6738 182.919 47.8865 182.253 47.8601Z" fill="#F2F2F2"/>
<path d="M194.17 54.2647V53.4551H198.797V54.2647H194.17Z" fill="#F2F2F2"/>
<path d="M206.484 58.6903V49.2993H207.384V53.4971H210.264V54.3246H207.384V58.6783L206.484 58.6903ZM214.351 58.7622C213.525 58.7786 212.71 58.5714 211.993 58.1626C211.301 57.7599 210.735 57.1748 210.354 56.4715C209.964 55.7063 209.76 54.8597 209.76 54.0008C209.76 53.1419 209.964 52.2953 210.354 51.5301C210.737 50.8314 211.303 50.2507 211.993 49.851C212.716 49.4499 213.53 49.2394 214.357 49.2394C215.184 49.2394 215.998 49.4499 216.721 49.851C217.406 50.2529 217.968 50.8334 218.347 51.5301C218.738 52.2953 218.941 53.1419 218.941 54.0008C218.941 54.8597 218.738 55.7063 218.347 56.4715C217.971 57.1751 217.408 57.762 216.721 58.1686C216 58.5798 215.181 58.7871 214.351 58.7682V58.7622ZM214.351 57.9707C215.016 57.9822 215.67 57.8077 216.241 57.4669C216.798 57.1269 217.253 56.6419 217.555 56.0637C217.888 55.4258 218.056 54.7143 218.041 53.9948C218.059 53.2726 217.896 52.5574 217.567 51.9139C217.267 51.3389 216.812 50.8592 216.253 50.5287C215.673 50.2063 215.02 50.0371 214.357 50.0371C213.693 50.0371 213.041 50.2063 212.461 50.5287C211.899 50.857 211.441 51.3372 211.14 51.9139C210.81 52.557 210.645 53.2721 210.66 53.9948C210.646 54.7143 210.813 55.4258 211.146 56.0637C211.452 56.6434 211.911 57.1286 212.473 57.4669C213.04 57.8056 213.69 57.98 214.351 57.9707Z" fill="#F2F2F2"/>
<path d="M221.912 62.1804V49.2994H222.776V52.3757L222.626 54.0128L222.806 55.6499V62.1804H221.912ZM226.628 58.7622C225.842 58.7662 225.069 58.5591 224.39 58.1626C223.718 57.7717 223.169 57.2003 222.806 56.5134C222.419 55.7206 222.217 54.85 222.217 53.9678C222.217 53.0856 222.419 52.215 222.806 51.4222C223.169 50.7369 223.718 50.1676 224.39 49.7791C225.069 49.3826 225.842 49.1755 226.628 49.1794C227.467 49.1626 228.296 49.3696 229.029 49.7791C229.726 50.177 230.299 50.7603 230.685 51.4642C231.079 52.2324 231.285 53.0834 231.285 53.9468C231.285 54.8103 231.079 55.6613 230.685 56.4295C230.299 57.1317 229.726 57.713 229.029 58.1086C228.302 58.5388 227.473 58.7665 226.628 58.7682V58.7622ZM226.574 57.9527C227.255 57.9619 227.926 57.7901 228.518 57.4549C229.094 57.1278 229.566 56.6458 229.881 56.0637C230.204 55.4198 230.373 54.7093 230.373 53.9888C230.373 53.2683 230.204 52.5578 229.881 51.9139C229.564 51.3348 229.092 50.8552 228.518 50.5287C227.925 50.1956 227.254 50.0259 226.574 50.037C225.898 50.0251 225.23 50.1949 224.642 50.5287C224.074 50.8587 223.607 51.3377 223.292 51.9139C222.965 52.5567 222.794 53.2676 222.794 53.9888C222.794 54.71 222.965 55.4209 223.292 56.0637C223.604 56.6438 224.071 57.1256 224.642 57.4549C225.23 57.7908 225.897 57.9627 226.574 57.9527Z" fill="#F2F2F2"/>
<path d="M234.207 58.6903V49.2994H235.107V57.305L241.828 49.2994H242.62V58.6903H241.72V50.6846L234.999 58.6903H234.207Z" fill="#F2F2F2"/>
<path d="M244.72 61.029V57.8987H255.324V61.029H254.477V58.6903H245.584V61.029H244.72ZM252.911 58.2585V50.1089H248.015L247.907 52.4477C247.907 53.1073 247.841 53.7609 247.781 54.4146C247.728 55.0204 247.632 55.6217 247.493 56.2136C247.393 56.685 247.208 57.1342 246.947 57.5389C246.848 57.696 246.714 57.8281 246.556 57.9249C246.398 58.0216 246.219 58.0804 246.034 58.0966L245.134 57.8987C245.314 57.9145 245.494 57.8836 245.659 57.809C245.823 57.7344 245.964 57.6186 246.07 57.4729C246.341 57.1006 246.532 56.6757 246.629 56.2256C246.772 55.634 246.872 55.0327 246.929 54.4266C246.995 53.7609 247.043 53.0833 247.079 52.3877L247.205 49.2934H253.805V58.2585H252.911Z" fill="#F2F2F2"/>
<path d="M257.988 58.6903V49.2994H258.888V57.305L265.585 49.2994H266.377V58.6903H265.477V50.6846L258.78 58.6903H257.988Z" fill="#F2F2F2"/>
<path d="M275.991 54.3071C275.427 54.562 274.841 54.7628 274.239 54.9068C273.687 55.0419 273.121 55.1123 272.553 55.1167C271.635 55.1609 270.729 54.8971 269.978 54.3671C269.649 54.0996 269.388 53.7567 269.219 53.3674C269.05 52.978 268.977 52.5537 269.006 52.1303V49H269.906V52.0763C269.885 52.4011 269.943 52.7261 270.074 53.0238C270.206 53.3214 270.408 53.5827 270.663 53.7854C271.249 54.2034 271.959 54.4144 272.679 54.3851C273.219 54.3808 273.756 54.3144 274.281 54.1872C274.875 54.0432 275.454 53.8423 276.009 53.5875L275.991 54.3071ZM275.901 58.3909V49H276.801V58.3909H275.901Z" fill="#F2F2F2"/>
<path d="M284.793 58.7682C283.919 58.7897 283.054 58.583 282.285 58.1686C281.569 57.7725 280.975 57.1876 280.569 56.4775C280.156 55.7226 279.949 54.8727 279.968 54.0128C279.952 53.1494 280.159 52.2965 280.569 51.5361C280.94 50.8392 281.496 50.2581 282.177 49.8571C282.878 49.4619 283.67 49.2543 284.475 49.2543C285.28 49.2543 286.072 49.4619 286.773 49.8571C287.452 50.2503 288.007 50.8258 288.375 51.5182C288.785 52.2785 288.992 53.1315 288.975 53.9948C288.978 54.0327 288.978 54.0708 288.975 54.1088C288.969 54.1545 288.969 54.2009 288.975 54.2467H280.617V53.5091H288.417L288.057 53.8509C288.078 53.1649 287.921 52.4852 287.601 51.878C287.3 51.316 286.855 50.8442 286.311 50.5107C285.894 50.2599 285.431 50.096 284.949 50.0291C284.467 49.9622 283.977 49.9936 283.507 50.1214C283.038 50.2492 282.599 50.4707 282.218 50.7726C281.837 51.0745 281.52 51.4505 281.289 51.878C280.969 52.4923 280.808 53.1766 280.821 53.8689V54.0308C280.809 54.7434 280.985 55.4465 281.331 56.0697C281.666 56.653 282.156 57.1324 282.747 57.4549C283.377 57.7928 284.084 57.9641 284.799 57.9527C285.375 57.9571 285.946 57.847 286.479 57.6288C286.999 57.4179 287.455 57.0772 287.805 56.6394L288.327 57.2391C287.918 57.741 287.39 58.1326 286.791 58.3784C286.158 58.6394 285.478 58.7719 284.793 58.7682Z" fill="#F2F2F2"/>
<path d="M295.666 58.7682C294.815 58.7877 293.975 58.5808 293.23 58.1686C292.523 57.7681 291.939 57.1836 291.538 56.4775C291.128 55.7172 290.914 54.8673 290.914 54.0038C290.914 53.1403 291.128 52.2904 291.538 51.5301C291.937 50.8243 292.522 50.2415 293.23 49.8451C293.92 49.4819 294.682 49.2783 295.461 49.2492C296.24 49.2202 297.016 49.3664 297.731 49.6771C298.342 49.9601 298.862 50.4089 299.231 50.9724L298.565 51.4582C298.249 50.9961 297.814 50.629 297.304 50.3968C296.732 50.149 296.111 50.0338 295.487 50.0598C294.864 50.0857 294.254 50.2522 293.704 50.5467C293.127 50.8713 292.653 51.3512 292.336 51.9319C292.009 52.5757 291.838 53.2877 291.838 54.0098C291.838 54.7319 292.009 55.4439 292.336 56.0877C292.653 56.6684 293.127 57.1483 293.704 57.4729C294.253 57.7701 294.862 57.9385 295.486 57.9656C296.11 57.9926 296.732 57.8774 297.304 57.6288C297.814 57.3966 298.249 57.0295 298.565 56.5674L299.231 57.0532C298.862 57.6167 298.342 58.0655 297.731 58.3485C297.082 58.6383 296.377 58.7816 295.666 58.7682Z" fill="#F2F2F2"/>
<path d="M301.895 58.6903V49.2994H302.795V58.6903H301.895ZM302.495 54.3366V53.563H305.435V54.3366H302.495ZM305.591 54.0848L304.775 53.9708L308.628 49.3293H309.636L305.591 54.0848ZM308.814 58.6903L304.793 53.9708L305.549 53.5391L309.906 58.6663L308.814 58.6903Z" fill="#F2F2F2"/>
<path d="M312.12 58.6903V49.2994H313.02V57.305L319.717 49.2994H320.509V58.6903H319.609V50.6846L312.912 58.6903H312.12Z" fill="#F2F2F2"/>
<path d="M328.286 58.7682C327.41 58.7896 326.544 58.5829 325.772 58.1686C325.046 57.771 324.445 57.1792 324.038 56.4595C323.618 55.6986 323.411 54.8391 323.437 53.9708C323.424 53.1078 323.631 52.2555 324.038 51.4942C324.413 50.798 324.971 50.2175 325.652 49.8151C326.353 49.4199 327.145 49.2124 327.95 49.2124C328.755 49.2124 329.547 49.4199 330.248 49.8151C330.923 50.2117 331.474 50.7892 331.838 51.4822C332.247 52.2471 332.454 53.1037 332.438 53.9708C332.438 54.0068 332.438 54.0428 332.438 54.0848C332.432 54.1305 332.432 54.1769 332.438 54.2227H324.11V53.5091H331.91L331.55 53.8509C331.572 53.1641 331.413 52.4837 331.088 51.878C330.789 51.3168 330.346 50.845 329.804 50.5107C329.389 50.2555 328.925 50.0882 328.442 50.019C327.959 49.9498 327.467 49.9801 326.997 50.1083C326.526 50.2364 326.087 50.4595 325.706 50.7639C325.325 51.0682 325.01 51.4474 324.782 51.878C324.462 52.4923 324.301 53.1766 324.314 53.8689V54.0308C324.302 54.7434 324.478 55.4465 324.824 56.0697C325.157 56.6547 325.647 57.1347 326.24 57.4549C326.87 57.7928 327.577 57.9641 328.292 57.9527C328.868 57.9571 329.439 57.847 329.972 57.6288C330.491 57.4162 330.947 57.0758 331.298 56.6394L331.82 57.2391C331.411 57.741 330.883 58.1326 330.284 58.3784C329.65 58.6388 328.971 58.7712 328.286 58.7682Z" fill="#F2F2F2"/>
<path d="M339.879 62.2523C339.47 62.2532 339.063 62.1801 338.679 62.0365C338.319 61.9103 337.991 61.7054 337.719 61.4368L338.169 60.7532C338.388 60.9908 338.654 61.1806 338.949 61.3109C339.256 61.4353 339.585 61.4965 339.915 61.4908C340.324 61.4977 340.725 61.3714 341.056 61.131C341.47 60.7775 341.79 60.326 341.986 59.8177L342.64 58.3485L342.766 58.1865L346.744 49.2994H347.662L342.862 59.9676C342.66 60.4593 342.382 60.9165 342.04 61.3229C341.778 61.6305 341.45 61.8746 341.08 62.0365C340.698 62.1898 340.29 62.2632 339.879 62.2523ZM342.598 58.9241L338.241 49.2994H339.195L343.156 58.1326L342.598 58.9241Z" fill="#F2F2F2"/>
<path d="M353.345 58.7682C352.492 58.7868 351.65 58.5799 350.903 58.1686C350.205 57.7588 349.63 57.1684 349.24 56.4595C348.834 55.6981 348.622 54.8486 348.622 53.9858C348.622 53.123 348.834 52.2735 349.24 51.5122C349.64 50.8063 350.225 50.2235 350.933 49.8271C351.681 49.4181 352.522 49.2114 353.375 49.2274C354.085 49.2175 354.787 49.365 355.433 49.6592C356.038 49.9507 356.55 50.4056 356.909 50.9724L356.243 51.4582C355.928 50.9961 355.492 50.629 354.983 50.3968C354.41 50.1499 353.789 50.0351 353.166 50.0611C352.542 50.087 351.933 50.253 351.383 50.5467C350.806 50.8713 350.332 51.3512 350.015 51.9319C349.691 52.5768 349.522 53.2883 349.522 54.0098C349.522 54.7313 349.691 55.4428 350.015 56.0877C350.332 56.6684 350.806 57.1483 351.383 57.4729C351.932 57.7692 352.541 57.9372 353.165 57.9642C353.789 57.9912 354.41 57.8766 354.983 57.6288C355.492 57.3966 355.928 57.0295 356.243 56.5674L356.909 57.0532C356.539 57.6176 356.017 58.0664 355.403 58.3485C354.757 58.6385 354.054 58.7819 353.345 58.7682Z" fill="#F2F2F2"/>
<path d="M357.341 58.6543L357.431 57.8807L357.653 57.9227C357.723 57.9302 357.794 57.9302 357.863 57.9227C358.05 57.9267 358.235 57.887 358.404 57.8068C358.573 57.7267 358.721 57.6082 358.836 57.4609C359.103 57.0944 359.289 56.6754 359.382 56.2316C359.517 55.6578 359.607 55.0743 359.652 54.4865C359.706 53.8389 359.754 53.1793 359.79 52.5076L359.952 49.2694H366.552V58.6903H365.652V49.8211L365.904 50.1089H360.54L360.774 49.8031L360.642 52.6096C360.594 53.4091 360.528 54.1887 360.444 54.9483C360.374 55.6175 360.248 56.2795 360.066 56.9272C359.937 57.4297 359.69 57.8943 359.346 58.2825C359.192 58.4452 359.006 58.5737 358.799 58.6595C358.592 58.7452 358.369 58.7864 358.146 58.7802C358.021 58.7798 357.896 58.7678 357.773 58.7442L357.341 58.6543Z" fill="#F2F2F2"/>
<path d="M370.321 62.2523C369.911 62.2532 369.505 62.1801 369.121 62.0365C368.76 61.9103 368.432 61.7054 368.161 61.4368L368.611 60.7532C368.83 60.9908 369.095 61.1806 369.391 61.3109C369.697 61.4353 370.026 61.4965 370.357 61.4908C370.766 61.4977 371.166 61.3714 371.497 61.131C371.912 60.7775 372.231 60.326 372.427 59.8177L373.075 58.3784L373.201 58.2165L377.18 49.3293H378.098L373.243 59.9676C373.041 60.4593 372.764 60.9165 372.421 61.3229C372.16 61.6305 371.831 61.8746 371.461 62.0365C371.099 62.1819 370.711 62.2552 370.321 62.2523ZM373.039 58.9241L368.683 49.2994H369.643L373.603 58.1326L373.039 58.9241Z" fill="#F2F2F2"/>
<path d="M380.258 58.6903V49.2994H386.685V50.1089H380.906L381.158 49.857V58.6903H380.258Z" fill="#F2F2F2"/>
<path d="M388.611 58.6903V49.2994H389.511V57.305L396.208 49.2994H397V58.6903H396.1V50.6846L389.403 58.6903H388.611Z" fill="#F2F2F2"/>
</g>
<defs>
<clipPath id="clip0_231_43">
<rect width="397" height="74" fill="white"/>
</clipPath>
</defs>
</svg>
