<svg width="336" height="64" viewBox="0 0 336 64" fill="none" xmlns="http://www.w3.org/2000/svg">
<g clip-path="url(#clip0_112_142)">
<path d="M65.8958 40.426C69.4103 36.8523 71.9039 30.6033 73.2904 26.4986C73.5528 25.7679 73.7616 25.0188 73.9151 24.2574C73.7917 24.2472 73.6677 24.2472 73.5443 24.2574C73.3805 24.2822 73.2202 24.3268 73.0669 24.3901C72.9326 24.4507 72.8064 24.5278 72.6911 24.6199C72.6797 24.6155 72.667 24.6155 72.6556 24.6199C72.4169 24.8139 72.229 25.0181 72.0055 25.1916C64.9512 31.1036 57.8563 36.9748 50.8681 42.9685C47.3264 45.9811 44.5056 49.7573 42.6152 54.0164C41.5467 56.4506 40.7644 59.0018 40.2841 61.6183C40.224 62.0016 40.1968 62.3893 40.2028 62.7772C40.198 63.1291 40.2338 63.4803 40.3095 63.8238L65.8958 40.426Z" fill="#748DC7"/>
<g style="mix-blend-mode:color-burn" opacity="0.75">
<path d="M42.6151 54.0522C49.5577 50.2742 56.3783 46.2053 62.3 40.4413C66.3071 36.5408 70.9338 30.7718 73.2903 26.4986C73.5527 25.7679 73.7615 25.0188 73.915 24.2574C73.7916 24.2472 73.6676 24.2472 73.5442 24.2574C73.3804 24.2822 73.2201 24.3268 73.0668 24.3901C72.9348 24.4616 72.8231 24.5484 72.691 24.6199C72.6796 24.6155 72.6669 24.6155 72.6555 24.6199C72.4168 24.8139 72.2289 25.0181 72.0054 25.1916C64.9511 31.1036 57.8562 36.9748 50.868 42.9685C47.322 45.9914 44.5009 49.7802 42.6151 54.0522Z" fill="#748DC7"/>
</g>
<g style="mix-blend-mode:overlay">
<path d="M40.3095 63.8596C40.2309 63.5251 40.1951 63.182 40.2028 62.8385C40.1969 62.4404 40.2241 62.0425 40.2841 61.6489C40.7643 59.0325 41.5467 56.4813 42.6152 54.0471C49.5577 50.2691 56.3784 46.2002 62.3001 40.4362C66.3072 36.5357 70.9339 30.7667 73.2904 26.4935" fill="#748DC7"/>
</g>
<path d="M71.8276 19.877C74.4787 17.3754 76.4594 12.8775 77.5767 9.92155C77.7843 9.39501 77.9541 8.85415 78.0846 8.30315C77.995 8.2955 77.905 8.2955 77.8154 8.30315C77.6961 8.32062 77.5787 8.34969 77.465 8.38995C77.3645 8.42832 77.2703 8.48167 77.1856 8.54821C77.1775 8.54507 77.1684 8.54507 77.1602 8.54821C76.9774 8.68095 76.8403 8.8239 76.6524 8.94643C71.3807 13.1124 66.0532 17.1967 60.8069 21.3626C58.1461 23.4627 55.9916 26.1398 54.5043 29.1942C53.662 30.9396 53.0262 32.7781 52.6099 34.6723C52.5542 34.9497 52.5236 35.2317 52.5185 35.5147C52.5025 35.7711 52.5196 36.0285 52.5693 36.2805L71.8276 19.877Z" fill="#748DC7"/>
<g style="mix-blend-mode:color-burn" opacity="0.75">
<path d="M54.5043 29.1942C59.6642 26.6416 64.7378 23.8387 69.2324 19.7953C72.2492 17.0537 75.7585 12.9745 77.6021 9.92155C77.8097 9.39501 77.9794 8.85415 78.1099 8.30315C78.0204 8.2955 77.9303 8.2955 77.8408 8.30315C77.7215 8.32062 77.6041 8.34969 77.4903 8.38995L77.211 8.54821C77.2028 8.54507 77.1938 8.54507 77.1856 8.54821C77.0028 8.68095 76.8657 8.8239 76.6778 8.94643C71.3807 13.1124 66.0532 17.1967 60.8069 21.3626C58.1461 23.4627 55.9916 26.1398 54.5043 29.1942Z" fill="#748DC7"/>
</g>
<g style="mix-blend-mode:overlay">
<path d="M52.5693 36.2805C52.5198 36.0371 52.5027 35.7881 52.5185 35.5402C52.5233 35.2487 52.5539 34.9583 52.61 34.6723C53.0263 32.7781 53.662 30.9396 54.5043 29.1942C59.6642 26.6416 64.7378 23.8387 69.2325 19.7953C72.2492 17.0537 75.7586 12.9746 77.6021 9.92155" fill="#748DC7"/>
</g>
<path d="M68.5621 8.54821C70.4158 6.91961 71.8582 3.92277 72.6809 1.947C72.831 1.59367 72.9566 1.23032 73.0568 0.859558L72.8739 0.859558C72.7928 0.868151 72.7128 0.885262 72.6352 0.910612C72.5644 0.934288 72.4976 0.968723 72.4372 1.01272C72.3153 1.09951 72.2137 1.19651 72.0969 1.27309C68.4199 3.93808 64.7226 6.58265 61.0762 9.29359C59.2272 10.6517 57.708 12.4127 56.6323 14.4449C56.0219 15.607 55.5497 16.8374 55.2255 18.1105C55.1807 18.2964 55.1535 18.4862 55.1443 18.6772C55.1249 18.8468 55.1249 19.0181 55.1443 19.1878L68.5621 8.54821Z" fill="#748DC7"/>
<g style="mix-blend-mode:color-burn" opacity="0.75">
<path d="M56.6171 14.45C60.1721 12.8316 63.6663 11.0651 66.7744 8.43589C69.0047 6.53364 70.9845 4.35306 72.6657 1.947C72.8209 1.59406 72.9516 1.23071 73.0567 0.859558L72.8739 0.859558C72.7928 0.868151 72.7128 0.885262 72.6352 0.910612C72.5641 0.941244 72.5082 0.982086 72.4371 1.01272C72.3152 1.09951 72.2137 1.19651 72.0969 1.27309C68.4199 3.93808 64.7226 6.58265 61.0761 9.29359C59.2211 10.6514 57.6965 12.4144 56.6171 14.45Z" fill="#748DC7"/>
</g>
<g style="mix-blend-mode:overlay">
<path d="M55.1442 19.2031C55.1236 19.0335 55.1236 18.8621 55.1442 18.6925C55.1509 18.4962 55.1782 18.3011 55.2255 18.1105C55.5497 16.8374 56.0219 15.607 56.6323 14.4449C60.1873 12.8265 63.6815 11.06 66.7896 8.43079C69.0199 6.52853 70.9997 4.34796 72.6809 1.94189" fill="#748DC7"/>
</g>
<path d="M12.1888 40.426C8.67942 36.8523 6.18579 30.6033 4.79423 26.4986C4.53652 25.7664 4.32783 25.0176 4.16956 24.2574C4.29292 24.2471 4.41693 24.2471 4.5403 24.2574C4.70415 24.2822 4.86443 24.3268 5.01769 24.3901C5.1536 24.4506 5.28153 24.5278 5.39859 24.6199H5.42907C5.66776 24.8139 5.85568 25.0181 6.07914 25.1917C13.1385 31.1394 20.2334 37.0105 27.2267 43.0042C30.767 46.0182 33.5875 49.794 35.4796 54.0522C36.5488 56.4857 37.3295 59.0372 37.8056 61.654C37.8707 62.0367 37.8979 62.4249 37.8869 62.813C37.8967 63.165 37.8608 63.5168 37.7802 63.8596L12.1888 40.426Z" fill="#748DC7"/>
<g style="mix-blend-mode:color-burn" opacity="0.75">
<path d="M35.4796 54.0522C28.532 50.2742 21.7113 46.2053 15.7896 40.4413C11.7876 36.5408 7.15586 30.7718 4.79936 26.4986C4.54165 25.7664 4.33295 25.0176 4.17468 24.2574C4.29805 24.2471 4.42206 24.2471 4.54543 24.2574C4.70927 24.2822 4.86956 24.3268 5.02282 24.3901C5.15487 24.4616 5.27168 24.5484 5.40372 24.6199H5.43419C5.67289 24.8139 5.8608 25.0181 6.08426 25.1917C13.1385 31.1394 20.2334 37.0105 27.2268 43.0042C30.767 46.0182 33.5876 49.794 35.4796 54.0522Z" fill="#748DC7"/>
</g>
<g style="mix-blend-mode:overlay">
<path d="M37.7802 63.8596C37.8613 63.5256 37.8971 63.1821 37.8869 62.8385C37.8979 62.4403 37.8707 62.0419 37.8056 61.6489C37.3295 59.0321 36.5488 56.4806 35.4796 54.0471C28.532 50.2691 21.7113 46.2002 15.7896 40.4362C11.7876 36.5357 7.15582 30.7667 4.79932 26.4935" fill="#748DC7"/>
</g>
<path d="M6.26708 19.877C3.61094 17.3754 1.63533 12.8775 0.507867 9.92155C0.302518 9.3942 0.132843 8.8535 0 8.30315C0.0895619 8.2955 0.179608 8.2955 0.26917 8.30315C0.390028 8.32128 0.509012 8.35033 0.624677 8.38995C0.724065 8.43062 0.817922 8.4838 0.904004 8.54821H0.929397C1.10715 8.68095 1.24935 8.8239 1.43726 8.94643C6.71401 13.1124 12.0365 17.1967 17.2675 21.3626C19.9343 23.4618 22.0957 26.1388 23.5904 29.1942C24.4327 30.9396 25.0685 32.7781 25.4848 34.6723C25.5414 34.9495 25.5703 35.2317 25.5711 35.5147C25.5871 35.7711 25.5701 36.0285 25.5203 36.2805L6.26708 19.877Z" fill="#748DC7"/>
<g style="mix-blend-mode:color-burn" opacity="0.75">
<path d="M23.5904 29.1942C18.4305 26.6211 13.3518 23.8336 8.88768 19.7953C5.86587 17.0537 2.3565 12.9745 0.507867 9.92155C0.302518 9.3942 0.132843 8.8535 0 8.30315C0.0895619 8.2955 0.179608 8.2955 0.26917 8.30315C0.390028 8.32128 0.509012 8.35033 0.624677 8.38995L0.904004 8.54821H0.929397C1.10715 8.68095 1.24935 8.8239 1.43726 8.94643C6.71401 13.1124 12.0365 17.1967 17.2675 21.3626C19.9344 23.4618 22.0957 26.1388 23.5904 29.1942Z" fill="#748DC7"/>
</g>
<g style="mix-blend-mode:overlay">
<path d="M25.5203 36.2805C25.5715 36.0373 25.5903 35.7883 25.5762 35.5402C25.5714 35.2487 25.5408 34.9583 25.4847 34.6723C25.0684 32.7781 24.4326 30.9396 23.5904 29.1942C18.4305 26.6211 13.3518 23.8336 8.88763 19.7953C5.86581 17.0537 2.35645 12.9746 0.507812 9.92155" fill="#748DC7"/>
</g>
<path d="M9.54287 8.54821C7.68915 6.91961 6.24681 3.92277 5.41899 1.947C5.26466 1.5948 5.13732 1.23126 5.03809 0.859558L5.22092 0.859558C5.30204 0.868151 5.38204 0.885262 5.45962 0.910612C5.52837 0.93542 5.59334 0.96979 5.65261 1.01272C5.77957 1.09951 5.87607 1.19651 5.99288 1.27309C9.68507 3.92277 13.3823 6.58776 17.0288 9.2987C18.8782 10.6577 20.3989 12.4185 21.4778 14.45C22.0838 15.6141 22.5558 16.844 22.8845 18.1156C22.9277 18.3017 22.9532 18.4914 22.9607 18.6823C22.9825 18.8518 22.9825 19.0234 22.9607 19.1929L9.54287 8.54821Z" fill="#748DC7"/>
<g style="mix-blend-mode:color-burn" opacity="0.75">
<path d="M21.4778 14.45C17.9227 12.8316 14.4286 11.0651 11.3204 8.43589C9.08914 6.53154 7.10628 4.35129 5.41899 1.947C5.26466 1.5948 5.13732 1.23126 5.03809 0.859558L5.22092 0.859558C5.30204 0.868151 5.38204 0.885262 5.45962 0.910612L5.65261 1.01272C5.77957 1.09951 5.87607 1.19651 5.99288 1.27309C9.68507 3.92277 13.3823 6.58776 17.0288 9.2987C18.8782 10.6577 20.3989 12.4185 21.4778 14.45Z" fill="#748DC7"/>
</g>
<g style="mix-blend-mode:overlay">
<path d="M22.9454 19.2031C22.9685 19.0337 22.9685 18.8619 22.9454 18.6925C22.9337 18.4967 22.9065 18.3021 22.8642 18.1105C22.5354 16.8389 22.0635 15.609 21.4574 14.4449C17.9023 12.8265 14.4082 11.06 11.3 8.43079C9.07626 6.52673 7.10029 4.34827 5.41895 1.947" fill="#748DC7"/>
</g>
<path d="M115.484 31.8592H110.715L109.227 28.8471H100.385L98.892 31.8592H94.118L102.412 15.9305H107.191L115.484 31.8592ZM107.709 25.7328L104.824 19.8719L101.919 25.7379L107.709 25.7328Z" fill="#F9FBFE"/>
<path d="M135.601 21.3677C135.608 22.1142 135.49 22.8565 135.25 23.563C135.028 24.2224 134.646 24.8156 134.138 25.2886C133.566 25.8102 132.886 26.1973 132.147 26.422C131.182 26.7135 130.178 26.8497 129.171 26.8254H122.061V31.8592H117.774V15.9254H129.156C130.163 15.9037 131.167 16.0398 132.132 16.3288C132.871 16.5481 133.551 16.932 134.123 17.4519C134.629 17.924 135.012 18.5152 135.235 19.1724C135.48 19.8779 135.604 20.6204 135.601 21.3677ZM131.274 21.4341C131.28 21.1089 131.226 20.7852 131.116 20.4794C131.015 20.2147 130.838 19.9857 130.608 19.8208C130.325 19.6352 130.007 19.5085 129.674 19.4481C129.205 19.3589 128.729 19.3178 128.252 19.3256H122.046V23.4099H128.231C128.707 23.4156 129.183 23.3814 129.653 23.3078C129.985 23.2614 130.303 23.1466 130.588 22.9708C130.816 22.8214 130.993 22.606 131.096 22.3531C131.206 22.0594 131.261 21.7479 131.258 21.4341H131.274Z" fill="#F9FBFE"/>
<path d="M157.469 15.9305V31.8592H153.193V20.9134L142.497 31.8592H137.861V15.9305H142.117V26.9224L152.822 15.9305H157.469Z" fill="#F9FBFE"/>
<path d="M164.407 21.9804C164.192 22.578 164.082 23.2085 164.082 23.8438C164.083 24.2664 164.131 24.6876 164.224 25.0998C164.313 25.5133 164.467 25.9098 164.681 26.274C164.909 26.6554 165.193 26.9997 165.524 27.2951C165.91 27.6263 166.346 27.895 166.814 28.0915C167.395 28.3313 168.002 28.5027 168.622 28.602C169.409 28.7368 170.206 28.8 171.004 28.7909C171.796 28.7987 172.587 28.7441 173.371 28.6275C174.022 28.5225 174.665 28.3723 175.295 28.1783C175.845 28.0062 176.381 27.7946 176.9 27.5452C177.383 27.3104 177.845 27.0704 178.282 26.8203V30.6952C177.728 30.9301 177.169 31.1343 176.611 31.3232C176.052 31.5121 175.468 31.6703 174.869 31.8031C174.242 31.9423 173.608 32.0445 172.969 32.1094C172.259 32.1832 171.545 32.219 170.831 32.2166C169.328 32.2361 167.828 32.0646 166.367 31.7061C165.114 31.4034 163.926 30.8722 162.863 30.1387C161.903 29.4595 161.117 28.5599 160.572 27.5146C160.005 26.3732 159.724 25.1093 159.755 23.8336C159.727 22.5614 160.007 21.3015 160.572 20.1629C161.118 19.1191 161.903 18.2212 162.863 17.5438C163.923 16.8047 165.112 16.2714 166.367 15.9714C167.828 15.6158 169.328 15.4443 170.831 15.4609C171.593 15.4609 172.304 15.4966 172.969 15.563C173.608 15.6303 174.242 15.7326 174.869 15.8693C175.468 16.0071 176.047 16.1654 176.611 16.3492C177.175 16.533 177.728 16.7474 178.282 16.9771V20.847C177.845 20.607 177.383 20.3722 176.9 20.1374C176.381 19.8862 175.845 19.6729 175.295 19.4992C174.665 19.3003 174.022 19.1451 173.371 19.0346C172.588 18.9074 171.796 18.8476 171.004 18.8559C169.872 18.8269 168.742 18.968 167.652 19.2745C166.874 19.4933 166.149 19.8723 165.524 20.3875C165.019 20.8111 164.634 21.3603 164.407 21.9804Z" fill="#F9FBFE"/>
<path d="M198.317 15.9254V19.392H191.578V31.8592H187.302V19.392H180.572V15.9254H198.317Z" fill="#F9FBFE"/>
<path d="M216.804 28.4642V31.8592H200.608V15.9305H216.656V19.3256H204.991V21.96H216.042V25.3652H204.991V28.4744L216.804 28.4642Z" fill="#F9FBFE"/>
<path d="M238.698 15.9305V31.8592H234.416V20.9134L223.721 31.8592H219.084V15.9305H223.34V26.9224L234.046 15.9305H238.698ZM225.011 13.6229V10.6363H232.766V13.6229H225.011Z" fill="#F9FBFE"/>
<path d="M93.2292 50.8256L98.1352 40.1044H98.9123L103.818 50.8256H102.98L98.3485 40.6149H98.6837L94.0672 50.8256H93.2292ZM95.0271 47.8288L95.2861 47.1702H101.67L101.929 47.8288H95.0271Z" fill="#676767"/>
<path d="M105.768 53.7969V42.8306H106.5V45.4497L106.378 46.8434L106.53 48.2372V53.7969H105.768ZM109.76 50.8869C109.095 50.8902 108.441 50.7139 107.866 50.3763C107.297 50.0435 106.833 49.5571 106.525 48.9724C106.198 48.2974 106.027 47.5562 106.027 46.8051C106.027 46.0541 106.198 45.3129 106.525 44.6379C106.833 44.0545 107.297 43.5698 107.866 43.2391C108.441 42.9015 109.095 42.7252 109.76 42.7285C110.471 42.7142 111.172 42.8904 111.792 43.2391C112.382 43.5778 112.867 44.0744 113.193 44.6737C113.527 45.3277 113.701 46.0522 113.701 46.7873C113.701 47.5223 113.527 48.2468 113.193 48.9009C112.872 49.5189 112.382 50.0323 111.782 50.3814C111.164 50.7281 110.467 50.9042 109.76 50.892V50.8869ZM109.699 50.1976C110.275 50.2055 110.843 50.0593 111.345 49.7739C111.832 49.4954 112.231 49.085 112.498 48.5895C112.772 48.0413 112.914 47.4364 112.914 46.823C112.914 46.2096 112.772 45.6047 112.498 45.0566C112.23 44.5635 111.831 44.1552 111.345 43.8772C110.843 43.5936 110.275 43.4492 109.699 43.4586C109.127 43.4485 108.562 43.5931 108.064 43.8772C107.583 44.1581 107.188 44.566 106.921 45.0566C106.644 45.6038 106.5 46.209 106.5 46.823C106.5 47.437 106.644 48.0422 106.921 48.5895C107.185 49.0833 107.581 49.4935 108.064 49.7739C108.562 50.0598 109.126 50.2062 109.699 50.1976Z" fill="#676767"/>
<path d="M116.175 50.8256V42.8306H116.936V49.6463L122.604 42.8306H123.275V50.8256H122.513V44.01L116.845 50.8256H116.175Z" fill="#676767"/>
<path d="M129.78 50.892C129.06 50.9086 128.349 50.7324 127.718 50.3814C127.12 50.0405 126.625 49.5429 126.286 48.9417C125.94 48.2945 125.758 47.5709 125.758 46.8358C125.758 46.1007 125.94 45.377 126.286 44.7298C126.624 44.1289 127.12 43.6327 127.718 43.2952C128.302 42.9861 128.947 42.8127 129.607 42.7879C130.266 42.7632 130.922 42.8877 131.527 43.1523C132.045 43.3932 132.485 43.7752 132.797 44.255L132.233 44.6686C131.967 44.2751 131.598 43.9626 131.167 43.7649C130.682 43.554 130.156 43.4559 129.629 43.478C129.101 43.5001 128.585 43.6418 128.12 43.8925C127.635 44.1655 127.236 44.5685 126.967 45.0566C126.69 45.6047 126.545 46.2108 126.545 46.8256C126.545 47.4404 126.69 48.0465 126.967 48.5946C127.235 49.0889 127.637 49.4976 128.125 49.7739C128.589 50.0269 129.105 50.1703 129.633 50.1933C130.161 50.2163 130.687 50.1183 131.172 49.9066C131.603 49.7089 131.972 49.3964 132.238 49.003L132.802 49.4165C132.49 49.8963 132.05 50.2784 131.533 50.5193C130.983 50.772 130.385 50.8993 129.78 50.892Z" fill="#676767"/>
<path d="M136.317 50.8256V43.2901L136.53 43.5198H133.208V42.8306H140.171V43.5198H136.85L137.063 43.2901V50.8256H136.317Z" fill="#676767"/>
<path d="M144.742 50.892C144.003 50.9102 143.271 50.7342 142.619 50.3814C142.018 50.0377 141.523 49.5343 141.187 48.9264C140.836 48.2845 140.661 47.5604 140.679 46.8281C140.668 46.0934 140.843 45.3678 141.187 44.7196C141.503 44.1273 141.973 43.633 142.548 43.2901C143.139 42.9434 143.814 42.7668 144.498 42.7796C145.181 42.7706 145.853 42.947 146.444 43.2901C147.018 43.6249 147.488 44.1148 147.8 44.7043C148.144 45.3525 148.319 46.0781 148.307 46.8128C148.31 46.8451 148.31 46.8775 148.307 46.9098C148.305 46.9489 148.305 46.9881 148.307 47.0272H141.187V46.4146H147.789L147.485 46.7056C147.505 46.1213 147.372 45.542 147.099 45.0259C146.844 44.5475 146.467 44.1458 146.007 43.8619C145.654 43.6484 145.262 43.5089 144.854 43.4519C144.446 43.395 144.031 43.4217 143.634 43.5305C143.237 43.6393 142.865 43.8279 142.543 44.0849C142.22 44.3419 141.952 44.6621 141.756 45.0259C141.486 45.5489 141.349 46.1316 141.36 46.7209V46.8587C141.349 47.4661 141.5 48.0654 141.797 48.5946C142.077 49.0919 142.491 49.5005 142.99 49.7739C143.524 50.0615 144.122 50.2074 144.727 50.1976C145.216 50.2014 145.701 50.1077 146.154 49.922C146.592 49.7408 146.976 49.4509 147.271 49.0796L147.713 49.5901C147.368 50.0185 146.921 50.3522 146.413 50.5601C145.883 50.7796 145.315 50.8924 144.742 50.892Z" fill="#676767"/>
<path d="M150.73 50.8256V42.8306H151.492V49.6463L157.16 42.8306H157.83V50.8256H157.068V44.01L151.4 50.8256H150.73ZM154.249 41.6053C153.697 41.6224 153.157 41.4414 152.726 41.0948C152.525 40.926 152.363 40.7142 152.253 40.4749C152.144 40.2356 152.088 39.9748 152.091 39.7113H152.655C152.658 39.9026 152.703 40.0909 152.786 40.2629C152.869 40.435 152.989 40.5865 153.137 40.7068C153.462 40.9454 153.855 41.0739 154.257 41.0739C154.66 41.0739 155.052 40.9454 155.377 40.7068C155.524 40.5869 155.642 40.435 155.722 40.2625C155.802 40.0901 155.842 39.9016 155.839 39.7113H156.423C156.432 39.9736 156.381 40.2345 156.275 40.4742C156.168 40.7139 156.009 40.9261 155.809 41.0948C155.366 41.4467 154.813 41.6278 154.249 41.6053Z" fill="#676767"/>
<path d="M164.336 47.0579V46.3686H168.251V47.0579H164.336Z" fill="#676767"/>
<path d="M174.757 50.8256V42.8306H175.519V46.4044H177.957V47.1089H175.519V50.8154L174.757 50.8256ZM181.415 50.8869C180.716 50.9008 180.027 50.7244 179.419 50.3763C178.835 50.0335 178.355 49.5354 178.033 48.9366C177.703 48.2852 177.53 47.5644 177.53 46.8332C177.53 46.102 177.703 45.3812 178.033 44.7298C178.357 44.135 178.836 43.6406 179.419 43.3003C180.032 42.9588 180.72 42.7796 181.42 42.7796C182.121 42.7796 182.809 42.9588 183.421 43.3003C184.001 43.6425 184.476 44.1366 184.798 44.7298C185.128 45.3812 185.3 46.102 185.3 46.8332C185.3 47.5644 185.128 48.2852 184.798 48.9366C184.479 49.5356 184.003 50.0353 183.421 50.3814C182.811 50.7315 182.118 50.908 181.415 50.892V50.8869ZM181.415 50.213C181.978 50.2228 182.532 50.0742 183.015 49.7841C183.487 49.4946 183.871 49.0817 184.127 48.5895C184.409 48.0463 184.551 47.4406 184.539 46.8281C184.553 46.2133 184.416 45.6044 184.138 45.0566C183.883 44.567 183.498 44.1586 183.025 43.8772C182.534 43.6027 181.982 43.4587 181.42 43.4587C180.859 43.4587 180.306 43.6027 179.816 43.8772C179.34 44.1568 178.953 44.5655 178.698 45.0566C178.419 45.604 178.279 46.2128 178.292 46.8281C178.28 47.4406 178.421 48.0463 178.703 48.5895C178.962 49.083 179.35 49.4961 179.826 49.7841C180.306 50.0724 180.856 50.2209 181.415 50.213Z" fill="#676767"/>
<path d="M187.814 53.7969V42.8306H188.546V45.4497L188.419 46.8434L188.571 48.2372V53.7969H187.814ZM191.806 50.8869C191.141 50.8902 190.487 50.7139 189.912 50.3763C189.343 50.0435 188.879 49.5571 188.571 48.9724C188.244 48.2974 188.073 47.5562 188.073 46.8051C188.073 46.0541 188.244 45.3129 188.571 44.6379C188.879 44.0545 189.343 43.5698 189.912 43.2391C190.487 42.9015 191.141 42.7252 191.806 42.7285C192.517 42.7142 193.218 42.8904 193.838 43.2391C194.428 43.5778 194.913 44.0744 195.239 44.6737C195.573 45.3277 195.747 46.0522 195.747 46.7873C195.747 47.5223 195.573 48.2468 195.239 48.9009C194.913 49.4987 194.428 49.9936 193.838 50.3304C193.223 50.6966 192.521 50.8905 191.806 50.892V50.8869ZM191.761 50.1976C192.337 50.2055 192.905 50.0593 193.406 49.7739C193.893 49.4954 194.293 49.085 194.559 48.5895C194.833 48.0413 194.975 47.4364 194.975 46.823C194.975 46.2096 194.833 45.6047 194.559 45.0566C194.291 44.5635 193.892 44.1552 193.406 43.8772C192.904 43.5936 192.336 43.4492 191.761 43.4586C191.188 43.4485 190.623 43.5931 190.125 43.8772C189.644 44.1581 189.249 44.566 188.983 45.0566C188.706 45.6038 188.561 46.209 188.561 46.823C188.561 47.437 188.706 48.0422 188.983 48.5895C189.247 49.0833 189.642 49.4935 190.125 49.7739C190.623 50.0598 191.188 50.2062 191.761 50.1976Z" fill="#676767"/>
<path d="M198.221 50.8256V42.8306H198.982V49.6463L204.671 42.8306H205.341V50.8256H204.579V44.01L198.891 50.8256H198.221Z" fill="#676767"/>
<path d="M207.119 52.8167V50.1517H216.093V52.8167H215.376V50.8256H207.85V52.8167H207.119ZM214.051 50.458V43.5198H209.907L209.815 45.5109C209.815 46.0725 209.759 46.629 209.709 47.1855C209.664 47.7013 209.583 48.2132 209.465 48.7171C209.381 49.1184 209.224 49.5008 209.003 49.8454C208.919 49.9791 208.806 50.0916 208.672 50.174C208.538 50.2564 208.387 50.3064 208.231 50.3202L207.469 50.1517C207.621 50.1652 207.774 50.1388 207.913 50.0753C208.051 50.0118 208.172 49.9132 208.261 49.7892C208.491 49.4722 208.651 49.1105 208.734 48.7273C208.855 48.2236 208.94 47.7118 208.987 47.1957C209.043 46.629 209.084 46.0521 209.114 45.4599L209.221 42.8255H214.808V50.458H214.051Z" fill="#676767"/>
<path d="M218.347 50.8256V42.8306H219.109V49.6463L224.777 42.8306H225.447V50.8256H224.686V44.01L219.018 50.8256H218.347Z" fill="#676767"/>
<path d="M233.766 47.3489C233.289 47.5659 232.793 47.7368 232.283 47.8594C231.816 47.9744 231.337 48.0344 230.856 48.0381C230.08 48.0758 229.313 47.8511 228.678 47.3999C228.398 47.1722 228.178 46.8802 228.035 46.5488C227.892 46.2173 227.83 45.8561 227.855 45.4956V42.8306H228.617V45.4497C228.598 45.7261 228.647 46.0029 228.759 46.2563C228.87 46.5097 229.041 46.7321 229.256 46.9047C229.753 47.2606 230.353 47.4402 230.963 47.4152C231.42 47.4115 231.875 47.355 232.319 47.2468C232.822 47.1241 233.311 46.9532 233.782 46.7362L233.766 47.3489ZM233.69 50.8256V42.8306H234.452V50.8256H233.69Z" fill="#676767"/>
<path d="M241.034 50.892C240.294 50.9102 239.562 50.7342 238.911 50.3814C238.305 50.0443 237.802 49.5462 237.459 48.9417C237.109 48.2991 236.934 47.5755 236.951 46.8434C236.937 46.1084 237.112 45.3822 237.459 44.7349C237.773 44.1415 238.244 43.6469 238.82 43.3054C239.413 42.969 240.083 42.7923 240.765 42.7923C241.446 42.7923 242.116 42.969 242.71 43.3054C243.284 43.6402 243.754 44.1301 244.066 44.7196C244.413 45.3669 244.587 46.0931 244.574 46.8281C244.576 46.8604 244.576 46.8928 244.574 46.9251C244.569 46.9641 244.569 47.0036 244.574 47.0425H237.499V46.4146H244.101L243.797 46.7056C243.814 46.1216 243.681 45.5429 243.411 45.0259C243.156 44.5475 242.779 44.1458 242.319 43.8619C241.966 43.6484 241.574 43.5089 241.166 43.4519C240.758 43.395 240.343 43.4217 239.946 43.5305C239.549 43.6393 239.177 43.8279 238.855 44.0849C238.532 44.3419 238.264 44.662 238.068 45.0259C237.798 45.5489 237.661 46.1316 237.672 46.7209V46.8587C237.662 47.4654 237.811 48.064 238.103 48.5946C238.387 49.0911 238.802 49.4993 239.302 49.7739C239.836 50.0615 240.434 50.2074 241.039 50.1976C241.526 50.2014 242.01 50.1077 242.461 49.9219C242.901 49.7423 243.287 49.4523 243.583 49.0796L244.025 49.5901C243.679 50.0174 243.232 50.3509 242.725 50.5601C242.189 50.7823 241.614 50.8951 241.034 50.892Z" fill="#676767"/>
<path d="M250.236 50.892C249.516 50.9086 248.805 50.7324 248.175 50.3814C247.576 50.0405 247.082 49.5429 246.742 48.9417C246.396 48.2945 246.214 47.5709 246.214 46.8358C246.214 46.1007 246.396 45.377 246.742 44.7298C247.08 44.1289 247.576 43.6327 248.175 43.2952C248.758 42.9861 249.404 42.8127 250.063 42.7879C250.722 42.7632 251.379 42.8877 251.984 43.1523C252.501 43.3932 252.941 43.7752 253.253 44.255L252.689 44.6686C252.423 44.2751 252.054 43.9626 251.623 43.7649C251.138 43.554 250.612 43.4559 250.085 43.478C249.557 43.5001 249.041 43.6418 248.576 43.8925C248.088 44.1689 247.686 44.5775 247.418 45.0719C247.141 45.62 246.996 46.2261 246.996 46.8409C246.996 47.4557 247.141 48.0618 247.418 48.6099C247.686 49.1043 248.088 49.5129 248.576 49.7892C249.04 50.0422 249.556 50.1856 250.084 50.2086C250.612 50.2316 251.138 50.1336 251.623 49.922C252.054 49.7242 252.423 49.4117 252.689 49.0183L253.253 49.4318C252.941 49.9116 252.501 50.2937 251.984 50.5346C251.434 50.7813 250.838 50.9033 250.236 50.892Z" fill="#676767"/>
<path d="M255.508 50.8256V42.8306H256.27V50.8256H255.508ZM256.016 47.1191V46.4605H258.504V47.1191H256.016ZM258.637 46.9047L257.946 46.8077L261.206 42.8562H262.06L258.637 46.9047ZM261.364 50.8256L257.961 46.8077L258.601 46.4401L262.288 50.8052L261.364 50.8256Z" fill="#676767"/>
<path d="M264.162 50.8256V42.8306H264.924V49.6463L270.592 42.8306H271.262V50.8256H270.5V44.01L264.832 50.8256H264.162Z" fill="#676767"/>
<path d="M277.844 50.892C277.103 50.9102 276.369 50.7342 275.716 50.3814C275.102 50.043 274.594 49.5391 274.248 48.9264C273.893 48.2786 273.718 47.5469 273.741 46.8077C273.729 46.0729 273.904 45.3474 274.248 44.6992C274.566 44.1065 275.038 43.6123 275.615 43.2697C276.208 42.9333 276.878 42.7566 277.56 42.7566C278.241 42.7566 278.911 42.9333 279.505 43.2697C280.076 43.6074 280.542 44.099 280.851 44.689C281.197 45.3402 281.372 46.0695 281.359 46.8077C281.359 46.8383 281.359 46.869 281.359 46.9047C281.353 46.9437 281.353 46.9831 281.359 47.0221H274.309V46.4146H280.912L280.607 46.7056C280.625 46.1209 280.491 45.5416 280.216 45.0259C279.962 44.5482 279.587 44.1465 279.129 43.8619C278.777 43.6447 278.385 43.5022 277.976 43.4433C277.568 43.3843 277.151 43.4102 276.753 43.5193C276.355 43.6284 275.983 43.8183 275.66 44.0774C275.338 44.3366 275.072 44.6594 274.878 45.0259C274.608 45.5489 274.472 46.1316 274.482 46.7209V46.8587C274.472 47.4654 274.621 48.064 274.914 48.5946C275.196 49.0926 275.611 49.5012 276.112 49.7739C276.646 50.0615 277.244 50.2074 277.849 50.1976C278.337 50.2014 278.82 50.1077 279.271 49.922C279.71 49.741 280.096 49.4511 280.394 49.0796L280.835 49.5901C280.489 50.0174 280.042 50.3509 279.535 50.5601C278.999 50.7817 278.424 50.8945 277.844 50.892Z" fill="#676767"/>
<path d="M287.656 53.8582C287.309 53.8589 286.965 53.7966 286.64 53.6744C286.335 53.5669 286.058 53.3925 285.828 53.1639L286.209 52.5818C286.394 52.7841 286.619 52.9458 286.869 53.0566C287.128 53.1626 287.407 53.2147 287.687 53.2098C288.033 53.2157 288.371 53.1082 288.652 52.9035C289.002 52.6026 289.273 52.2182 289.439 51.7854L289.992 50.5346L290.099 50.3968L293.466 42.8306H294.243L290.18 51.913C290.009 52.3316 289.775 52.7209 289.484 53.0669C289.263 53.3288 288.985 53.5366 288.672 53.6744C288.349 53.8049 288.004 53.8675 287.656 53.8582ZM289.957 51.0247L286.27 42.8306H287.077L290.429 50.3508L289.957 51.0247Z" fill="#676767"/>
<path d="M299.053 50.892C298.331 50.9078 297.618 50.7316 296.986 50.3814C296.395 50.0326 295.909 49.5299 295.579 48.9264C295.235 48.2782 295.055 47.555 295.055 46.8205C295.055 46.0859 295.235 45.3627 295.579 44.7145C295.917 44.1136 296.412 43.6174 297.011 43.2799C297.644 42.9317 298.357 42.7557 299.078 42.7694C299.679 42.7609 300.274 42.8865 300.82 43.1369C301.332 43.3852 301.765 43.7725 302.069 44.255L301.506 44.6685C301.239 44.2751 300.87 43.9626 300.439 43.7649C299.954 43.5547 299.429 43.457 298.901 43.4791C298.373 43.5012 297.858 43.6425 297.392 43.8925C296.904 44.1689 296.502 44.5775 296.234 45.0719C295.96 45.6209 295.817 46.2267 295.817 46.8409C295.817 47.4551 295.96 48.0608 296.234 48.6099C296.502 49.1042 296.904 49.5129 297.392 49.7892C297.857 50.0415 298.373 50.1845 298.9 50.2075C299.428 50.2305 299.954 50.1328 300.439 49.922C300.87 49.7242 301.239 49.4117 301.506 49.0183L302.069 49.4318C301.756 49.9124 301.314 50.2945 300.795 50.5346C300.247 50.7815 299.652 50.9036 299.053 50.892Z" fill="#676767"/>
<path d="M302.435 50.795L302.511 50.1364L302.699 50.1721C302.758 50.1785 302.818 50.1785 302.877 50.1721C303.035 50.1755 303.192 50.1417 303.335 50.0735C303.477 50.0052 303.602 49.9044 303.7 49.779C303.926 49.467 304.083 49.1102 304.162 48.7324C304.276 48.2439 304.353 47.7472 304.39 47.2468C304.436 46.6954 304.477 46.1338 304.507 45.562L304.644 42.8051H310.231V50.8256H309.469V43.2748L309.682 43.5198H305.142L305.34 43.2595L305.228 45.6488C305.188 46.3295 305.132 46.9932 305.061 47.6399C305.002 48.2096 304.895 48.7732 304.741 49.3246C304.632 49.7524 304.423 50.1479 304.131 50.4784C304.001 50.617 303.844 50.7263 303.668 50.7994C303.493 50.8724 303.305 50.9074 303.116 50.9022C303.01 50.9018 302.904 50.8916 302.801 50.8715L302.435 50.795Z" fill="#676767"/>
<path d="M313.42 53.8582C313.073 53.8589 312.729 53.7966 312.404 53.6744C312.099 53.5669 311.822 53.3925 311.592 53.1639L311.973 52.5818C312.158 52.7841 312.383 52.9458 312.633 53.0566C312.893 53.1626 313.171 53.2147 313.451 53.2098C313.797 53.2157 314.136 53.1082 314.416 52.9035C314.767 52.6026 315.037 52.2182 315.203 51.7854L315.751 50.5601L315.858 50.4223L319.225 42.8562H320.002L315.894 51.913C315.723 52.3316 315.488 52.7209 315.198 53.0669C314.976 53.3288 314.698 53.5366 314.385 53.6744C314.079 53.7982 313.751 53.8606 313.42 53.8582ZM315.721 51.0247L312.034 42.8306H312.846L316.198 50.3508L315.721 51.0247Z" fill="#676767"/>
<path d="M321.831 50.8256V42.8306H327.27V43.5198H322.379L322.592 43.3054V50.8256H321.831Z" fill="#676767"/>
<path d="M328.9 50.8256V42.8306H329.662V49.6463L335.33 42.8306H336V50.8256H335.238V44.01L329.57 50.8256H328.9Z" fill="#676767"/>
</g>
<defs>
<clipPath id="clip0_112_142">
<rect width="336" height="63" fill="white" transform="translate(0 0.859558)"/>
<svg width="397" height="74" viewBox="0 0 397 74" fill="none" xmlns="http://www.w3.org/2000/svg">
<g clip-path="url(#clip0_231_43)">
<path d="M77.859 46.4749C82.0114 42.2771 84.9578 34.9371 86.596 30.1157C86.906 29.2574 87.1527 28.3775 87.3341 27.4831C87.1883 27.4712 87.0418 27.4712 86.896 27.4831C86.7024 27.5123 86.513 27.5647 86.3319 27.6391C86.1733 27.7102 86.0241 27.8008 85.8879 27.9089C85.8744 27.9039 85.8594 27.9039 85.8459 27.9089C85.5639 28.1368 85.3418 28.3767 85.0778 28.5805C76.7428 35.5248 68.3599 42.4211 60.1029 49.4613C55.9183 52.9999 52.5853 57.4354 50.3518 62.4382C49.0893 65.2975 48.1649 68.2941 47.5975 71.3674C47.5265 71.8176 47.4944 72.273 47.5014 72.7287C47.4958 73.142 47.5381 73.5545 47.6275 73.958L77.859 46.4749Z" fill="#748DC7"/>
<g style="mix-blend-mode:color-burn" opacity="0.75">
<path d="M50.3518 62.4802C58.5548 58.0426 66.6137 53.2632 73.6105 46.4929C78.345 41.9113 83.8117 35.135 86.596 30.1157C86.906 29.2574 87.1527 28.3775 87.3341 27.4831C87.1883 27.4712 87.0418 27.4712 86.896 27.4831C86.7024 27.5123 86.5131 27.5647 86.332 27.6391C86.176 27.723 86.0439 27.825 85.8879 27.9089C85.8744 27.9039 85.8595 27.9039 85.8459 27.9089C85.5639 28.1368 85.3419 28.3767 85.0778 28.5805C76.7429 35.5248 68.3599 42.4211 60.1029 49.4613C55.9132 53.0119 52.58 57.4623 50.3518 62.4802Z" fill="#748DC7"/>
</g>
<g style="mix-blend-mode:overlay">
<path d="M47.6275 74C47.5347 73.6072 47.4924 73.2042 47.5015 72.8006C47.4945 72.333 47.5266 71.8657 47.5975 71.4034C48.1649 68.3301 49.0893 65.3334 50.3518 62.4742C58.5547 58.0366 66.6137 53.2572 73.6105 46.4869C78.345 41.9053 83.8117 35.129 86.596 30.1097" fill="#748DC7"/>
</g>
<path d="M84.8678 22.3379C88.0001 19.3995 90.3404 14.1164 91.6606 10.6442C91.9059 10.0258 92.1064 9.39048 92.2606 8.74327C92.1548 8.73429 92.0484 8.73429 91.9426 8.74327C91.8016 8.76379 91.6629 8.79793 91.5286 8.84522C91.4098 8.89029 91.2986 8.95296 91.1985 9.03112C91.1889 9.02743 91.1782 9.02743 91.1685 9.03112C90.9525 9.18703 90.7905 9.35494 90.5684 9.49887C84.3397 14.3922 78.045 19.1896 71.8463 24.083C68.7024 26.5497 66.1567 29.6943 64.3994 33.282C63.4042 35.3321 62.653 37.4916 62.1612 39.7165C62.0953 40.0424 62.0591 40.3736 62.0531 40.706C62.0342 41.0072 62.0544 41.3095 62.1132 41.6055L84.8678 22.3379Z" fill="#748DC7"/>
<g style="mix-blend-mode:color-burn" opacity="0.75">
<path d="M64.3994 33.282C70.4961 30.2836 76.4908 26.9914 81.8014 22.242C85.3658 19.0217 89.5123 14.2303 91.6906 10.6442C91.9359 10.0258 92.1364 9.39048 92.2906 8.74327C92.1848 8.73429 92.0784 8.73429 91.9726 8.74327C91.8316 8.76379 91.693 8.79793 91.5586 8.84522L91.2285 9.03112C91.2189 9.02743 91.2082 9.02743 91.1985 9.03112C90.9825 9.18703 90.8205 9.35494 90.5984 9.49887C84.3397 14.3922 78.045 19.1896 71.8463 24.083C68.7024 26.5497 66.1567 29.6943 64.3994 33.282Z" fill="#748DC7"/>
</g>
<g style="mix-blend-mode:overlay">
<path d="M62.1132 41.6055C62.0546 41.3196 62.0344 41.0272 62.0532 40.736C62.0588 40.3936 62.0949 40.0525 62.1612 39.7165C62.653 37.4916 63.4043 35.3321 64.3994 33.282C70.4961 30.2836 76.4908 26.9914 81.8014 22.242C85.3659 19.0217 89.5123 14.2303 91.6906 10.6442" fill="#748DC7"/>
</g>
<path d="M81.0094 9.03112C83.1997 7.11815 84.9039 3.59806 85.876 1.27731C86.0533 0.862287 86.2017 0.435497 86.32 0L86.104 0C86.0082 0.0100934 85.9136 0.0301923 85.822 0.0599676C85.7383 0.0877783 85.6594 0.128225 85.5879 0.179903C85.4439 0.281848 85.3239 0.395786 85.1859 0.485737C80.8414 3.61605 76.4729 6.72237 72.1644 9.90665C69.9798 11.5018 68.1847 13.5704 66.9138 15.9574C66.1926 17.3224 65.6347 18.7676 65.2516 20.263C65.1986 20.4814 65.1665 20.7043 65.1556 20.9287C65.1327 21.1279 65.1327 21.3291 65.1556 21.5284L81.0094 9.03112Z" fill="#748DC7"/>
<g style="mix-blend-mode:color-burn" opacity="0.75">
<path d="M66.8958 15.9634C71.0962 14.0624 75.2247 11.9875 78.8971 8.89919C81.5324 6.66479 83.8715 4.10348 85.8579 1.27731C86.0414 0.862754 86.1958 0.435955 86.32 0L86.104 0C86.0081 0.0100934 85.9136 0.0301923 85.8219 0.0599676C85.7379 0.0959481 85.6719 0.143922 85.5879 0.179903C85.4439 0.281848 85.3239 0.395786 85.1859 0.485737C80.8414 3.61605 76.4729 6.72237 72.1644 9.90665C69.9725 11.5015 68.1711 13.5723 66.8958 15.9634Z" fill="#748DC7"/>
</g>
<g style="mix-blend-mode:overlay">
<path d="M65.1556 21.5464C65.1313 21.3472 65.1313 21.1458 65.1556 20.9467C65.1635 20.7161 65.1957 20.4869 65.2516 20.263C65.6346 18.7676 66.1926 17.3224 66.9138 15.9574C71.1142 14.0564 75.2427 11.9815 78.9151 8.89319C81.5504 6.65879 83.8895 4.09748 85.876 1.27131" fill="#748DC7"/>
</g>
<path d="M14.4016 46.4749C10.2551 42.2771 7.30879 34.9371 5.6646 30.1157C5.3601 29.2556 5.11352 28.3761 4.92651 27.4831C5.07228 27.471 5.2188 27.471 5.36456 27.4831C5.55816 27.5123 5.74754 27.5647 5.92863 27.6391C6.0892 27.7101 6.24037 27.8008 6.37868 27.9089H6.41469C6.69672 28.1368 6.91874 28.3767 7.18278 28.5806C15.5237 35.5668 23.9067 42.463 32.1697 49.5032C36.3527 53.0435 39.6853 57.4786 41.9208 62.4802C43.1842 65.3386 44.1066 68.3356 44.6691 71.4094C44.746 71.8589 44.7782 72.3149 44.7651 72.7707C44.7767 73.1842 44.7344 73.5974 44.6391 74L14.4016 46.4749Z" fill="#748DC7"/>
<g style="mix-blend-mode:color-burn" opacity="0.75">
<path d="M41.9209 62.4802C33.712 58.0426 25.653 53.2632 18.6562 46.4929C13.9277 41.9113 8.45502 35.135 5.6707 30.1157C5.3662 29.2556 5.11962 28.3761 4.93262 27.4831C5.07838 27.471 5.2249 27.471 5.37067 27.4831C5.56426 27.5123 5.75364 27.5647 5.93473 27.6391C6.09075 27.723 6.22877 27.825 6.38479 27.9089H6.42079C6.70282 28.1368 6.92485 28.3767 7.18888 28.5806C15.5238 35.5668 23.9068 42.463 32.1698 49.5032C36.3528 53.0435 39.6854 57.4786 41.9209 62.4802Z" fill="#748DC7"/>
</g>
<g style="mix-blend-mode:overlay">
<path d="M44.6392 74C44.7349 73.6077 44.7773 73.2043 44.7652 72.8006C44.7783 72.3329 44.7461 71.865 44.6692 71.4034C44.1067 68.3296 43.1842 65.3326 41.9209 62.4742C33.7119 58.0366 25.653 53.2572 18.6562 46.4869C13.9276 41.9053 8.45498 35.129 5.67065 30.1097" fill="#748DC7"/>
</g>
<path d="M7.40486 22.3379C4.26649 19.3995 1.93222 14.1164 0.60007 10.6442C0.357439 10.0248 0.15696 9.38971 0 8.74327C0.105822 8.73429 0.212215 8.73429 0.318037 8.74327C0.460836 8.76456 0.601422 8.79868 0.738086 8.84522C0.855517 8.893 0.966414 8.95546 1.06812 9.03112H1.09813C1.30815 9.18703 1.47617 9.35494 1.6982 9.49887C7.93292 14.3922 14.2216 19.1896 20.4024 24.083C23.5534 26.5487 26.1071 29.6931 27.8732 33.282C28.8684 35.3321 29.6196 37.4916 30.1115 39.7165C30.1784 40.0421 30.2126 40.3736 30.2135 40.706C30.2324 41.0072 30.2123 41.3095 30.1535 41.6055L7.40486 22.3379Z" fill="#748DC7"/>
<g style="mix-blend-mode:color-burn" opacity="0.75">
<path d="M27.8732 33.282C21.7765 30.2596 15.7758 26.9854 10.5012 22.242C6.9308 19.0217 2.78432 14.2303 0.600069 10.6442C0.357439 10.0248 0.15696 9.38971 0 8.74327C0.105822 8.73429 0.212215 8.73429 0.318037 8.74327C0.460836 8.76456 0.601422 8.79868 0.738085 8.84522L1.06812 9.03112H1.09813C1.30815 9.18703 1.47617 9.35494 1.6982 9.49887C7.93292 14.3922 14.2216 19.1896 20.4024 24.083C23.5534 26.5487 26.1071 29.6931 27.8732 33.282Z" fill="#748DC7"/>
</g>
<g style="mix-blend-mode:overlay">
<path d="M30.1535 41.6055C30.214 41.3199 30.2362 41.0275 30.2195 40.736C30.2139 40.3936 30.1778 40.0525 30.1115 39.7165C29.6196 37.4916 28.8684 35.3321 27.8733 33.282C21.7766 30.2596 15.7759 26.9854 10.5012 22.242C6.93083 19.0217 2.78435 14.2303 0.600098 10.6442" fill="#748DC7"/>
</g>
<path d="M11.2753 9.03112C9.085 7.11815 7.3808 3.59806 6.40269 1.27731C6.22034 0.863615 6.06988 0.436603 5.95264 0L6.16866 0C6.26451 0.0100934 6.35904 0.0301923 6.45069 0.0599676C6.53194 0.0891075 6.60869 0.129478 6.67872 0.179903C6.82874 0.281848 6.94275 0.395786 7.08077 0.485737C11.4433 3.59806 15.8118 6.72836 20.1203 9.91264C22.3054 11.509 24.1021 13.5772 25.3769 15.9634C26.093 17.3308 26.6507 18.7753 27.0391 20.269C27.09 20.4876 27.1202 20.7105 27.1291 20.9347C27.1548 21.1337 27.1548 21.3353 27.1291 21.5344L11.2753 9.03112Z" fill="#748DC7"/>
<g style="mix-blend-mode:color-burn" opacity="0.75">
<path d="M25.3769 15.9634C21.1764 14.0624 17.0479 11.9875 13.3755 8.89919C10.7391 6.66232 8.39631 4.1014 6.40269 1.27731C6.22034 0.863615 6.06988 0.436603 5.95264 0L6.16866 0C6.26451 0.0100934 6.35904 0.0301923 6.45069 0.0599676L6.67872 0.179903C6.82874 0.281848 6.94275 0.395786 7.08077 0.485737C11.4433 3.59806 15.8118 6.72836 20.1203 9.91264C22.3054 11.509 24.1021 13.5772 25.3769 15.9634Z" fill="#748DC7"/>
</g>
<g style="mix-blend-mode:overlay">
<path d="M27.1111 21.5464C27.1383 21.3474 27.1383 21.1456 27.1111 20.9467C27.0972 20.7166 27.0651 20.488 27.0151 20.263C26.6267 18.7693 26.069 17.3248 25.3529 15.9574C21.1524 14.0564 17.0239 11.9815 13.3515 8.89319C10.724 6.65668 8.3893 4.09785 6.40271 1.27731" fill="#748DC7"/>
</g>
<path d="M136.45 36.4123H130.815L129.057 32.8742H118.61L116.845 36.4123H111.205L121.004 17.7024H126.651L136.45 36.4123ZM127.263 29.2162L123.854 22.3319L120.422 29.2222L127.263 29.2162Z" fill="#F2F2F2"/>
<path d="M160.219 24.089C160.227 24.9657 160.087 25.8376 159.805 26.6676C159.542 27.4421 159.091 28.1389 158.49 28.6945C157.815 29.3071 157.011 29.7618 156.138 30.0258C154.998 30.3682 153.811 30.5281 152.622 30.4995H144.221V36.4123H139.156V17.6964H152.604C153.793 17.6709 154.98 17.8307 156.12 18.1702C156.993 18.4278 157.797 18.8787 158.472 19.4895C159.071 20.0439 159.523 20.7383 159.787 21.5104C160.077 22.339 160.223 23.2111 160.219 24.089ZM155.106 24.1669C155.113 23.7849 155.05 23.4048 154.92 23.0455C154.8 22.7346 154.591 22.4656 154.32 22.272C153.985 22.054 153.609 21.9051 153.216 21.8342C152.662 21.7293 152.099 21.6811 151.536 21.6903H144.203V26.4877H151.512C152.074 26.4944 152.636 26.4543 153.192 26.3677C153.583 26.3132 153.959 26.1785 154.296 25.972C154.565 25.7965 154.774 25.5434 154.896 25.2464C155.026 24.9014 155.091 24.5355 155.088 24.1669H155.106Z" fill="#F2F2F2"/>
<path d="M186.058 17.7024V36.4123H181.005V23.5553L168.368 36.4123H162.889V17.7024H167.917V30.6135L180.567 17.7024H186.058Z" fill="#F2F2F2"/>
<path d="M194.254 24.8086C194.001 25.5106 193.871 26.2511 193.87 26.9974C193.872 27.4938 193.929 27.9885 194.038 28.4726C194.143 28.9584 194.325 29.4241 194.578 29.8519C194.848 30.2999 195.184 30.7043 195.575 31.0512C196.031 31.4403 196.545 31.7559 197.099 31.9867C197.785 32.2684 198.502 32.4697 199.235 32.5864C200.165 32.7447 201.106 32.8189 202.049 32.8083C202.985 32.8174 203.92 32.7533 204.846 32.6164C205.615 32.4929 206.375 32.3166 207.12 32.0887C207.769 31.8865 208.403 31.638 209.016 31.3451C209.586 31.0692 210.132 30.7874 210.648 30.4935V35.0451C209.994 35.3209 209.334 35.5608 208.674 35.7827C208.014 36.0045 207.324 36.1904 206.616 36.3464C205.875 36.5098 205.126 36.63 204.372 36.7062C203.532 36.7929 202.689 36.8349 201.845 36.8321C200.069 36.855 198.297 36.6535 196.571 36.2324C195.09 35.8769 193.686 35.2529 192.43 34.3914C191.296 33.5936 190.368 32.5369 189.724 31.3091C189.053 29.9684 188.722 28.4839 188.758 26.9854C188.725 25.4911 189.056 24.0112 189.724 22.6737C190.368 21.4477 191.296 20.393 192.43 19.5974C193.683 18.7292 195.087 18.1028 196.571 17.7504C198.297 17.3327 200.069 17.1313 201.845 17.1507C202.745 17.1507 203.586 17.1927 204.372 17.2707C205.126 17.3498 205.875 17.4699 206.616 17.6305C207.324 17.7924 208.008 17.9783 208.674 18.1942C209.34 18.41 209.994 18.6619 210.648 18.9318V23.4773C210.132 23.1955 209.586 22.9196 209.016 22.6438C208.403 22.3488 207.769 22.0982 207.12 21.8942C206.375 21.6606 205.615 21.4782 204.846 21.3485C203.921 21.199 202.986 21.1288 202.049 21.1386C200.712 21.1044 199.377 21.2702 198.089 21.6303C197.169 21.8872 196.313 22.3324 195.575 22.9376C194.978 23.4351 194.523 24.0803 194.254 24.8086Z" fill="#F2F2F2"/>
<path d="M234.321 17.6964V21.7682H226.358V36.4123H221.306V21.7682H213.355V17.6964H234.321Z" fill="#F2F2F2"/>
<path d="M256.164 32.4245V36.4123H237.027V17.7024H255.99V21.6903H242.206V24.7846H255.264V28.7844H242.206V32.4365L256.164 32.4245Z" fill="#F2F2F2"/>
<path d="M282.033 17.7024V36.4123H276.974V23.5553L264.337 36.4123H258.858V17.7024H263.886V30.6135L276.536 17.7024H282.033ZM265.861 14.9919V11.4838H275.024V14.9919H265.861Z" fill="#F2F2F2"/>
<path d="M110.155 58.6903L115.951 46.0971H116.87L122.666 58.6903H121.676L116.203 46.6968H116.6L111.145 58.6903H110.155ZM112.279 55.1702L112.585 54.3966H120.128L120.434 55.1702H112.279Z" fill="#F2F2F2"/>
<path d="M124.97 62.1804V49.2994H125.835V52.3757L125.691 54.0128L125.871 55.6499V62.1804H124.97ZM129.687 58.7622C128.901 58.7662 128.128 58.5591 127.449 58.1626C126.777 57.7717 126.228 57.2003 125.865 56.5134C125.477 55.7206 125.276 54.85 125.276 53.9678C125.276 53.0856 125.477 52.215 125.865 51.4222C126.228 50.7369 126.777 50.1676 127.449 49.7791C128.128 49.3826 128.901 49.1755 129.687 49.1794C130.526 49.1626 131.355 49.3696 132.087 49.7791C132.785 50.177 133.358 50.7603 133.743 51.4642C134.138 52.2324 134.344 53.0834 134.344 53.9468C134.344 54.8103 134.138 55.6613 133.743 56.4295C133.364 57.1554 132.785 57.7585 132.075 58.1686C131.346 58.5757 130.522 58.7826 129.687 58.7682V58.7622ZM129.615 57.9527C130.296 57.9619 130.967 57.7901 131.559 57.4549C132.135 57.1278 132.607 56.6458 132.921 56.0637C133.245 55.4198 133.413 54.7093 133.413 53.9888C133.413 53.2683 133.245 52.5578 132.921 51.9139C132.605 51.3348 132.133 50.8552 131.559 50.5287C130.966 50.1956 130.295 50.0259 129.615 50.037C128.938 50.0251 128.271 50.1949 127.683 50.5287C127.115 50.8587 126.648 51.3377 126.333 51.9139C126.005 52.5567 125.835 53.2676 125.835 53.9888C125.835 54.71 126.005 55.4209 126.333 56.0637C126.645 56.6438 127.112 57.1256 127.683 57.4549C128.271 57.7908 128.938 57.9627 129.615 57.9527Z" fill="#F2F2F2"/>
<path d="M137.266 58.6903V49.2994H138.166V57.305L144.863 49.2994H145.655V58.6903H144.755V50.6846L138.058 58.6903H137.266Z" fill="#F2F2F2"/>
<path d="M153.342 58.7682C152.491 58.7877 151.65 58.5808 150.905 58.1686C150.199 57.7681 149.614 57.1836 149.213 56.4775C148.804 55.7172 148.589 54.8673 148.589 54.0038C148.589 53.1403 148.804 52.2904 149.213 51.5301C149.612 50.8243 150.198 50.2415 150.905 49.8451C151.595 49.4819 152.358 49.2783 153.137 49.2492C153.916 49.2202 154.691 49.3664 155.406 49.6771C156.017 49.9601 156.537 50.4089 156.906 50.9724L156.24 51.4582C155.925 50.9961 155.489 50.629 154.98 50.3968C154.407 50.149 153.786 50.0338 153.163 50.0598C152.539 50.0857 151.93 50.2522 151.379 50.5467C150.807 50.8673 150.336 51.3407 150.017 51.9139C149.69 52.5577 149.519 53.2697 149.519 53.9918C149.519 54.714 149.69 55.4259 150.017 56.0697C150.335 56.6504 150.809 57.1304 151.385 57.4549C151.934 57.7521 152.544 57.9206 153.168 57.9476C153.791 57.9746 154.413 57.8594 154.986 57.6109C155.495 57.3786 155.931 57.0115 156.246 56.5494L156.912 57.0352C156.543 57.5987 156.023 58.0475 155.412 58.3305C154.763 58.6273 154.056 58.7768 153.342 58.7682Z" fill="#F2F2F2"/>
<path d="M161.065 58.6903V49.8391L161.317 50.1089H157.392V49.2994H165.619V50.1089H161.695L161.947 49.8391V58.6903H161.065Z" fill="#F2F2F2"/>
<path d="M171.02 58.7682C170.146 58.7897 169.281 58.583 168.512 58.1686C167.801 57.7648 167.216 57.1736 166.819 56.4595C166.404 55.7055 166.197 54.855 166.219 53.9948C166.206 53.1318 166.412 52.2795 166.819 51.5182C167.192 50.8224 167.748 50.2418 168.427 49.8391C169.126 49.4318 169.923 49.2244 170.732 49.2394C171.538 49.2288 172.332 49.436 173.03 49.8391C173.709 50.2323 174.264 50.8078 174.632 51.5002C175.039 52.2615 175.246 53.1138 175.232 53.9768C175.235 54.0148 175.235 54.0528 175.232 54.0908C175.229 54.1367 175.229 54.1828 175.232 54.2287H166.819V53.5091H174.62L174.26 53.8509C174.284 53.1646 174.127 52.4842 173.804 51.878C173.503 51.316 173.058 50.8442 172.514 50.5107C172.097 50.2599 171.634 50.096 171.152 50.0291C170.67 49.9622 170.18 49.9936 169.71 50.1214C169.241 50.2492 168.802 50.4707 168.421 50.7726C168.039 51.0745 167.723 51.4505 167.491 51.878C167.172 52.4923 167.011 53.1766 167.023 53.8689V54.0308C167.011 54.7442 167.189 55.4481 167.539 56.0697C167.871 56.6539 168.359 57.1338 168.95 57.4549C169.58 57.7928 170.286 57.9641 171.002 57.9527C171.58 57.9571 172.153 57.847 172.688 57.6288C173.205 57.4161 173.659 57.0756 174.008 56.6394L174.53 57.2391C174.123 57.7423 173.594 58.1342 172.994 58.3784C172.368 58.6363 171.697 58.7687 171.02 58.7682Z" fill="#F2F2F2"/>
<path d="M178.095 58.6903V49.2993H178.995V57.305L185.691 49.2993H186.484V58.6903H185.583V50.6846L178.887 58.6903H178.095ZM182.253 47.8601C181.601 47.8802 180.963 47.6676 180.453 47.2605C180.215 47.0621 180.024 46.8134 179.895 46.5323C179.765 46.2512 179.699 45.9448 179.703 45.6353H180.369C180.372 45.8601 180.425 46.0813 180.524 46.2833C180.622 46.4854 180.764 46.6634 180.939 46.8047C181.323 47.0849 181.786 47.236 182.262 47.236C182.738 47.236 183.201 47.0849 183.585 46.8047C183.759 46.6639 183.898 46.4854 183.993 46.2828C184.088 46.0803 184.135 45.8589 184.131 45.6353H184.821C184.832 45.9435 184.772 46.25 184.646 46.5315C184.52 46.8131 184.332 47.0623 184.095 47.2605C183.573 47.6738 182.919 47.8865 182.253 47.8601Z" fill="#F2F2F2"/>
<path d="M194.171 54.2647V53.4551H198.797V54.2647H194.171Z" fill="#F2F2F2"/>
<path d="M206.484 58.6903V49.2993H207.384V53.4971H210.264V54.3246H207.384V58.6783L206.484 58.6903ZM214.351 58.7622C213.525 58.7786 212.71 58.5714 211.993 58.1626C211.301 57.7599 210.735 57.1748 210.354 56.4715C209.964 55.7063 209.76 54.8597 209.76 54.0008C209.76 53.1419 209.964 52.2953 210.354 51.5301C210.737 50.8314 211.303 50.2507 211.993 49.851C212.716 49.4499 213.53 49.2394 214.357 49.2394C215.184 49.2394 215.998 49.4499 216.721 49.851C217.406 50.2529 217.968 50.8334 218.347 51.5301C218.738 52.2953 218.941 53.1419 218.941 54.0008C218.941 54.8597 218.738 55.7063 218.347 56.4715C217.971 57.1751 217.408 57.762 216.721 58.1686C216 58.5798 215.181 58.7871 214.351 58.7682V58.7622ZM214.351 57.9707C215.016 57.9822 215.67 57.8077 216.241 57.4669C216.798 57.1269 217.253 56.6419 217.555 56.0637C217.888 55.4258 218.055 54.7143 218.041 53.9948C218.059 53.2726 217.896 52.5574 217.567 51.9139C217.267 51.3389 216.812 50.8592 216.253 50.5287C215.673 50.2063 215.02 50.0371 214.357 50.0371C213.693 50.0371 213.041 50.2063 212.461 50.5287C211.899 50.857 211.441 51.3372 211.14 51.9139C210.81 52.557 210.645 53.2721 210.66 53.9948C210.646 54.7143 210.813 55.4258 211.146 56.0637C211.452 56.6434 211.911 57.1286 212.473 57.4669C213.04 57.8056 213.69 57.98 214.351 57.9707Z" fill="#F2F2F2"/>
<path d="M221.912 62.1804V49.2994H222.776V52.3757L222.626 54.0128L222.806 55.6499V62.1804H221.912ZM226.628 58.7622C225.842 58.7662 225.069 58.5591 224.39 58.1626C223.718 57.7717 223.169 57.2003 222.806 56.5134C222.419 55.7206 222.218 54.85 222.218 53.9678C222.218 53.0856 222.419 52.215 222.806 51.4222C223.169 50.7369 223.718 50.1676 224.39 49.7791C225.069 49.3826 225.842 49.1755 226.628 49.1794C227.468 49.1626 228.296 49.3696 229.029 49.7791C229.726 50.177 230.299 50.7603 230.685 51.4642C231.079 52.2324 231.285 53.0834 231.285 53.9468C231.285 54.8103 231.079 55.6613 230.685 56.4295C230.299 57.1317 229.726 57.713 229.029 58.1086C228.302 58.5388 227.473 58.7665 226.628 58.7682V58.7622ZM226.574 57.9527C227.255 57.9619 227.926 57.7901 228.519 57.4549C229.094 57.1278 229.566 56.6458 229.881 56.0637C230.204 55.4198 230.373 54.7093 230.373 53.9888C230.373 53.2683 230.204 52.5578 229.881 51.9139C229.564 51.3348 229.092 50.8552 228.519 50.5287C227.925 50.1956 227.254 50.0259 226.574 50.037C225.898 50.0251 225.23 50.1949 224.642 50.5287C224.074 50.8587 223.607 51.3377 223.292 51.9139C222.965 52.5567 222.794 53.2676 222.794 53.9888C222.794 54.71 222.965 55.4209 223.292 56.0637C223.604 56.6438 224.071 57.1256 224.642 57.4549C225.23 57.7908 225.897 57.9627 226.574 57.9527Z" fill="#F2F2F2"/>
<path d="M234.207 58.6903V49.2994H235.107V57.305L241.828 49.2994H242.62V58.6903H241.72V50.6846L234.999 58.6903H234.207Z" fill="#F2F2F2"/>
<path d="M244.72 61.029V57.8987H255.324V61.029H254.477V58.6903H245.584V61.029H244.72ZM252.911 58.2585V50.1089H248.015L247.907 52.4477C247.907 53.1073 247.841 53.7609 247.781 54.4146C247.728 55.0204 247.632 55.6217 247.493 56.2136C247.393 56.685 247.208 57.1342 246.947 57.5389C246.848 57.696 246.714 57.8281 246.556 57.9249C246.398 58.0216 246.219 58.0804 246.034 58.0966L245.134 57.8987C245.314 57.9145 245.494 57.8836 245.659 57.809C245.823 57.7344 245.964 57.6186 246.07 57.4729C246.341 57.1006 246.532 56.6757 246.629 56.2256C246.772 55.634 246.872 55.0327 246.929 54.4266C246.995 53.7609 247.043 53.0833 247.079 52.3877L247.205 49.2934H253.805V58.2585H252.911Z" fill="#F2F2F2"/>
<path d="M257.988 58.6903V49.2994H258.888V57.305L265.585 49.2994H266.377V58.6903H265.477V50.6846L258.78 58.6903H257.988Z" fill="#F2F2F2"/>
<path d="M276.206 54.6065C275.642 54.8614 275.056 55.0622 274.454 55.2062C273.902 55.3412 273.336 55.4117 272.768 55.416C271.85 55.4603 270.944 55.1964 270.193 54.6665C269.864 54.3989 269.603 54.056 269.434 53.6667C269.265 53.2774 269.192 52.8531 269.221 52.4297V49.2994H270.121V52.3757C270.1 52.7004 270.157 53.0255 270.289 53.3231C270.421 53.6207 270.623 53.8821 270.877 54.0848C271.464 54.5028 272.174 54.7137 272.894 54.6844C273.434 54.6801 273.971 54.6137 274.496 54.4865C275.09 54.3425 275.669 54.1417 276.224 53.8869L276.206 54.6065ZM276.116 58.6903V49.2994H277.016V58.6903H276.116Z" fill="#F2F2F2"/>
<path d="M284.793 58.7682C283.919 58.7897 283.054 58.583 282.285 58.1686C281.568 57.7725 280.975 57.1876 280.568 56.4775C280.156 55.7226 279.949 54.8727 279.968 54.0128C279.952 53.1494 280.159 52.2965 280.568 51.5361C280.94 50.8392 281.496 50.2581 282.177 49.8571C282.878 49.4619 283.67 49.2543 284.475 49.2543C285.28 49.2543 286.072 49.4619 286.773 49.8571C287.452 50.2503 288.007 50.8258 288.375 51.5182C288.785 52.2785 288.992 53.1315 288.975 53.9948C288.978 54.0327 288.978 54.0708 288.975 54.1088C288.969 54.1545 288.969 54.2009 288.975 54.2467H280.616V53.5091H288.417L288.057 53.8509C288.078 53.1649 287.921 52.4852 287.601 51.878C287.3 51.316 286.855 50.8442 286.311 50.5107C285.894 50.2599 285.431 50.096 284.949 50.0291C284.467 49.9622 283.977 49.9936 283.507 50.1214C283.038 50.2492 282.599 50.4707 282.218 50.7726C281.837 51.0745 281.52 51.4505 281.289 51.878C280.969 52.4923 280.808 53.1766 280.821 53.8689V54.0308C280.809 54.7434 280.985 55.4465 281.331 56.0697C281.666 56.653 282.156 57.1324 282.747 57.4549C283.377 57.7928 284.084 57.9641 284.799 57.9527C285.375 57.9571 285.946 57.847 286.479 57.6288C286.999 57.4179 287.455 57.0772 287.805 56.6394L288.327 57.2391C287.918 57.741 287.39 58.1326 286.791 58.3784C286.158 58.6394 285.478 58.7719 284.793 58.7682Z" fill="#F2F2F2"/>
<path d="M295.666 58.7682C294.815 58.7877 293.975 58.5808 293.23 58.1686C292.523 57.7681 291.939 57.1836 291.538 56.4775C291.128 55.7172 290.914 54.8673 290.914 54.0038C290.914 53.1403 291.128 52.2904 291.538 51.5301C291.937 50.8243 292.522 50.2415 293.23 49.8451C293.92 49.4819 294.682 49.2783 295.461 49.2492C296.24 49.2202 297.016 49.3664 297.731 49.6771C298.342 49.9601 298.862 50.4089 299.231 50.9724L298.565 51.4582C298.249 50.9961 297.814 50.629 297.304 50.3968C296.732 50.149 296.111 50.0338 295.487 50.0598C294.864 50.0857 294.254 50.2522 293.704 50.5467C293.127 50.8713 292.653 51.3512 292.336 51.9319C292.009 52.5757 291.838 53.2877 291.838 54.0098C291.838 54.7319 292.009 55.4439 292.336 56.0877C292.653 56.6684 293.127 57.1483 293.704 57.4729C294.253 57.7701 294.863 57.9385 295.486 57.9656C296.11 57.9926 296.732 57.8774 297.304 57.6288C297.814 57.3966 298.249 57.0295 298.565 56.5674L299.231 57.0532C298.862 57.6167 298.342 58.0655 297.731 58.3485C297.082 58.6383 296.377 58.7816 295.666 58.7682Z" fill="#F2F2F2"/>
<path d="M301.895 58.6903V49.2994H302.795V58.6903H301.895ZM302.495 54.3366V53.563H305.435V54.3366H302.495ZM305.591 54.0848L304.775 53.9708L308.628 49.3293H309.636L305.591 54.0848ZM308.814 58.6903L304.793 53.9708L305.549 53.5391L309.906 58.6663L308.814 58.6903Z" fill="#F2F2F2"/>
<path d="M312.12 58.6903V49.2994H313.02V57.305L319.717 49.2994H320.509V58.6903H319.609V50.6846L312.912 58.6903H312.12Z" fill="#F2F2F2"/>
<path d="M328.286 58.7682C327.41 58.7896 326.544 58.5829 325.772 58.1686C325.046 57.771 324.445 57.1792 324.038 56.4595C323.618 55.6986 323.411 54.8391 323.437 53.9708C323.424 53.1078 323.631 52.2555 324.038 51.4942C324.413 50.798 324.971 50.2175 325.652 49.8151C326.353 49.4199 327.145 49.2124 327.95 49.2124C328.755 49.2124 329.547 49.4199 330.248 49.8151C330.923 50.2117 331.474 50.7892 331.838 51.4822C332.247 52.2471 332.454 53.1037 332.438 53.9708C332.438 54.0068 332.438 54.0428 332.438 54.0848C332.432 54.1305 332.432 54.1769 332.438 54.2227H324.11V53.5091H331.91L331.55 53.8509C331.572 53.1641 331.413 52.4837 331.088 51.878C330.789 51.3168 330.346 50.845 329.804 50.5107C329.389 50.2555 328.925 50.0882 328.442 50.019C327.959 49.9498 327.467 49.9801 326.997 50.1083C326.526 50.2364 326.087 50.4595 325.706 50.7639C325.325 51.0682 325.01 51.4474 324.782 51.878C324.462 52.4923 324.301 53.1766 324.314 53.8689V54.0308C324.302 54.7434 324.478 55.4465 324.824 56.0697C325.157 56.6547 325.647 57.1347 326.24 57.4549C326.87 57.7928 327.577 57.9641 328.292 57.9527C328.868 57.9571 329.439 57.847 329.972 57.6288C330.491 57.4162 330.947 57.0758 331.298 56.6394L331.82 57.2391C331.411 57.741 330.883 58.1326 330.284 58.3784C329.65 58.6388 328.971 58.7712 328.286 58.7682Z" fill="#F2F2F2"/>
<path d="M339.879 62.2523C339.47 62.2532 339.063 62.1801 338.679 62.0365C338.319 61.9103 337.991 61.7054 337.719 61.4368L338.169 60.7532C338.388 60.9908 338.654 61.1806 338.949 61.3109C339.256 61.4353 339.585 61.4965 339.915 61.4908C340.324 61.4977 340.725 61.3714 341.056 61.131C341.47 60.7775 341.79 60.326 341.986 59.8177L342.64 58.3485L342.766 58.1865L346.744 49.2994H347.662L342.862 59.9676C342.66 60.4593 342.382 60.9165 342.04 61.3229C341.778 61.6305 341.45 61.8746 341.08 62.0365C340.698 62.1898 340.29 62.2632 339.879 62.2523ZM342.598 58.9241L338.241 49.2994H339.195L343.156 58.1326L342.598 58.9241Z" fill="#F2F2F2"/>
<path d="M353.345 58.7682C352.492 58.7868 351.65 58.5799 350.903 58.1686C350.205 57.7588 349.63 57.1684 349.241 56.4595C348.834 55.6981 348.622 54.8486 348.622 53.9858C348.622 53.123 348.834 52.2735 349.241 51.5122C349.64 50.8063 350.225 50.2235 350.933 49.8271C351.681 49.4181 352.523 49.2114 353.375 49.2274C354.085 49.2175 354.788 49.365 355.433 49.6592C356.038 49.9507 356.55 50.4056 356.909 50.9724L356.243 51.4582C355.928 50.9961 355.492 50.629 354.983 50.3968C354.41 50.1499 353.789 50.0351 353.166 50.0611C352.543 50.087 351.933 50.253 351.383 50.5467C350.806 50.8713 350.332 51.3512 350.015 51.9319C349.691 52.5768 349.523 53.2883 349.523 54.0098C349.523 54.7313 349.691 55.4428 350.015 56.0877C350.332 56.6684 350.806 57.1483 351.383 57.4729C351.932 57.7692 352.541 57.9372 353.165 57.9642C353.789 57.9912 354.41 57.8766 354.983 57.6288C355.492 57.3966 355.928 57.0295 356.243 56.5674L356.909 57.0532C356.539 57.6176 356.017 58.0664 355.403 58.3485C354.757 58.6385 354.054 58.7819 353.345 58.7682Z" fill="#F2F2F2"/>
<path d="M357.341 58.6543L357.431 57.8807L357.653 57.9227C357.723 57.9302 357.794 57.9302 357.863 57.9227C358.05 57.9267 358.235 57.887 358.404 57.8068C358.573 57.7267 358.721 57.6082 358.836 57.4609C359.103 57.0944 359.289 56.6754 359.382 56.2316C359.517 55.6578 359.607 55.0743 359.652 54.4865C359.706 53.8389 359.754 53.1793 359.79 52.5076L359.952 49.2694H366.552V58.6903H365.652V49.8211L365.904 50.1089H360.54L360.774 49.8031L360.642 52.6096C360.594 53.4091 360.528 54.1887 360.444 54.9483C360.374 55.6175 360.248 56.2795 360.066 56.9272C359.937 57.4297 359.69 57.8943 359.346 58.2825C359.192 58.4452 359.006 58.5737 358.799 58.6595C358.592 58.7452 358.369 58.7864 358.146 58.7802C358.021 58.7798 357.896 58.7678 357.773 58.7442L357.341 58.6543Z" fill="#F2F2F2"/>
<path d="M370.321 62.2523C369.911 62.2532 369.505 62.1801 369.121 62.0365C368.76 61.9103 368.432 61.7054 368.161 61.4368L368.611 60.7532C368.83 60.9908 369.095 61.1806 369.391 61.3109C369.697 61.4353 370.026 61.4965 370.357 61.4908C370.766 61.4977 371.166 61.3714 371.497 61.131C371.912 60.7775 372.231 60.326 372.427 59.8177L373.075 58.3784L373.201 58.2165L377.18 49.3293H378.098L373.243 59.9676C373.041 60.4593 372.764 60.9165 372.421 61.3229C372.16 61.6305 371.831 61.8746 371.461 62.0365C371.099 62.1819 370.711 62.2552 370.321 62.2523ZM373.039 58.9241L368.683 49.2994H369.643L373.603 58.1326L373.039 58.9241Z" fill="#F2F2F2"/>
<path d="M380.258 58.6903V49.2994H386.685V50.1089H380.906L381.158 49.857V58.6903H380.258Z" fill="#F2F2F2"/>
<path d="M388.611 58.6903V49.2994H389.511V57.305L396.208 49.2994H397V58.6903H396.1V50.6846L389.403 58.6903H388.611Z" fill="#F2F2F2"/>
</g>
<defs>
<clipPath id="clip0_231_43">
<rect width="397" height="74" fill="white"/>
</clipPath>
</defs>
</svg>
