<svg width="306" height="386" viewBox="0 0 306 386" fill="none" xmlns="http://www.w3.org/2000/svg">
<path opacity="0.18" d="M287.429 220.582C287.72 243.633 294.796 266.519 292.276 289.406C287.545 332.057 248.577 365.519 206.42 373.516C184.6 377.655 160.483 375.639 142.676 362.369C136.104 357.464 130.636 351.212 124.151 346.181C103.398 330.06 74.5788 327.889 53.1173 312.728C28.108 295.057 17.6972 263.35 11.2316 233.416C7.43176 215.838 4.45261 198.112 2.29419 180.237C-0.943446 153.522 -1.58322 123.918 14.983 102.689C27.3616 86.7627 46.9716 78.7171 64.0807 68.0058C86.6666 53.8726 105.53 34.4856 127.554 19.4703C152.427 2.50665 175.75 -2.09777 200.546 1.8378L202.737 2.20615C213.962 4.35261 224.931 7.67311 235.462 12.1129C268.517 25.5772 297.21 53.7951 303.54 89.9228C311.149 133.389 286.886 176.447 287.429 220.582Z" fill="#6A99E6"/>
<path d="M87.9654 281.167H149.335C151.557 281.167 153.358 279.368 153.358 277.149C153.358 274.929 151.557 273.131 149.335 273.131H87.9654C85.7437 273.131 83.9426 274.929 83.9426 277.149C83.9426 279.368 85.7437 281.167 87.9654 281.167Z" fill="#6A99E6"/>
<path d="M98.919 320.987H160.289C162.51 320.987 164.312 319.188 164.312 316.969C164.312 314.75 162.51 312.951 160.289 312.951H98.919C96.6973 312.951 94.8962 314.75 94.8962 316.969C94.8962 319.188 96.6973 320.987 98.919 320.987Z" fill="#6A99E6"/>
<path d="M109.882 360.808H171.252C173.474 360.808 175.275 359.009 175.275 356.79C175.275 354.571 173.474 352.772 171.252 352.772H109.882C107.661 352.772 105.86 354.571 105.86 356.79C105.86 359.009 107.661 360.808 109.882 360.808Z" fill="#6A99E6"/>
<path d="M167.908 385.352H177.776L150.915 276.3H141.057L167.908 385.352Z" fill="#6A99E6"/>
<path d="M113.11 385.352H122.969L96.1176 276.3H86.2593L113.11 385.352Z" fill="#6A99E6"/>
<path d="M87.9654 281.167H149.335C151.557 281.167 153.358 279.368 153.358 277.149C153.358 274.929 151.557 273.131 149.335 273.131H87.9654C85.7437 273.131 83.9426 274.929 83.9426 277.149C83.9426 279.368 85.7437 281.167 87.9654 281.167Z" fill="url(#paint0_linear_33_155)"/>
<path d="M98.919 320.987H160.289C162.51 320.987 164.312 319.188 164.312 316.969C164.312 314.75 162.51 312.951 160.289 312.951H98.919C96.6973 312.951 94.8962 314.75 94.8962 316.969C94.8962 319.188 96.6973 320.987 98.919 320.987Z" fill="url(#paint1_linear_33_155)"/>
<path d="M109.882 360.808H171.252C173.474 360.808 175.275 359.009 175.275 356.79C175.275 354.571 173.474 352.772 171.252 352.772H109.882C107.661 352.772 105.86 354.571 105.86 356.79C105.86 359.009 107.661 360.808 109.882 360.808Z" fill="url(#paint2_linear_33_155)"/>
<path d="M167.908 385.352H177.776L150.915 276.3H141.057L167.908 385.352Z" fill="url(#paint3_linear_33_155)"/>
<path d="M113.11 385.352H122.969L96.1176 276.3H86.2593L113.11 385.352Z" fill="url(#paint4_linear_33_155)"/>
<path d="M167.307 101.177C167.886 100.566 168.583 100.078 169.356 99.745C170.13 99.4117 170.963 99.2393 171.805 99.2383C171.707 100.861 171.182 102.43 170.283 103.785C169.918 104.316 169.631 104.897 169.43 105.51C169.332 105.817 169.316 106.144 169.384 106.458C169.452 106.773 169.602 107.064 169.817 107.303C170.137 107.613 170.603 107.759 170.787 108.137C170.893 108.37 170.918 108.632 170.858 108.882C170.798 109.131 170.657 109.353 170.457 109.513C170.05 109.83 169.576 110.049 169.071 110.153L166.551 110.861C165.934 111.11 165.252 111.147 164.612 110.967C160.783 109.339 165.901 102.641 167.307 101.177Z" fill="#F9FBFE"/>
<path d="M152.476 112.974C153.97 112.718 155.384 112.117 156.606 111.22C158.606 109.891 160.404 108.281 161.947 106.441C164.273 108.274 166.136 110.628 167.385 113.314C167.595 113.607 167.688 113.968 167.647 114.326C167.606 114.684 167.433 115.014 167.162 115.252C163.527 119.45 158.787 123.308 153.232 123.511C150.223 123.616 147.282 122.604 144.973 120.671C142.686 118.732 138.556 112.092 141.813 109.388C143.539 107.953 144.935 109.775 146.224 110.793C147.07 111.552 148.059 112.135 149.132 112.509C150.205 112.883 151.342 113.042 152.476 112.974Z" fill="#6A99E6"/>
<path d="M187.285 65.311H219.206C221.396 65.311 223.171 63.536 223.171 61.3464V50.257C223.171 48.0674 221.396 46.2924 219.206 46.2924H187.285C185.096 46.2924 183.321 48.0674 183.321 50.257V61.3464C183.321 63.536 185.096 65.311 187.285 65.311Z" fill="#6A99E6"/>
<path d="M184.067 59.0005H221.959C223.801 59.0005 225.293 57.5076 225.293 55.6659V55.4236C225.293 53.5819 223.801 52.089 221.959 52.089H184.067C182.225 52.089 180.732 53.5819 180.732 55.4236V55.6659C180.732 57.5076 182.225 59.0005 184.067 59.0005Z" fill="#6A99E6"/>
<path d="M166.648 117.336C166.637 111.668 168.004 106.083 170.632 101.061L185.124 64.9038H220.573L234.047 103.048C236.177 107.841 237.209 113.05 237.068 118.294C236.927 123.538 235.617 128.684 233.232 133.356C230.848 138.028 227.45 142.109 223.286 145.3C219.123 148.491 214.299 150.711 209.168 151.799C204.036 152.887 198.727 152.814 193.626 151.587C188.526 150.36 183.765 148.01 179.69 144.707C175.615 141.404 172.329 137.232 170.073 132.497C167.816 127.761 166.646 122.582 166.648 117.336Z" fill="#6A99E6"/>
<path opacity="0.69" d="M166.648 117.336C166.637 111.668 168.004 106.083 170.632 101.061L185.124 64.9038H220.573L234.047 103.048C236.177 107.841 237.209 113.05 237.068 118.294C236.927 123.538 235.617 128.684 233.232 133.356C230.848 138.028 227.45 142.109 223.286 145.3C219.123 148.491 214.299 150.711 209.168 151.799C204.036 152.887 198.727 152.814 193.626 151.587C188.526 150.36 183.765 148.01 179.69 144.707C175.615 141.404 172.329 137.232 170.073 132.497C167.816 127.761 166.646 122.582 166.648 117.336Z" fill="url(#paint5_radial_33_155)"/>
<path d="M207.584 64.3223C212.77 75.125 215.492 86.945 215.552 98.9281C215.552 101.613 215.164 104.744 212.818 106.082C209.91 107.681 206.382 105.18 204.811 102.292C203.795 100.398 203.193 98.3094 203.046 96.1652C202.899 94.0209 203.21 91.8699 203.958 89.855C205.897 92.2493 206.411 95.3997 206.731 98.4241C207.106 100.648 206.97 102.929 206.333 105.093C205.567 107.206 203.677 109.068 201.428 109.145C197.977 109.261 195.738 105.394 195.35 101.953C194.918 98.0351 195.812 94.0859 197.89 90.7371C198.62 92.9449 198.753 95.3064 198.277 97.5824C197.8 99.8584 196.73 101.968 195.176 103.697C194.152 104.905 192.776 105.763 191.24 106.15C190.471 106.328 189.668 106.284 188.923 106.023C188.179 105.762 187.523 105.295 187.033 104.676C186.56 103.911 186.274 103.044 186.2 102.146C185.23 95.6614 187.537 89.1377 190.348 83.2149C193.16 77.2922 196.572 71.5827 198.229 65.2335" stroke="white" stroke-width="2.27135" stroke-miterlimit="10"/>
<path d="M187.285 65.311H219.206C221.396 65.311 223.171 63.536 223.171 61.3464V50.257C223.171 48.0674 221.396 46.2924 219.206 46.2924H187.285C185.096 46.2924 183.321 48.0674 183.321 50.257V61.3464C183.321 63.536 185.096 65.311 187.285 65.311Z" fill="url(#paint6_linear_33_155)"/>
<path d="M184.067 59.0005H221.959C223.801 59.0005 225.293 57.5076 225.293 55.6659V55.4236C225.293 53.5819 223.801 52.089 221.959 52.089H184.067C182.225 52.089 180.732 53.5819 180.732 55.4236V55.6659C180.732 57.5076 182.225 59.0005 184.067 59.0005Z" fill="url(#paint7_linear_33_155)"/>
<path d="M136.608 200.875C136.597 202.388 136.473 203.897 136.239 205.392C135.655 207.828 134.877 210.214 133.913 212.526C132.681 216.258 131.71 220.07 131.005 223.936L125.353 251.727C125.242 252.117 125.242 252.53 125.353 252.919C125.504 253.238 125.739 253.509 126.032 253.705C126.946 254.434 127.97 255.013 129.066 255.42C129.408 255.581 129.792 255.625 130.161 255.546C130.608 255.331 130.955 254.953 131.131 254.49C133.282 250.704 134.955 246.667 136.113 242.47C141.929 222.259 148.162 210.055 149.316 200.08C149.51 198.461 151.255 196.997 150.402 195.611C149.885 194.715 149.156 193.96 148.279 193.411C146.078 191.937 141.086 187.595 138.159 189.32C135.57 190.745 136.695 198.277 136.608 200.875Z" fill="#F9FBFE"/>
<path d="M123.987 200.38C123.917 200.983 123.623 201.538 123.163 201.935C122.704 202.331 122.112 202.541 121.505 202.523C108.089 204.558 94.0628 204.859 81.8199 210.694C81.0144 210.995 80.3092 211.516 79.7843 212.197C78.6501 213.961 80.1235 216.375 79.4741 218.362C87.0447 218.594 94.5863 217.392 102.06 216.171L129.822 211.673C131.586 211.382 133.477 211.033 134.727 209.735C135.648 208.616 136.268 207.282 136.53 205.857L138.701 197.695C139.138 196.086 139.545 194.322 138.827 192.848C137.858 190.764 135.163 190.202 132.866 190.076C126.042 189.698 125.606 195.049 123.987 200.38Z" fill="#F9FBFE"/>
<path d="M123.987 200.38C123.917 200.983 123.623 201.538 123.163 201.935C122.704 202.331 122.112 202.541 121.505 202.523C108.089 204.558 94.0628 204.859 81.8199 210.694C81.0144 210.995 80.3092 211.516 79.7843 212.197C78.6501 213.961 80.1235 216.375 79.4741 218.362C87.0447 218.594 94.5863 217.392 102.06 216.171L129.822 211.673C131.586 211.382 133.477 211.033 134.727 209.735C135.648 208.616 136.268 207.282 136.53 205.857L138.701 197.695C139.138 196.086 139.545 194.322 138.827 192.848C137.858 190.764 135.163 190.202 132.866 190.076C126.042 189.698 125.606 195.049 123.987 200.38Z" fill="url(#paint8_linear_33_155)"/>
<path d="M179.666 121.698C179.87 121.281 180.335 120.806 180.684 121.087C180.821 121.228 180.901 121.415 180.907 121.611L181.217 123.705C181.223 123.843 181.267 123.977 181.343 124.092C181.586 124.373 182.041 124.189 182.313 123.976C184.057 122.774 185.646 121.361 187.043 119.769C187.314 119.459 187.702 119.11 188.09 119.275C188.285 119.385 188.43 119.565 188.497 119.779C188.931 120.973 189.035 122.262 188.798 123.511C188.631 125.056 188.125 126.546 187.314 127.873C186.496 129.206 185.205 130.182 183.699 130.606C182.507 130.907 181.198 130.781 180.103 131.343C179.443 131.682 178.833 132.264 178.096 132.186C177.185 132.09 176.71 131.043 176.623 130.131C176.371 127.126 178.396 124.277 179.666 121.698Z" fill="#F9FBFE"/>
<path d="M142.899 89.0118C143.18 91.7648 143.48 94.7019 145.245 96.8345C145.972 97.7166 146.912 98.4146 147.561 99.3548C148.168 100.236 148.489 101.281 148.482 102.35C143.781 102.137 139.177 104.289 134.485 103.862C134.138 101.262 134.253 98.6199 134.824 96.059C135.629 92.4821 137.344 89.0312 137.18 85.3962C137.131 84.1942 136.84 82.7111 137.596 81.6448C138.227 80.7627 139.69 80.2974 140.505 81.1698C141.216 82.1732 141.741 83.2961 142.055 84.485C142.503 85.9581 142.786 87.4764 142.899 89.0118Z" fill="#1F1F1F"/>
<path d="M139.729 104.347C148.027 109.193 151.361 127.039 152.689 131.43C154.593 138.09 155.415 145.012 155.122 151.932C155.054 154.976 154.831 158.126 153.494 160.86C151.652 164.621 147.891 167.17 143.887 168.372C139.884 169.574 135.619 169.584 131.451 169.342C128.756 169.196 125.867 168.886 123.822 167.132C121.03 164.737 120.749 160.598 120.71 156.915C120.536 142.348 120.681 127.773 121.147 113.187C121.114 110.991 121.408 108.802 122.019 106.692C122.329 105.638 122.866 104.663 123.59 103.836C124.315 103.009 125.211 102.35 126.216 101.904C129.919 100.527 136.278 102.311 139.729 104.347Z" fill="#6A99E6"/>
<path d="M139.729 104.347C148.027 109.193 151.361 127.039 152.689 131.43C154.593 138.09 155.415 145.012 155.122 151.932C155.054 154.976 154.831 158.126 153.494 160.86C151.652 164.621 147.891 167.17 143.887 168.372C139.884 169.574 135.619 169.584 131.451 169.342C128.756 169.196 125.867 168.886 123.822 167.132C121.03 164.737 120.749 160.598 120.71 156.915C120.536 142.348 120.681 127.773 121.147 113.187C121.114 110.991 121.408 108.802 122.019 106.692C122.329 105.638 122.866 104.663 123.59 103.836C124.315 103.009 125.211 102.35 126.216 101.904C129.919 100.527 136.278 102.311 139.729 104.347Z" fill="url(#paint9_linear_33_155)"/>
<path d="M142.889 94.6051C142.948 95.6051 142.63 96.5909 141.997 97.3677C141.617 97.675 141.176 97.8992 140.703 98.0261C140.231 98.1529 139.737 98.1796 139.254 98.1044C138.292 97.9452 137.32 97.8577 136.346 97.8427C136.11 97.8126 135.869 97.836 135.643 97.9112C135.417 97.9864 135.211 98.1115 135.04 98.2771C134.869 98.4428 134.737 98.6448 134.654 98.8683C134.571 99.0918 134.54 99.3309 134.562 99.5682C134.562 100.916 135.134 102.205 135.125 103.552C135.115 104.9 134.087 106.46 132.769 106.169C132.134 105.974 131.597 105.544 131.267 104.967C129.396 102.244 129.279 98.6764 127.854 95.6811C127.021 93.9265 125.741 92.3853 125.131 90.5338C124.674 88.9767 124.675 87.3213 125.132 85.7645C125.589 84.2076 126.483 82.8147 127.709 81.7515C130.161 79.6286 135.822 78.0389 138.469 80.6949C141.794 84.0392 143.064 90.0782 142.889 94.6051Z" fill="#F9FBFE"/>
<path d="M137.519 75.6832C138.166 75.9173 138.777 76.2438 139.331 76.6525C140.648 77.8587 141.578 79.4268 142.007 81.16L135.105 84.8532C134.899 84.9905 134.654 85.0584 134.407 85.0471C133.913 84.9598 133.68 84.2716 133.186 84.2425C133.423 84.6442 133.608 85.0741 133.738 85.5221L131.043 87.4608C130.741 87.6438 130.475 87.8803 130.258 88.1587C129.962 88.7 129.84 89.3195 129.909 89.9326C130.195 95.1023 130.983 100.232 132.265 105.248C131.238 105.821 130.094 106.152 128.92 106.218C124.484 106.898 120.166 108.203 116.096 110.095C116.066 108.704 115.854 107.322 115.466 105.985C115.048 104.915 114.793 103.787 114.71 102.641C114.847 101.34 115.246 100.08 115.883 98.9379C116.639 97.2706 117.278 95.5549 117.918 93.8391C118.393 92.693 118.718 91.491 118.888 90.2622C118.911 88.6757 118.775 87.0909 118.48 85.5318C118.194 83.9543 118.505 82.3269 119.353 80.9661C120.739 79.105 123.385 78.5912 125.276 77.3989C127.53 75.8254 130.195 74.9459 132.943 74.8689C134.506 74.8469 136.059 75.1233 137.519 75.6832Z" fill="#1F1F1F"/>
<path d="M142.55 142.569C144.488 144.507 153.319 146.504 156.46 146.446C164.583 146.446 181.508 136.384 181.217 135.657L176.244 123.453C172.047 126.206 167.656 128.862 162.741 129.86C157.827 130.859 152.253 129.919 148.773 126.313C146.291 123.734 145.157 120.167 143.151 117.21C141.144 114.254 137.431 111.763 134.126 113.12C129.774 114.903 128.775 122.067 130.336 125.876C132.837 132.051 137.936 137.926 142.55 142.569Z" fill="#6A99E6"/>
<path d="M115.873 191.569C115.553 192.538 115.195 193.507 114.826 194.477C113.779 197.123 112.752 200.661 115.01 202.396C115.805 202.931 116.73 203.239 117.686 203.288C120.865 203.647 124.084 203.036 127.282 203.104C134.271 203.24 140.776 206.545 146.825 210.045C148.099 210.881 149.504 211.497 150.983 211.867C151.725 212.041 152.5 212.017 153.229 211.797C153.959 211.578 154.619 211.171 155.142 210.617C156.111 209.405 156.111 207.708 156.014 206.119L154.512 177.038C154.327 173.481 155.481 162.401 151.245 161.403C148.55 160.763 144.382 162.081 141.551 162.265C138.149 162.498 134.766 162.595 131.315 162.585C129.616 162.633 127.919 162.441 126.274 162.013C125.305 161.703 122.126 159.949 121.05 160.191C117.763 160.966 119.169 171.765 119.062 174.305C118.823 180.181 117.749 185.994 115.873 191.569Z" fill="#1F1F1F"/>
<path d="M115.873 191.569C115.553 192.538 115.195 193.507 114.826 194.477C113.779 197.123 112.752 200.661 115.01 202.396C115.805 202.931 116.73 203.239 117.686 203.288C120.865 203.647 124.084 203.036 127.282 203.104C134.271 203.24 140.776 206.545 146.825 210.045C148.099 210.881 149.504 211.497 150.983 211.867C151.725 212.041 152.5 212.017 153.229 211.797C153.959 211.578 154.619 211.171 155.142 210.617C156.111 209.405 156.111 207.708 156.014 206.119L154.512 177.038C154.327 173.481 155.481 162.401 151.245 161.403C148.55 160.763 144.382 162.081 141.551 162.265C138.149 162.498 134.766 162.595 131.315 162.585C129.616 162.633 127.919 162.441 126.274 162.013C125.305 161.703 122.126 159.949 121.05 160.191C117.763 160.966 119.169 171.765 119.062 174.305C118.823 180.181 117.749 185.994 115.873 191.569Z" fill="url(#paint10_linear_33_155)"/>
<path d="M75.0344 211.073C74.2507 211.104 73.5027 211.409 72.9213 211.935C72.4138 212.689 72.2096 213.606 72.3493 214.504C72.6311 221.657 73.4052 228.783 74.6661 235.83C74.8212 236.702 75.112 237.769 75.9553 238.001C77.1864 238.408 78.1267 236.896 78.5532 235.675L84.0203 219.845C84.2423 219.347 84.3196 218.796 84.2433 218.256C84.03 217.373 83.0607 216.918 82.4791 216.21C81.3643 214.824 82.1107 212.449 80.7148 211.315C79.4741 210.307 76.4497 210.888 75.0344 211.073Z" fill="#6A99E6"/>
<path d="M120.274 255.11C119.771 255.714 119.497 256.476 119.498 257.262C119.717 258.142 120.261 258.908 121.02 259.404C126.515 264.002 132.322 268.213 138.401 272.006C139.157 272.471 140.107 272.975 140.872 272.51C142.007 271.86 141.512 270.154 140.872 269.02L132.778 254.354C132.578 253.861 132.242 253.434 131.809 253.123C131.005 252.687 130.016 253.123 129.105 253.055C127.321 252.958 126.061 250.816 124.258 251.116C122.678 251.3 121.088 253.937 120.274 255.11Z" fill="#6A99E6"/>
<path d="M75.0344 211.073C74.2507 211.104 73.5027 211.409 72.9213 211.935C72.4138 212.689 72.2096 213.606 72.3493 214.504C72.6311 221.657 73.4052 228.783 74.6661 235.83C74.8212 236.702 75.112 237.769 75.9553 238.001C77.1864 238.408 78.1267 236.896 78.5532 235.675L84.0203 219.845C84.2423 219.347 84.3196 218.796 84.2433 218.256C84.03 217.373 83.0607 216.918 82.4791 216.21C81.3643 214.824 82.1107 212.449 80.7148 211.315C79.4741 210.307 76.4497 210.888 75.0344 211.073Z" fill="url(#paint11_linear_33_155)"/>
<path d="M120.274 255.11C119.771 255.714 119.497 256.476 119.498 257.262C119.717 258.142 120.261 258.908 121.02 259.404C126.515 264.002 132.322 268.213 138.401 272.006C139.157 272.471 140.107 272.975 140.872 272.51C142.007 271.86 141.512 270.154 140.872 269.02L132.778 254.354C132.578 253.861 132.242 253.434 131.809 253.123C131.005 252.687 130.016 253.123 129.105 253.055C127.321 252.958 126.061 250.816 124.258 251.116C122.678 251.3 121.088 253.937 120.274 255.11Z" fill="url(#paint12_linear_33_155)"/>
<path d="M146.592 272.646H85.2223C83.0005 272.646 81.1995 274.444 81.1995 276.663C81.1995 278.883 83.0005 280.681 85.2223 280.681H146.592C148.814 280.681 150.615 278.883 150.615 276.663C150.615 274.444 148.814 272.646 146.592 272.646Z" fill="#6A99E6"/>
<path d="M135.629 312.467H74.2589C72.0372 312.467 70.2361 314.266 70.2361 316.485C70.2361 318.704 72.0372 320.503 74.2589 320.503H135.629C137.85 320.503 139.651 318.704 139.651 316.485C139.651 314.266 137.85 312.467 135.629 312.467Z" fill="#6A99E6"/>
<path d="M124.675 352.288H63.3055C61.0838 352.288 59.2827 354.086 59.2827 356.306C59.2827 358.525 61.0838 360.324 63.3055 360.324H124.675C126.897 360.324 128.698 358.525 128.698 356.306C128.698 354.086 126.897 352.288 124.675 352.288Z" fill="#6A99E6"/>
<path d="M66.6495 384.868H56.7815L83.6325 275.815H93.5005L66.6495 384.868Z" fill="#6A99E6"/>
<path d="M121.447 384.868H111.589L138.44 275.815H148.298L121.447 384.868Z" fill="#6A99E6"/>
<path d="M202.737 2.20624V46.3796H200.546V1.83789L202.737 2.20624Z" fill="#6A99E6"/>
<defs>
<linearGradient id="paint0_linear_33_155" x1="99.5492" y1="243.653" x2="227.417" y2="467.97" gradientUnits="userSpaceOnUse">
<stop offset="0.01"/>
<stop offset="0.13" stop-opacity="0.69"/>
<stop offset="1" stop-opacity="0"/>
</linearGradient>
<linearGradient id="paint1_linear_33_155" x1="90.6892" y1="248.703" x2="218.557" y2="473.021" gradientUnits="userSpaceOnUse">
<stop offset="0.01"/>
<stop offset="0.13" stop-opacity="0.69"/>
<stop offset="1" stop-opacity="0"/>
</linearGradient>
<linearGradient id="paint2_linear_33_155" x1="81.8294" y1="253.753" x2="209.697" y2="478.071" gradientUnits="userSpaceOnUse">
<stop offset="0.01"/>
<stop offset="0.13" stop-opacity="0.69"/>
<stop offset="1" stop-opacity="0"/>
</linearGradient>
<linearGradient id="paint3_linear_33_155" x1="258.649" y1="326.736" x2="130.782" y2="102.428" gradientUnits="userSpaceOnUse">
<stop offset="0.01"/>
<stop offset="0.13" stop-opacity="0.69"/>
<stop offset="1" stop-opacity="0"/>
</linearGradient>
<linearGradient id="paint4_linear_33_155" x1="300.011" y1="303.161" x2="172.144" y2="78.8433" gradientUnits="userSpaceOnUse">
<stop offset="0.01"/>
<stop offset="0.13" stop-opacity="0.69"/>
<stop offset="1" stop-opacity="0"/>
</linearGradient>
<radialGradient id="paint5_radial_33_155" cx="0" cy="0" r="1" gradientUnits="userSpaceOnUse" gradientTransform="translate(201.855 108.719) scale(39.7531 39.7531)">
<stop offset="0.34" stop-color="white"/>
<stop offset="1" stop-color="white" stop-opacity="0.39"/>
</radialGradient>
<linearGradient id="paint6_linear_33_155" x1="223.171" y1="55.792" x2="183.321" y2="55.792" gradientUnits="userSpaceOnUse">
<stop offset="0.01"/>
<stop offset="0.13" stop-opacity="0.69"/>
<stop offset="1" stop-opacity="0"/>
</linearGradient>
<linearGradient id="paint7_linear_33_155" x1="225.284" y1="55.5399" x2="180.723" y2="55.5399" gradientUnits="userSpaceOnUse">
<stop offset="0.01"/>
<stop offset="0.13" stop-opacity="0.69"/>
<stop offset="1" stop-opacity="0"/>
</linearGradient>
<linearGradient id="paint8_linear_33_155" x1="119.295" y1="373.662" x2="133.36" y2="333.114" gradientUnits="userSpaceOnUse">
<stop offset="0.01"/>
<stop offset="0.13" stop-opacity="0.69"/>
<stop offset="1" stop-opacity="0"/>
</linearGradient>
<linearGradient id="paint9_linear_33_155" x1="78.9894" y1="422.556" x2="108.584" y2="418.174" gradientUnits="userSpaceOnUse">
<stop offset="0.01"/>
<stop offset="0.13" stop-opacity="0.69"/>
<stop offset="1" stop-opacity="0"/>
</linearGradient>
<linearGradient id="paint10_linear_33_155" x1="78.9894" y1="368.534" x2="137.81" y2="367.807" gradientUnits="userSpaceOnUse">
<stop offset="0.01"/>
<stop offset="0.13" stop-opacity="0.69"/>
<stop offset="1" stop-opacity="0"/>
</linearGradient>
<linearGradient id="paint11_linear_33_155" x1="168.17" y1="328.548" x2="131.451" y2="335.13" gradientUnits="userSpaceOnUse">
<stop offset="0.01"/>
<stop offset="0.13" stop-opacity="0.69"/>
<stop offset="1" stop-opacity="0"/>
</linearGradient>
<linearGradient id="paint12_linear_33_155" x1="112.422" y1="284.976" x2="90.3208" y2="307.629" gradientUnits="userSpaceOnUse">
<stop offset="0.01"/>
<stop offset="0.13" stop-opacity="0.69"/>
<stop offset="1" stop-opacity="0"/>
</linearGradient>
</defs>
</svg>
