<svg width="514" height="572" viewBox="0 0 514 572" fill="none" xmlns="http://www.w3.org/2000/svg">
<path opacity="0.18" d="M501.071 545.346C484.522 547.259 467.973 548.886 451.423 550.321C451.61 550.723 451.835 551.108 452.093 551.469C453.815 554.051 457.354 554.53 460.32 555.773C463.285 557.017 465.964 560.556 464.051 563.044C463.094 564.287 461.372 564.67 459.841 564.861L442.718 567.731C421.864 571.175 399.862 574.618 380.156 567.061C372.025 563.904 371.451 559.217 374.225 555.295C268.329 559.887 161.954 556.347 55.8664 552.903C47.2569 552.903 37.5952 550.608 35.2993 541.903C89.9216 517.318 142.918 517.222 202.132 515.596L410.194 510.048C413.733 509.952 417.559 509.952 420.621 511.769C423.682 513.587 425.404 517.222 427.986 519.901C435.639 527.84 448.458 526.214 459.459 525.353C475.518 524.182 491.65 526.23 506.907 531.38C509.011 532.049 511.307 533.006 512.359 534.919C515.229 540.276 507.098 544.677 501.071 545.346Z" fill="#1D2741"/>
<path opacity="0.18" d="M222.89 2.37608C194.957 8.21138 170.372 24.8563 149.136 43.8928C127.899 62.9293 108.958 84.5486 87.2432 103.107C53.6662 131.901 10.6189 157.729 2.10513 201.159C-4.68678 235.98 13.6801 270.8 14.541 306.29C15.0193 333.171 5.54891 359.19 3.54004 385.975C1.53116 412.378 7.55779 440.311 24.8724 460.304C49.5528 488.811 91.8349 495.507 129.238 490.15C166.642 484.793 201.845 469.487 238.674 461.356C283.061 451.599 329.265 452.364 374.512 457.243C402.158 460.208 431.143 464.513 457.163 454.564C480.313 445.763 498.584 426.057 507.385 402.907C516.186 379.758 515.899 353.642 508.342 330.11C497.915 297.489 474.86 270.513 460.129 239.615C447.597 213.308 441.379 184.61 434.492 156.294C429.9 137.545 424.734 118.126 412.011 103.585C397.566 86.8445 375.66 79.096 356.241 68.4776C309.272 42.8406 284.209 -10.4425 222.89 2.37608Z" fill="#6A99E6"/>
<path d="M115.08 35.3789H280.956V546.972H115.08C107.063 546.972 99.3744 543.787 93.7054 538.118C88.0364 532.449 84.8516 524.761 84.8516 516.744V65.6077C84.8516 57.5905 88.0364 49.9017 93.7054 44.2327C99.3744 38.5637 107.063 35.3789 115.08 35.3789Z" fill="#6A99E6"/>
<path d="M115.08 35.3789H280.956V546.972H115.08C107.063 546.972 99.3744 543.787 93.7054 538.118C88.0364 532.449 84.8516 524.761 84.8516 516.744V65.6077C84.8516 57.5905 88.0364 49.9017 93.7054 44.2327C99.3744 38.5637 107.063 35.3789 115.08 35.3789Z" fill="url(#paint0_linear_30_1543)"/>
<path d="M133.447 35.3789H352.032C361.495 35.3789 370.571 39.1382 377.263 45.8298C383.954 52.5213 387.713 61.597 387.713 71.0603V511.291C387.713 520.754 383.954 529.83 377.263 536.521C370.571 543.213 361.495 546.972 352.032 546.972H133.447C123.984 546.972 114.908 543.213 108.217 536.521C101.525 529.83 97.7659 520.754 97.7659 511.291V71.0603C97.7659 61.597 101.525 52.5213 108.217 45.8298C114.908 39.1382 123.984 35.3789 133.447 35.3789Z" fill="#6A99E6"/>
<path d="M374.99 66.0862V491.585C374.965 496.372 373.052 500.956 369.667 504.342C366.282 507.727 361.698 509.64 356.911 509.665H128.568C123.787 509.65 119.207 507.737 115.835 504.347C112.463 500.957 110.574 496.367 110.584 491.585V66.0862C110.574 61.3046 112.463 56.7145 115.835 53.3244C119.207 49.9343 123.787 48.0216 128.568 48.0064H173.72V53.6503C173.72 58.4708 175.635 63.0938 179.044 66.5024C182.452 69.911 187.075 71.8259 191.896 71.8259H293.201C298.021 71.8259 302.644 69.911 306.053 66.5024C309.461 63.0938 311.376 58.4708 311.376 53.6503V48.0064H356.911C359.286 48.0038 361.638 48.4698 363.832 49.3775C366.027 50.2852 368.021 51.6168 369.701 53.2962C371.38 54.9756 372.712 56.9697 373.619 59.1644C374.527 61.3591 374.993 63.7112 374.99 66.0862Z" fill="#F9FBFE"/>
<path d="M216.576 49.5372H268.903C269.218 49.5346 269.53 49.5948 269.821 49.714C270.112 49.8333 270.377 50.0094 270.6 50.232C270.822 50.4545 270.998 50.7192 271.117 51.0105C271.237 51.3018 271.297 51.6139 271.294 51.9287V52.407C271.297 52.7218 271.237 53.0339 271.117 53.3252C270.998 53.6165 270.822 53.8812 270.6 54.1037C270.377 54.3263 270.112 54.5024 269.821 54.6217C269.53 54.741 269.218 54.8011 268.903 54.7985H216.576C216.262 54.8011 215.95 54.741 215.658 54.6217C215.367 54.5024 215.102 54.3263 214.88 54.1037C214.657 53.8812 214.481 53.6165 214.362 53.3252C214.242 53.0339 214.182 52.7218 214.185 52.407V51.9287C214.195 51.2975 214.45 50.6949 214.896 50.2486C215.343 49.8022 215.945 49.5471 216.576 49.5372Z" fill="url(#paint1_linear_30_1543)"/>
<path d="M355.189 48.0063V432.658C355.179 441.306 351.739 449.598 345.623 455.713C339.508 461.828 331.217 465.268 322.568 465.278H110.584V66.0862C110.574 61.3046 112.463 56.7145 115.835 53.3244C119.207 49.9343 123.787 48.0215 128.568 48.0063H173.72V53.6503C173.72 58.4708 175.635 63.0938 179.044 66.5024C182.452 69.9109 187.075 71.8259 191.896 71.8259H293.201C298.021 71.8259 302.644 69.9109 306.053 66.5024C309.461 63.0938 311.376 58.4708 311.376 53.6503V48.0063H355.189Z" fill="#1F1F1F"/>
<path d="M162.72 217.612H431.143C435.786 217.615 440.237 219.46 443.519 222.742C446.802 226.025 448.647 230.476 448.649 235.118V301.22C448.647 305.862 446.802 310.313 443.519 313.595C440.237 316.878 435.786 318.723 431.143 318.726H162.72C158.077 318.723 153.626 316.878 150.344 313.595C147.061 310.313 145.216 305.862 145.214 301.22V235.118C145.216 230.476 147.061 226.025 150.344 222.742C153.626 219.46 158.077 217.615 162.72 217.612Z" fill="#6A99E6"/>
<path d="M162.72 217.612H431.143C435.786 217.615 440.237 219.46 443.519 222.742C446.802 226.025 448.647 230.476 448.649 235.118V301.22C448.647 305.862 446.802 310.313 443.519 313.595C440.237 316.878 435.786 318.723 431.143 318.726H162.72C158.077 318.723 153.626 316.878 150.344 313.595C147.061 310.313 145.216 305.862 145.214 301.22V235.118C145.216 230.476 147.061 226.025 150.344 222.742C153.626 219.46 158.077 217.615 162.72 217.612Z" fill="url(#paint2_linear_30_1543)"/>
<path d="M167.981 211.299H436.405C441.047 211.302 445.498 213.147 448.78 216.429C452.063 219.712 453.908 224.163 453.911 228.805V294.907C453.908 299.549 452.063 304 448.78 307.283C445.498 310.565 441.047 312.41 436.405 312.413H167.981C163.339 312.41 158.887 310.565 155.605 307.283C152.323 304 150.477 299.549 150.475 294.907V228.805C150.477 224.163 152.323 219.712 155.605 216.429C158.887 213.147 163.339 211.302 167.981 211.299Z" fill="#F9FBFE"/>
<path d="M137.561 98.8022H182.904V144.145H137.561V98.8022Z" fill="#F9FBFE"/>
<path d="M177.93 229.857H223.847C226.257 229.857 228.568 230.815 230.273 232.519C231.977 234.223 232.934 236.535 232.934 238.945V284.862C232.934 286.055 232.699 287.237 232.243 288.34C231.786 289.442 231.117 290.444 230.273 291.288C229.429 292.132 228.427 292.801 227.324 293.258C226.222 293.715 225.04 293.95 223.847 293.95H177.93C176.736 293.95 175.554 293.715 174.452 293.258C173.349 292.801 172.347 292.132 171.504 291.288C170.66 290.444 169.99 289.442 169.534 288.34C169.077 287.237 168.842 286.055 168.842 284.862V238.945C168.833 237.749 169.062 236.563 169.515 235.457C169.969 234.35 170.638 233.345 171.484 232.499C172.329 231.653 173.335 230.984 174.441 230.531C175.548 230.077 176.734 229.848 177.93 229.857Z" fill="#6A99E6"/>
<path d="M137.561 155.05H182.904V200.393H137.561V155.05Z" fill="#F9FBFE"/>
<path d="M137.561 333.936H182.904V379.279H137.561V333.936Z" fill="#F9FBFE"/>
<path d="M137.561 390.185H182.904V435.528H137.561V390.185Z" fill="#F9FBFE"/>
<path opacity="0.38" d="M232.839 276.348V284.862C232.839 286.056 232.604 287.237 232.147 288.34C231.69 289.443 231.021 290.444 230.177 291.288C229.333 292.132 228.331 292.802 227.229 293.258C226.126 293.715 224.944 293.95 223.751 293.95H177.834C176.64 293.95 175.459 293.715 174.356 293.258C173.254 292.802 172.252 292.132 171.408 291.288C170.564 290.444 169.895 289.443 169.438 288.34C168.981 287.237 168.746 286.056 168.746 284.862V276.348C176.39 271.281 185.036 267.92 194.096 266.495C191.467 265.022 189.402 262.717 188.227 259.942C187.052 257.166 186.833 254.079 187.605 251.166C188.377 248.253 190.096 245.679 192.491 243.85C194.886 242.02 197.821 241.039 200.835 241.061C203.849 241.083 206.769 242.107 209.138 243.971C211.506 245.835 213.187 248.434 213.916 251.358C214.645 254.282 214.381 257.366 213.166 260.124C211.95 262.881 209.852 265.157 207.202 266.591C220.786 268.791 232.839 276.348 232.839 276.348Z" fill="#F9FBFE"/>
<path d="M431.239 241.049H258.093C257.332 241.049 256.602 240.747 256.064 240.209C255.525 239.67 255.223 238.941 255.223 238.179C255.223 237.418 255.525 236.688 256.064 236.15C256.602 235.612 257.332 235.31 258.093 235.31H431.239C432 235.31 432.73 235.612 433.268 236.15C433.806 236.688 434.109 237.418 434.109 238.179C434.109 238.941 433.806 239.67 433.268 240.209C432.73 240.747 432 241.049 431.239 241.049Z" fill="#6A99E6"/>
<path d="M199.836 110.664H362.076C362.787 110.664 363.468 110.946 363.97 111.449C364.473 111.951 364.755 112.632 364.755 113.343C364.755 114.053 364.473 114.734 363.97 115.237C363.468 115.739 362.787 116.021 362.076 116.021H199.836C199.125 116.021 198.444 115.739 197.942 115.237C197.439 114.734 197.157 114.053 197.157 113.343C197.157 112.632 197.439 111.951 197.942 111.449C198.444 110.946 199.125 110.664 199.836 110.664Z" fill="#F9FBFE"/>
<path d="M362.076 134.196H199.836C199.125 134.196 198.444 133.914 197.942 133.412C197.439 132.91 197.157 132.228 197.157 131.518C197.157 130.807 197.439 130.126 197.942 129.624C198.444 129.122 199.125 128.839 199.836 128.839H362.076C362.787 128.839 363.468 129.122 363.97 129.624C364.473 130.126 364.755 130.807 364.755 131.518C364.74 132.224 364.453 132.896 363.954 133.396C363.455 133.895 362.782 134.182 362.076 134.196Z" fill="#F9FBFE"/>
<path d="M362.076 170.739H199.836C199.125 170.739 198.444 170.457 197.942 169.955C197.439 169.453 197.157 168.771 197.157 168.061C197.157 167.35 197.439 166.669 197.942 166.167C198.444 165.665 199.125 165.382 199.836 165.382H362.076C362.787 165.382 363.468 165.665 363.97 166.167C364.473 166.669 364.755 167.35 364.755 168.061C364.74 168.767 364.453 169.439 363.954 169.939C363.455 170.438 362.782 170.725 362.076 170.739Z" fill="#F9FBFE"/>
<path d="M362.076 186.14H199.836C199.125 186.14 198.444 185.858 197.942 185.356C197.439 184.853 197.157 184.172 197.157 183.462C197.157 182.751 197.439 182.07 197.942 181.568C198.444 181.065 199.125 180.783 199.836 180.783H362.076C362.787 180.783 363.468 181.065 363.97 181.568C364.473 182.07 364.755 182.751 364.755 183.462C364.74 184.167 364.453 184.84 363.954 185.339C363.455 185.839 362.782 186.126 362.076 186.14Z" fill="#F9FBFE"/>
<path d="M362.076 351.633H199.836C199.125 351.633 198.444 351.351 197.942 350.849C197.439 350.347 197.157 349.665 197.157 348.955C197.157 348.244 197.439 347.563 197.942 347.061C198.444 346.559 199.125 346.276 199.836 346.276H362.076C362.787 346.276 363.468 346.559 363.97 347.061C364.473 347.563 364.755 348.244 364.755 348.955C364.74 349.661 364.453 350.333 363.954 350.833C363.455 351.332 362.782 351.619 362.076 351.633Z" fill="#F9FBFE"/>
<path d="M362.076 367.035H199.836C199.125 367.035 198.444 366.753 197.942 366.25C197.439 365.748 197.157 365.067 197.157 364.356C197.157 363.646 197.439 362.965 197.942 362.462C198.444 361.96 199.125 361.678 199.836 361.678H362.076C362.787 361.678 363.468 361.96 363.97 362.462C364.473 362.965 364.755 363.646 364.755 364.356C364.74 365.062 364.453 365.735 363.954 366.234C363.455 366.733 362.782 367.02 362.076 367.035Z" fill="#F9FBFE"/>
<path d="M362.076 407.882H199.836C199.125 407.882 198.444 407.6 197.942 407.097C197.439 406.595 197.157 405.914 197.157 405.203C197.157 404.852 197.227 404.503 197.361 404.178C197.496 403.853 197.693 403.558 197.942 403.309C198.19 403.061 198.486 402.863 198.811 402.729C199.136 402.594 199.484 402.525 199.836 402.525H362.076C362.428 402.525 362.776 402.594 363.101 402.729C363.426 402.863 363.722 403.061 363.97 403.309C364.219 403.558 364.416 403.853 364.551 404.178C364.685 404.503 364.755 404.852 364.755 405.203C364.74 405.909 364.453 406.582 363.954 407.081C363.455 407.58 362.782 407.867 362.076 407.882Z" fill="#F9FBFE"/>
<path d="M362.076 423.283H199.836C199.125 423.283 198.444 423.001 197.942 422.499C197.439 421.996 197.157 421.315 197.157 420.605C197.157 419.894 197.439 419.213 197.942 418.711C198.444 418.208 199.125 417.926 199.836 417.926H362.076C362.787 417.926 363.468 418.208 363.97 418.711C364.473 419.213 364.755 419.894 364.755 420.605C364.74 421.311 364.453 421.983 363.954 422.483C363.455 422.982 362.782 423.269 362.076 423.283Z" fill="#F9FBFE"/>
<path d="M431.239 259.512H258.093C257.332 259.512 256.602 259.21 256.064 258.672C255.525 258.133 255.223 257.403 255.223 256.642C255.223 255.881 255.525 255.151 256.064 254.613C256.602 254.075 257.332 253.772 258.093 253.772H431.239C432 253.772 432.73 254.075 433.268 254.613C433.806 255.151 434.109 255.881 434.109 256.642C434.109 257.403 433.806 258.133 433.268 258.672C432.73 259.21 432 259.512 431.239 259.512Z" fill="#6A99E6"/>
<path d="M431.239 277.975H258.093C257.332 277.975 256.602 277.672 256.064 277.134C255.525 276.596 255.223 275.866 255.223 275.105C255.223 274.344 255.525 273.614 256.064 273.075C256.602 272.537 257.332 272.235 258.093 272.235H431.239C432 272.235 432.73 272.537 433.268 273.075C433.806 273.614 434.109 274.344 434.109 275.105C434.109 275.866 433.806 276.596 433.268 277.134C432.73 277.672 432 277.975 431.239 277.975Z" fill="#6A99E6"/>
<path d="M398.332 403.099L387.426 482.497C386.963 485.85 387.324 489.265 388.479 492.446L407.993 549.843L419.377 546.303L410.768 489.194C410.592 488.013 410.657 486.809 410.959 485.654L425.786 434.571L432.196 549.747H442.718L451.806 436.006C454.867 417.066 449.223 403.003 449.223 403.003L398.332 403.099Z" fill="#1F1F1F"/>
<path d="M454.198 333.075V387.602C454.198 394.298 453.145 399.655 446.449 399.655H399.767C393.07 399.655 392.879 394.298 392.783 387.602L392.401 350.485C392.401 350.485 382.356 368.47 374.321 366.748C366.285 365.026 342.466 332.119 342.466 332.119L354.328 322.17L374.321 342.259C374.321 342.259 377.573 334.988 382.165 318.63C386.757 302.272 402.062 302.177 402.062 302.177H442.623C457.259 302.177 454.198 333.075 454.198 333.075Z" fill="#6A99E6"/>
<path d="M453.911 277.975C453.911 277.975 468.738 308.395 469.503 318.822C470.269 329.249 454.389 343.311 454.389 343.311L442.527 302.177H453.815V277.975H453.911Z" fill="#6A99E6"/>
<path d="M453.911 277.975C453.911 277.975 468.738 308.395 469.503 318.822C470.269 329.249 454.389 343.311 454.389 343.311L442.527 302.177H453.815V277.975H453.911Z" fill="url(#paint3_linear_30_1543)"/>
<path d="M454.485 343.311C454.485 343.311 464.146 316.717 463.094 310.69C462.042 304.664 453.911 285.34 453.911 285.34V302.272L439.657 302.559L454.485 343.311Z" fill="#6A99E6"/>
<path d="M398.332 399.368H449.223V403.098H398.332V399.368Z" fill="#6A99E6"/>
<path d="M398.332 399.368H449.223V403.098H398.332V399.368Z" fill="url(#paint4_linear_30_1543)"/>
<path d="M415.646 265.156H430.283V302.464H415.646V265.156Z" fill="url(#paint5_linear_30_1543)"/>
<path d="M430.282 261.042V302.464H422.534V299.976C422.534 298.505 421.949 297.094 420.909 296.053C419.868 295.013 418.457 294.428 416.985 294.428H416.507C414.678 294.437 412.866 294.085 411.174 293.392C409.482 292.699 407.943 291.679 406.645 290.391C405.348 289.102 404.318 287.57 403.613 285.883C402.909 284.196 402.544 282.386 402.541 280.557V261.138H430.282V261.042Z" fill="url(#paint6_linear_30_1543)"/>
<path d="M406.271 248.415C409.333 246.693 413.063 246.502 416.698 246.406L424.256 246.215C425.948 246.135 427.644 246.199 429.326 246.406C430.941 246.673 432.489 247.256 433.879 248.122C435.268 248.989 436.473 250.121 437.424 251.454C438.376 252.787 439.054 254.295 439.421 255.892C439.787 257.488 439.835 259.141 439.561 260.755C439.395 261.64 439.138 262.505 438.796 263.338C438.505 263.942 438.311 264.587 438.222 265.251C438.385 266.297 438.742 267.303 439.274 268.217C440.327 271.087 438.605 274.148 436.691 276.444C434.778 278.739 432.482 281.131 432.195 284.192C432.1 285.149 432.195 286.297 431.526 287.062C431.114 287.438 430.585 287.661 430.029 287.696C429.472 287.731 428.92 287.575 428.465 287.253C427.589 286.588 426.871 285.739 426.36 284.766C426.456 286.201 424.447 286.966 423.203 286.297C422.619 285.892 422.128 285.367 421.765 284.756C421.402 284.146 421.175 283.464 421.099 282.757C420.933 281.353 420.512 279.991 419.855 278.739C419.186 277.783 418.133 277.113 417.846 275.965C417.272 274.052 419.186 271.947 418.42 270.034C417.846 268.504 415.646 268.025 414.116 268.695C412.65 269.507 411.428 270.696 410.576 272.139C412.011 270.226 410.863 266.973 409.332 265.443C406.941 262.86 403.402 265.06 401.393 263.242C397.662 259.607 402.923 250.328 406.271 248.415Z" fill="#1F1F1F"/>
<path opacity="0.25" d="M427.03 302.368C427.03 302.368 421.29 309.829 413.446 309.829C405.602 309.829 382.548 332.405 381.017 339.197C379.486 345.989 374.321 342.258 374.321 342.258C374.321 342.258 377.573 334.988 382.165 318.63C386.757 302.272 402.062 302.176 402.062 302.176H422.725L427.03 302.368Z" fill="#F9FBFE"/>
<path d="M419.281 545.346L423.299 555.199L407.132 562.852L392.114 563.904C392.114 563.904 389.531 554.051 396.514 553.19C400.594 552.724 404.483 551.208 407.802 548.79L419.281 545.346Z" fill="#1D48BB"/>
<path d="M432.1 549.747C430.07 550.598 428.306 551.979 426.993 553.746C425.68 555.514 424.867 557.601 424.638 559.791L424.256 563.904H442.623V549.747H432.1Z" fill="#1D48BB"/>
<path d="M354.232 322.265L346.484 312.699C346.484 312.699 343.805 302.464 342.371 308.777C341.51 312.317 339.214 318.726 339.214 318.726H327.352C327.352 318.726 335.674 327.527 339.214 329.153C340.829 329.863 342.536 330.346 344.284 330.588L354.232 322.265Z" fill="url(#paint7_linear_30_1543)"/>
<defs>
<linearGradient id="paint0_linear_30_1543" x1="-55.2148" y1="630.675" x2="354.835" y2="63.637" gradientUnits="userSpaceOnUse">
<stop stop-opacity="0"/>
<stop offset="0.85" stop-opacity="0.51"/>
<stop offset="0.99"/>
</linearGradient>
<linearGradient id="paint1_linear_30_1543" x1="242.979" y1="42.8409" x2="242.443" y2="63.4941" gradientUnits="userSpaceOnUse">
<stop stop-opacity="0"/>
<stop offset="0.85" stop-opacity="0.51"/>
<stop offset="0.99"/>
</linearGradient>
<linearGradient id="paint2_linear_30_1543" x1="297.19" y1="213.193" x2="296.386" y2="386.922" gradientUnits="userSpaceOnUse">
<stop stop-opacity="0"/>
<stop offset="0.85" stop-opacity="0.51"/>
<stop offset="0.99"/>
</linearGradient>
<linearGradient id="paint3_linear_30_1543" x1="409.869" y1="380.532" x2="483.699" y2="267.375" gradientUnits="userSpaceOnUse">
<stop stop-opacity="0"/>
<stop offset="0.85" stop-opacity="0.51"/>
<stop offset="0.99"/>
</linearGradient>
<linearGradient id="paint4_linear_30_1543" x1="422.113" y1="16.6651" x2="426.963" y2="-5.78659" gradientUnits="userSpaceOnUse">
<stop stop-opacity="0"/>
<stop offset="0.85" stop-opacity="0.51"/>
<stop offset="0.99"/>
</linearGradient>
<linearGradient id="paint5_linear_30_1543" x1="418.421" y1="283.896" x2="442.518" y2="283.456" gradientUnits="userSpaceOnUse">
<stop stop-color="#ECC4D7"/>
<stop offset="0.42" stop-color="#EFD4D1"/>
<stop offset="1" stop-color="#F2EAC9"/>
</linearGradient>
<linearGradient id="paint6_linear_30_1543" x1="419.817" y1="280.002" x2="414.852" y2="282.633" gradientUnits="userSpaceOnUse">
<stop stop-color="#ECC4D7"/>
<stop offset="0.42" stop-color="#EFD4D1"/>
<stop offset="1" stop-color="#F2EAC9"/>
</linearGradient>
<linearGradient id="paint7_linear_30_1543" x1="327.352" y1="318.649" x2="354.271" y2="318.649" gradientUnits="userSpaceOnUse">
<stop stop-color="#ECC4D7"/>
<stop offset="0.42" stop-color="#EFD4D1"/>
<stop offset="1" stop-color="#F2EAC9"/>
</linearGradient>
</defs>
</svg>
